<svg xmlns="http://www.w3.org/2000/svg" viewBox="0 0 2186.9 2173.4"><path d="M1430.6 2028.3c-9.8 0-18.6 0-26.4-1-16.6-1-33.2-2-49.8-2-10.7 0-10.7 0-11.7-10.7l-15.6-177.7-15.6-147.5-10.7-90.8-9.8-79.1-17.6-123.1c-5.9-43.9-12.7-86.9-21.5-130.9-1-6.8-1-7.8 6.8-8.8 30.3-5.9 61.5-8.8 92.8-8.8h10.7c4.9 1 7.8 3.9 8.8 9.8l3.9 67.4 27.3 364.3 13.7 167 8.8 95.7 5.9 76.2zM1303.2 188.2h17.6c8.8 0 10.7 2.9 10.7 11.7l7.8 118.2 17.6 245.1 10.7 127.9 7.8 98.6 15.6 169.9c0 7.8-1 8.8-8.8 8.8l-70.3-2.9c-4.9 1-7.8-2-7.8-6.8l-2.9-34.2c-2.9-29.3-5.9-58.6-7.8-88.9l-15.6-154.3-16.6-139.6-11.7-98.6-12.7-89.9c-5.9-40-12.7-81.1-19.5-121.1l-4.9-27.3c-1-4.9 0-6.8 4.9-7.8 27.3-4.9 53.7-9.8 85.9-8.8zm-87.4 1453.4c24.4 0 27.3 1 31.3 24.4 4.9 29.3 8.8 58.6 11.7 87.9l10.7 94.7 20.5 201.2c1 4.9 0 6.8-4.9 6.8l-76.2 8.8c-7.8 1-9.8 0-10.7-7.8l-43.9-224.6-27.3-149.4-3.9-20.5c-1-3.9 1-6.8 4.9-7.8 30.2-6.9 59.5-11.8 87.8-13.7zm-40.5-1059.9c26.4-1 29.3 2 32.2 26.4 6.8 40 11.7 79.1 15.6 119.1l12.7 117.2 7.8 79.1 6.8 63.5c0 8.8-1 10.8-8.8 11.7l-72.3 6.8c-7.8 1-9.8 0-10.8-7.8L1098.9 691l-15.6-86.9c-1-4.9 1-7.8 5.9-8.8 30.4-6.7 58.7-11.6 86.1-13.6zm370.8 332.7v125c1 5.9-1.9 8.8-7.8 7.8h-23.4c-16.6 0-33.2 1-49.8 2-8.8 1-9.8 1-10.8-9.8l-15.6-175.8-7.8-86.9-11.7-132.8c-1-10.8 1-12.7 9.8-13.7 27.3-2.9 54.7-2.9 82-2l20.5 2.9c7.8 2.9 8.8 3.9 8.8 11.7l2.9 52.7 1 58.6c.9 53.9 1.9 106.6 1.9 160.3zm40.8 1035.8v120.2c0 4.9-1.9 7.8-6.8 6.8H1545c-13.7 0-27.4 1-40 1.9-7.8 1-8.8 0-9.8-8.8l-20.5-228.5-10.8-113.3-3.9-57.6c-1-7.8 1-9.8 8.8-9.8 32.2-3.9 65.4-4.9 97.6-1 12.7 1 14.6 4.9 15.6 17.6l2.9 129.9 2 142.6zm-399.4-516.6c9.8 0 18.6 1 25.4 1.9 4.9 1 6.8 2.9 7.8 7.8l12.7 135.7c2.9 11.7 1 13.7-10.7 13.7l-33.2 1.9c-6.8 1-9.8 2-9.8-8.8l-13.7-110.4-3.9-31.3c-1-5.9 1-8.8 6.8-9.8l18.6-.7zm-36.6-1059.9c7.8 0 15.6 1 22.5 2 3.9 1 5.9 2.9 6.8 7.8l3.9 34.2 9.8 106.4c1 7.8 1 8.8-6.8 8.8l-38.1 2c-7.8 1-8.8 0-9.8-7.8l-8.8-78.1-7.8-65.4c-1-4.9 1-7.8 5.9-7.8 6.7-1.1 14.5-2.1 22.4-2.1zm389.6 97.7v67.4c1 10.7-1 10.7-9.8 10.7-12.7 0-24.4-1-36.1-2-7.8-1-8.8-1-7.8-8.8l-2.9-83c0-18.5 0-37.1-1-55.7-1-8.8 0-9.8 8.8-9.8 13.7 0 27.3 1 41 2.9 7.8 0 7.8 2 7.8 9.8v68.5zm39.5 1060.8v67.4c0 8.8-1 9.8-9.8 9.8l-37.1-1.9c-5.9-1-8.8-3.9-7.8-8.8l-2.9-139.7c0-7.8 1-8.8 8.8-8.8 12.7 0 24.4 1 36.1 2 14.6 1 12.7 3.9 12.7 14.6v65.4zM1120.6 525.1c1 11.7 0 13.7-11.7 14.6l-23.4 5.9c-7.8 2.9-8.8 1-9.8-5.9L1051.2 402c-2.9-8.8-1-10.7 7.8-11.7l34.2-5.9c7.8-1 9.8-1 9.8 6.8 2.9 16.6 5.9 33.2 7.8 49.8l9.8 78.1v6zm-30.8 926c14.7-2.9 30.3-4.9 45.9-6.8 4.9-1 6.8 2 7.8 6.8l7.8 53.7c3.9 26.4 6.8 52.7 7.8 79.1v7.8c1 3.9-1 6.8-4.9 7.8l-31.3 6.8c-4.9 1-6.8-1-7.8-5.9l-25.4-145.5v-3.8h.1zm376.5-954.3c0 15.6-1 30.3-2 43.9 0 4.9-2 6.8-6.8 7.8l-30.3 2.9c-4.9 1-6.8-2-6.8-6.8-1.9-14.7-2.9-28.3-3.9-43-2-26.4-3.9-53.7-4.9-81l-1.9-19.5c-1-3.9 1-5.9 4.9-5.9l40-2.9c6.8 0 8.8 1 8.8 8.8l2.9 95.7zm37.6 1044.2c1 18.6 1 38.1 0 56.6 1 8.8-1 10.8-9.8 10.8l-27.4 2.9c-4.9 1-7.8-2-7.8-6.8-1-24.4-2.9-49.8-4.9-74.2l-3.9-68.4c-1-4.9 1-6.8 4.9-6.8l39.1-2.9c6.8 0 7.8 1 7.8 8.8 2 26.3 2.9 53.6 2 80zm-421.4-726.9c15.6 18.6 18.6 39.1 11.7 61.5-5.9 21.5-16.6 40-32.2 55.7-25.4 26.4-54.7 47.8-86.9 64.5-55.7 29.3-113.3 49.8-174.8 60.6-43.9 8.8-87.9 14.7-131.8 17.6-13.7 1-27.3 1-41 1h-29.3c-7.8 0-9.8-1.9-10.8-9.8l-6.8-94.7L562 783.9l-20.5-177.7-11.7-94.7-12.7-90.8c-6.8-49.8-15.6-99.6-24.4-149.4-6.8-40-13.7-80.1-22.5-120.1-1-4.9 0-8.8 4.9-9.8l135.7-56.6c8.8-3.9 16.6-6.8 25.4-8.8 5.9-1 8.8 1 7.8 6.8 0 15.6 0 31.3-1 47.8l-1 12.7c-1 56.6-1 113.3 0 170.9 1 49.8 3.9 100.6 6.8 150.4 4.9 78.1 12.7 156.2 20.5 233.4 0 7.8 1 7.8 9.8 6.8 16.6-2.9 32.2-3.9 48.8-3.9 51.8 0 103.5 5.9 153.3 18.5 43.9 10.8 85.9 25.4 127.9 44 20.5 9.8 39.1 21.5 56.6 35.2 7 4.8 11.9 9.7 16.8 15.5zm34.8 1013.8c20.5 16.6 27.3 39.1 21.5 65.4-4.9 21.5-14.7 40-29.3 56.6-23.4 26.4-50.8 46.9-81.1 63.5-58.6 32.2-121.1 54.7-187.5 66.4-36.1 6.8-72.3 12.7-108.4 15.6-20.5 1.9-43 2.9-65.4 1.9h-26.4c-5.8 1-8.8-1.9-8.8-7.8-2-27.3-3.9-54.7-6.8-82l-15.6-167-16.6-145.5-20.5-164c-2.9-28.3-6.8-57.6-11.7-85.9l-17.6-109.4c-7.8-51.8-17.6-103.5-28.3-155.3l-1-6.8c-1.9-4.9 0-8.8 4.9-9.8 47.9-19.5 94.7-41 142.6-59.6 12.7-4.9 28.3-10.7 27.3 1-3.9 36.1-2.9 72.3-3.9 107.4-1 29.3-1 58.6 1 86.9v22.5c0 35.2 1 70.3 3.9 104.5 2 45.9 4.9 92.8 8.8 138.7l8.8 98.6c1 18.5 2.9 36.1 5.9 54.7 0 10.7 1.9 9.8 10.7 8.8 17.6-2.9 35.2-3.9 52.7-3.9 61.5 1 121.1 10.7 179.7 27.3 40 10.8 78.1 25.4 115.2 44.9 16.6 8.9 31.3 19.6 45.9 32.3zM754 989.3c14.7-8.8 40-26.4 75.2-53.7 35.2-28.3 56.6-46.9 65.4-56.6-52.7-23.4-107.4-44-164.1-62.5L754 989.3zm188.6 910.1c2.9-2.9 1.9-4.9-1-6.8l-23.4-9.8c-41-17.6-82-33.2-124-46.9l-5.9-2c-1.9-1-3.9 0-6.8 1l23.4 168.9c2.9 0 4.9-1 5.9-2 38.1-27.3 76.2-55.7 114.3-85.9l17.5-16.5z" fill="#07a3d7"/></svg>