<?xml version="1.0" encoding="utf-8"?>
<!-- Generator: Adobe Illustrator 24.1.2, SVG Export Plug-In . SVG Version: 6.00 Build 0)  -->
<svg version="1.1" id="svg" xmlns="http://www.w3.org/2000/svg" xmlns:xlink="http://www.w3.org/1999/xlink" x="0px" y="0px"
	 viewBox="0 0 256 256" style="enable-background:new 0 0 256 256;" xml:space="preserve">
<style type="text/css">
	.st0{fill-rule:evenodd;clip-rule:evenodd;fill:#0474FC;}
	.st1{fill-rule:evenodd;clip-rule:evenodd;fill:#2C2C44;}
</style>
	<g id="svgg">
	<path id="path0" class="st0" d="M35.1,17.4H25.1v35.8c0,30.7,0,35.9,0.2,36.1c0.2,0.2,0.2,0.7-0.1,0.7c-0.1,0,0,0.1,0.1,0.2
		c0.2,0.2,0.2,0.3,0.2,0.9c-0.1,0.5,0,0.7,0.1,0.7c0.1-0.1,0.2,0,0.2,0.2c0,0.1,0.1,0.2,0.2,0.2c0.2-0.1,0.2,0.1,0,0.3
		c-0.1,0.1-0.1,0.2,0,0.1s0.2,0,0.2,0.2c0.1,0.1,0,0.2-0.1,0.2c-0.2-0.1-0.2,0.4,0,0.6c0.1,0.1,0.3,0.8,0.3,1.2
		c0,0.1,0.1,0.2,0.2,0.2c0.2,0,0.4,0.6,0.2,1c-0.1,0.2,0,0.4,0.3,0.7c0.2,0.2,0.3,0.4,0.2,0.4c-0.2,0.1,0.1,0.7,0.2,0.7
		c0.1,0,0.1,0.1,0,0.2c-0.1,0.2,0,0.3,0.2,0.5c0.2,0.2,0.2,0.3,0.2,0.4c0,0.3,0.2,0.7,0.3,0.7c0.1,0,0.1,0.1,0.1,0.2
		c-0.1,0.1,0,0.2,0.1,0.2c0.1,0,0.2,0.2,0.2,0.5s0.2,0.6,0.3,0.7c0.2,0.2,0.2,0.3,0.2,0.5c0,0.2,0.4,1.1,0.4,0.8
		c0-0.1,0.1,0,0.2,0.1c0.1,0.2,0.1,0.3,0.1,0.3c0,0.1,0.1,0.2,0.2,0.2c0.2,0.1,0.3,0.3,0.4,0.7c0.1,0.3,0.2,0.6,0.3,0.6
		s0.2,0.2,0.2,0.3c0,0.2,0.2,0.5,0.4,0.7c0.2,0.2,0.3,0.5,0.3,0.6s0.1,0.2,0.2,0.2c0.1,0,0.2,0.2,0.2,0.2c0.1,0.2,0.2,0.3,0.3,0.4
		c0.2,0.1,0.2,0.2,0.2,0.4s0.2,0.4,0.3,0.6c0.2,0.2,0.3,0.3,0.2,0.4s0,0.1,0.1,0.1s0.2,0.1,0.2,0.2s0.1,0.2,0.2,0.2s0.2,0.2,0.2,0.2
		c0.1,0.2,0.2,0.2,0.2,0.2c0.2,0,1,0.8,1.1,1.1c0.1,0.2,0.2,0.2,0.2,0.2c0.1,0,0.2,0.1,0.2,0.2c0.1,0.2,0.2,0.3,0.3,0.3
		s0.2,0.2,0.2,0.3s0.1,0.3,0.2,0.3c0.1,0,0.2,0.1,0.2,0.1c0,0.2,0.4,0.5,0.6,0.5c0.1,0,0.2,0.2,0.3,0.2c0.1,0.2,0.2,0.2,0.2,0.2
		c0.1,0,0.2,0.2,0.3,0.3c0.1,0.2,0.2,0.3,0.3,0.3s0.2,0.1,0.2,0.2c0,0.2,0.5,0.5,0.6,0.4c0.1-0.1,0.1,0.1,0.2,0.2
		c0.1,0.2,0.2,0.3,0.3,0.3c0.2,0,0.2,0.1,0.2,0.2c0,0.2,0,0.2,0,0.2c0.1,0,0.2,0,0.5,0.2c0.2,0.1,0.4,0.2,0.4,0.1
		c0,0,0.2,0.1,0.2,0.2c0.1,0.2,0.3,0.2,0.4,0.2c0.2,0,0.2,0.1,0.2,0.2c0,0.1,0,0.2,0,0.3c0,0.1,0.2,0.2,0.2,0.2
		c0.2,0,0.4,0.2,0.6,0.3c0.2,0.2,0.4,0.3,0.6,0.3c0.2,0,0.3,0.1,0.3,0.2c0,0.2,0.3,0.5,0.4,0.4c0.1,0,0.3,0.1,0.7,0.3
		s0.7,0.3,0.7,0.3s0.2,0,0.2,0.1c0,0.2,0.4,0.6,0.7,0.6c0.2,0,0.4,0.2,0.6,0.3c0.2,0.2,0.3,0.3,0.6,0.2c0.2,0,0.4,0.1,0.4,0.2
		s0.2,0.2,0.2,0.1c0.1-0.1,0.1,0,0.1,0.1s0.2,0.2,0.5,0.2c0.3,0.1,0.5,0.2,0.6,0.4c0.1,0.2,0.1,0.3,0.2,0c0.1-0.2,0.1-0.2,0.1,0
		c0,0.2,0.2,0.2,0.5,0.2c0.2,0,0.5,0,0.6,0.1c0.1,0,0.2,0,0.3,0.1c0.1,0,0.2,0.1,0.2,0.2c0,0.1,0.2,0.2,0.7,0.3
		c0.3,0.1,0.7,0.2,0.7,0.2c0,0.1,0.2,0.1,0.2,0c0.1-0.1,0.2,0,0.3,0.1c0.1,0.2,0.6,0.2,1.3,0.3c0.3,0,0.4,0.1,0.3,0.2
		c-0.1,0.1-0.1,0.2,0.1,0.2s0.3,0.1,0.5,0.1s0.4,0.1,0.7,0.1c0.3,0,0.4,0.1,0.3,0.2s0,0.2,0.1,0.2c0.1-0.1,0.2,0,0.3,0.1
		s0.4,0.2,0.7,0.2c1.1,0,1.2,0.1,1.2,0.2c0,0.2,15.2,0.2,15.3,0c0-0.1,0.3-0.2,0.7-0.2c0.4,0,0.7-0.2,0.8-0.2
		c0.1-0.1,0.3-0.1,0.5-0.1c0.2,0.1,0.5,0,0.7-0.2c0.2-0.1,0.6-0.2,0.9-0.2c0.7-0.1,1-0.2,0.9-0.3c0-0.1,0-0.1,0.2-0.1
		c0.8,0,2.1-0.6,1.4-0.6c-0.1,0-0.2,0-0.1-0.1c0.2-0.2,0.7,0.1,0.6,0.2c-0.1,0.1,0,0.1,0.1,0.1c0.1-0.1,0.1-0.2,0.1-0.2
		c-0.1-0.1,0-0.1,0.2-0.1c0.1,0.1,0.3,0,0.4-0.1s0.2-0.2,0.2-0.1c0.1,0.1,0.2,0,0.3-0.2c0.2-0.2,0.2-0.2,0.2,0
		c-0.1,0.2-0.1,0.2,0.1,0c0.1-0.2,0.3-0.2,0.5-0.2s0.3-0.1,0.4-0.2c0.1-0.1,0.2-0.1,0.2-0.1c0.1,0.1,0.2,0,0.2-0.1
		c0-0.1,0.1-0.2,0.2-0.1s0.2,0,0.2-0.1s0-0.2-0.1-0.2s0-0.1,0.2-0.1c0.5,0,1.2-0.2,1.1-0.5c0-0.1,0.2-0.2,0.3-0.2
		c0.5,0,0.8-0.2,0.9-0.5c0.1-0.2,0.2-0.2,0.2-0.2c0.5,0.1,0.7,0,0.6-0.2c-0.1-0.2-0.1-0.2,0-0.2c0.1,0.1,0.2,0,0.2-0.1
		c0.1-0.1,0.2-0.1,0.4-0.1c0.1,0.1,0.3-0.1,0.5-0.2c0.2-0.2,0.2-0.2,0.1-0.2c-0.2,0.1-0.2,0.1-0.1-0.1c0.1-0.1,0.2-0.2,0.2-0.1
		c0.1,0,0.2,0,0.2-0.1s0.2-0.1,0.2-0.1c0.1,0.1,0.2,0,0.2-0.2c0.1-0.1,0.2-0.2,0.2-0.2c0.1,0.1,0.1,0,0.1-0.2
		c-0.1-0.2,0.2-0.3,0.7-0.2c0.1,0,0.1-0.1,0-0.2c-0.1-0.1,0-0.2,0.2-0.1c0.2,0.1,0.2,0,0.2,0c-0.1-0.1,0.2-0.2,0.5-0.4
		c0.3-0.2,0.5-0.3,0.5-0.4c0-0.1,0.1-0.1,0.2-0.1c0.2,0,0.3-0.2,0.3-0.4c0-0.2,0.7-0.4,0.9-0.2c0.1,0.1,0.1,0,0-0.1
		c-0.1-0.1,0-0.2,0.2-0.2s0.2-0.1,0.2-0.1c-0.1-0.1,0.1-0.2,0.3-0.2c0.2-0.1,0.4-0.2,0.3-0.3c-0.1-0.1,0.2-0.3,0.4-0.2
		c0.1,0,0.2-0.1,0.2-0.2c0.1-0.2,0.2-0.3,0.4-0.3S95,113,95,113c-0.1-0.2,0.3-0.7,0.5-0.5c0.2,0.1,0.2,0,0.2-0.1
		c-0.1-0.2,0.2-0.7,0.4-0.7c0.1,0,0.2-0.1,0.2-0.2s0.2-0.3,0.4-0.3c0.2-0.1,0.4-0.2,0.3-0.2c-0.1-0.2,0.8-1.1,1-1.1
		c0.1,0,0.2-0.1,0.2-0.2c0.1-0.1,0-0.2-0.1-0.1c-0.1,0.1,0-0.1,0.2-0.2c0.2-0.2,0.4-0.4,0.4-0.5c0-0.1,0-0.1,0.1-0.1
		s0.2-0.1,0.1-0.2c0-0.2,0-0.2,0.2-0.2c0.2,0,0.2-0.1,0.3-0.3c0.1-0.2,0.2-0.4,0.3-0.5c0.2-0.1,0.2-0.2,0.2-0.3
		c0-0.1,0.2-0.2,0.2-0.3c0.1-0.1,0.2-0.2,0.2-0.4s0.2-0.4,0.3-0.5c0.2-0.2,0.3-0.4,0.3-0.6s0.1-0.3,0.2-0.3c0.2-0.1,0.3-0.2,0.3-0.6
		c0.1-0.2,0.2-0.5,0.2-0.4c0.1,0.1,0.4-0.2,0.4-0.5c0-0.1,0.2-0.2,0.2-0.4c0.2-0.2,0.3-0.5,0.4-1c0-0.2,0.1-0.2,0.2-0.2
		c0.2,0,0.2-0.1,0.3-0.6c0-0.3,0.1-0.6,0.2-0.5c0.2,0.1,0.5-0.6,0.5-1c0-0.2,0.1-0.4,0.2-0.4c0.2-0.1,0.2-0.2,0.2-0.7
		c0-0.4,0.1-0.6,0.2-0.7c0.2-0.1,0.2-0.2,0.3-0.7c0.1-0.4,0.2-0.7,0.3-0.7c0.2-0.1,0.2-0.2,0.2-0.7s0.1-0.7,0.2-0.9
		c0.2-0.1,0.2-0.2,0.1-0.2s0-0.1,0.1-0.2c0.2-0.2,0.2-0.4,0.2-0.7c0-0.4,0.1-0.7,0.3-0.9c0.2-0.2,0.3-0.5,0.3-1.3
		c0-0.7,0.1-1,0.3-1.2c0.2-0.2,0.2-0.6,0.3-1.6c0-1,0.1-1.3,0.2-1.4c0.1-0.1,0.2-0.2,0.2-0.3c0-0.2,0.1-0.2,0.2-0.3
		c0.2-0.1,0.2-0.1,0-0.2c-0.1-0.1-0.2-0.2-0.1-0.2c0.2-0.2,0.1-10.4-0.1-10.5c-0.1,0-0.2-0.2-0.2-0.2c0-0.1-0.1-0.2-0.2-0.2
		c-0.1,0-0.2-0.5-0.2-1.1c0-1.1-0.2-1.8-0.4-1.9c-0.1-0.1-0.2-0.6-0.2-1.1c-0.1-1.3-0.1-1.3-0.2-1.3c-0.4,0.1-0.4-0.1-0.4-0.7
		c0-0.7-0.2-1.1-0.6-1.1c-0.1,0-0.2-0.4-0.2-0.9s0-0.9-0.1-0.8c-0.2,0.2-0.4-0.3-0.5-0.8c0-0.3-0.1-0.6-0.2-0.6c-0.1,0-0.2,0-0.3,0
		c-0.1,0-0.2-0.3-0.2-0.7s-0.1-0.7-0.2-0.7c-0.1,0-0.1-0.1-0.1-0.2c0.1-0.1,0-0.2-0.2-0.2s-0.2-0.2-0.2-0.3c0-0.3-0.3-0.7-0.6-0.7
		c-0.1,0-0.2-0.2-0.2-0.6s-0.1-0.5-0.2-0.5c-0.1,0.1-0.2,0-0.2-0.2c0-0.1-0.1-0.2-0.1-0.2c-0.1,0-0.2-0.2-0.2-0.3
		c-0.1-0.2-0.2-0.3-0.3-0.3c-0.2,0-0.2-0.1-0.2-0.5c0-0.3-0.1-0.5-0.3-0.7c-0.2-0.2-0.3-0.3-0.3-0.5s-0.1-0.3-0.2-0.3
		s-0.2-0.2-0.2-0.3c0.1-0.4-0.2-0.8-0.5-0.8c-0.2,0-0.2-0.1-0.2-0.2c0-0.1-0.2-0.3-0.2-0.5c-0.2-0.2-0.3-0.4-0.3-0.6
		c0-0.2-0.2-0.4-0.3-0.5C99,55.2,98.9,55,98.9,55s-0.1-0.2-0.2-0.3c-0.1-0.2-0.2-0.2-0.2-0.2c0,0.1-0.1,0-0.2-0.2
		c-0.1-0.2-0.2-0.3-0.4-0.4c-0.2-0.1-0.3-0.2-0.3-0.6c0-0.1-0.2-0.1-0.3,0c-0.2,0-0.2,0-0.2,0c0.2-0.2-0.2-0.7-0.3-0.7
		c-0.1,0-0.2-0.1-0.2-0.2c-0.1-0.4-0.7-1-1.1-1c-0.2,0-0.2-0.2-0.3-0.4c-0.1-0.2-0.2-0.4-0.2-0.3c-0.1,0-0.2-0.1-0.4-0.3
		s-0.5-0.5-0.7-0.7c0.2,0.3,0,0.2,0,0s-0.1-0.2-0.2-0.2s-0.3-0.1-0.3-0.2c0-0.2-0.2-0.2-0.2-0.3c-0.1,0-0.2,0-0.3-0.1
		c-0.1,0-0.2,0-0.3-0.1c-0.1,0-0.2-0.2-0.2-0.3c-0.1-0.2-0.2-0.2-0.3-0.2c-0.2,0-0.2-0.2-0.3-0.3c-0.1-0.2-0.2-0.3-0.2-0.2
		c-0.1,0.1-0.3-0.1-0.5-0.2c-0.2-0.2-0.4-0.3-0.4-0.3c-0.4,0.1-0.7-0.1-0.7-0.2c0-0.1-0.2-0.3-0.5-0.4c-0.3-0.2-0.5-0.2-0.4-0.3
		c0.1-0.1,0-0.2-0.1-0.1c-0.1,0.1-0.2,0-0.3-0.1c-0.1-0.1-0.2-0.2-0.4-0.2s-0.2-0.1-0.3-0.2c-0.1-0.2-0.2-0.3-0.5-0.3
		c-0.2,0-0.5-0.1-0.7-0.2c-0.1-0.2-0.2-0.2-0.3-0.2c-0.1,0.1-0.2,0-0.2-0.1s-0.1-0.2-0.2-0.2c-0.4,0-0.7-0.1-0.7-0.2
		c0-0.2-0.2-0.3-0.7-0.3c-0.1,0-0.3-0.2-0.6-0.3c-0.2-0.2-0.5-0.3-0.8-0.3s-0.5,0-0.6-0.2c-0.1-0.2-1.2-0.5-1.6-0.4
		c-0.1,0-0.1,0,0-0.1s0-0.2-0.2-0.2c-0.1-0.1-0.2-0.2-0.2-0.2c0.1-0.1-0.2-0.1-0.7-0.1c-0.6,0-0.7,0-1-0.2c-0.2-0.2-0.5-0.3-1.1-0.3
		c-0.7-0.1-1.1-0.2-1.1-0.6c0-0.1-0.5-0.2-1.1-0.2c-1.2,0-1.5-0.1-1.3-0.3c0.1-0.1,0-0.1-0.2-0.1c-0.2,0.1-0.2,0.1-0.2,0
		s-0.1-0.1-0.3-0.1c-4-0.1-4.2-0.1-4.2-0.2c0-0.1,0-0.2,0-0.2c-0.2-0.1-4.6-0.1-4.7,0s-0.2,0.2-0.2,0.2s-0.2-0.1-0.2-0.1
		c0-0.1-0.1-0.1-0.2-0.1s-0.3,0.1-0.4,0.2c-0.1,0.2-0.2,0.2-1.6,0.2c-1.3,0-2.1,0.1-2.8,0.2c-0.1,0-0.2,0.1-0.1,0.2
		c0.2,0.2-0.2,0.2-1.5,0.3c-1.1,0-1.2,0-1.4,0.3s-0.7,0.4-1.9,0.3c-0.1,0-0.2,0-0.1,0.1c0.2,0.2-0.4,0.5-1.1,0.5
		c-0.4,0-0.8,0.1-0.9,0.2c-0.1,0.1-0.2,0.1-0.3,0.1c-0.1-0.1-0.1,0,0,0.1c0.1,0.2,0.2,0.2,0.3,0c0.2-0.2,0.2-0.2,0,0.1
		c-0.1,0.2-0.4,0.2-0.7,0.2c-0.2,0-0.6,0.1-0.6,0.2c-0.1,0.1-0.2,0.1-0.2,0.1c-0.1-0.1-0.2,0.1-0.2,0.2c0,0.2-0.1,0.2-0.6,0.2
		c-0.5-0.1-0.7,0-0.9,0.2c-0.2,0.2-0.4,0.3-0.7,0.3c-0.2,0-0.3,0.1-0.3,0.1c0,0.1-0.2,0.2-0.5,0.2s-0.6,0.3-0.7,0.6
		c-0.2,0.3-0.2-0.7-0.2-13.2c0-9.2-0.1-13.6-0.2-13.6s-0.1-0.1-0.1-0.2c0.1-0.1-0.1-0.2-0.2-0.2c-0.3,0-0.5-0.2-0.2-0.3
		c0.1,0-0.1-0.1-0.4-0.1C45.4,17.3,40.8,17.3,35.1,17.4 M116.4,17.5c0,0.1-0.1,0.3-0.2,0.5c-0.2,0.2-0.1,68.3,0.1,69
		c0,0.2,0.1,0.3,0.1,0.4s0.1,0.1,0.1,0.2s0.1,0.2,0.2,0.2c0.1,0.1,0.2,0.9,0.2,1.9c0,2.1,0.1,2.7,0.4,2.7c0.2,0,0.2,0.1,0.2,1.1
		c0,0.7,0.2,1.6,0.4,1.7c0.1,0.1,0.1,0,0.1-0.1c-0.1-0.1,0-0.2,0.1-0.2c0.1,0,0.2,0.2,0.2,0.6c0,0.9,0.2,1.9,0.2,1.8
		c0.2-0.1,0.3,0.2,0.3,0.8c0,0.3,0.1,0.7,0.1,0.7c0.1,0.1,0,0.2-0.1,0.2c-0.1,0,0,0.1,0.2,0.2c0.2,0.1,0.2,0,0.2-0.1
		c-0.1-0.1,0-0.1,0.1-0.1c0.1,0.1,0.2,0.3,0.2,0.7c0,0.5,0.1,0.6,0.2,0.7c0.2,0.1,0.2,0.2,0.3,0.4c0,0.2,0,0.4,0.1,0.5
		c0,0.1,0.1,0.2,0.1,0.2s0.2,0.2,0.3,0.2c0.2,0,0.4,0.4,0.3,1c0,0.1,0.1,0.2,0.2,0.2c0.2,0.1,0.3,0.2,0.3,0.8c0,0.2,0.1,0.3,0.3,0.4
		c0.2,0.1,0.3,0.2,0.4,0.7c0.1,0.5,0.2,0.6,0.3,0.6s0.2,0.1,0.3,0.3c0,0.2,0.1,0.3,0.2,0.3c0.2,0,0.3,0.1,0.3,0.6
		c0,0.2,0.1,0.5,0.2,0.5c0.2,0.1,0.2,0.2,0.2,0.2c0,0.2,0.1,0.3,0.2,0.5c0.1,0.1,0.2,0.2,0.2,0.1c0.1-0.1,0.2,0.1,0.2,0.2
		s0.2,0.3,0.4,0.3s0.2,0.1,0.2,0.2c0,0.2,0,0.2,0.2,0.2c0.1,0,0.3,0.2,0.5,0.4s0.4,0.5,0.5,0.6c0.1,0.1,0.2,0.2,0.2,0.2
		c0,0.2,0.3,0.5,0.5,0.5c0.2,0,1,0.9,0.9,1c-0.1,0.1,0,0.1,0.1,0.1c0.2,0,1.1,0.9,1.1,1.1c0,0.2,0.6,0.3,0.9,0.3
		c0.1,0,0.2,0.2,0.2,0.3c0,0.2,0.2,0.3,0.2,0.3s0.2,0,0.3,0c0.1,0,0.1,0.1,0.1,0.2c-0.1,0.1,0,0.2,0,0.2c0.2,0,0.7,0.2,0.7,0.4
		c0.1,0.2,0.9,0.9,1.4,1c0.2,0.1,0.2,0.2,0.2,0.2c0,0.1,0.1,0.2,0.2,0.2s0.4,0.2,0.7,0.4c0.2,0.2,0.5,0.3,0.8,0.3
		c0.2,0,0.4,0,0.3,0.1c-0.2,0.2,0.3,0.6,0.7,0.6c0.2,0,0.2,0.1,0.2,0.2c-0.1,0.1,0,0.1,0.2,0.1c0.2-0.1,0.2,0,0.3,0.2
		c0.1,0.2,0.2,0.2,0.2,0.2c0.5,0.1,0.6,0.1,0.5,0.2c-0.1,0.1,0,0.2,0,0.1c0.2-0.1,1.3,0.4,1.3,0.6c0,0.1,0.2,0.2,0.6,0.2
		s0.7,0.2,0.7,0.3c0.1,0.2,0.3,0.2,0.4,0.2c0.2,0,0.4,0.1,0.7,0.2c0.2,0.2,0.4,0.2,0.4,0.2c0.1-0.1,0.1,0,0.1,0.1
		c0,0.1,0.1,0.2,0.2,0.1c0.1-0.1,0.2,0,0.2,0.1c-0.1,0.1,0.1,0.1,0.3,0.1c0.3-0.1,0.4,0,0.5,0.2c0.1,0.2,0.4,0.2,0.8,0.4
		c0.7,0.2,1.2,0.3,1.4,0.6c0.1,0.1,0.4,0.2,0.9,0.2c1,0.1,1.2,0.2,1.4,0.2c0.2,0.2,0.3,0.1,0.2-0.1c-0.1-0.1,0-0.1,0.1-0.1
		c0.1,0.1,0.2,0.2,0.1,0.2c-0.1,0.1,0,0.2,0.2,0.2c0.1,0,0.2,0,0.3,0.1c0.1,0,0.6,0.1,1.1,0.1c0.7,0,0.9,0.1,0.9,0.2
		s0.1,0.2,0.2,0.1c0.2-0.1,0.2-0.1,0.2,0c0,0.1,0.2,0.2,0.6,0.2c0.5,0,0.6-0.2,0.2-0.2c-0.2,0-0.2-0.1-0.1-0.1c0.1,0,0.3,0,0.6,0.1
		c0.5,0.2,0.7,0.2,1.1-0.1l0.4-0.2v-10.7c0-8.3-0.1-10.8-0.2-11c-0.1-0.1-0.2-0.2-0.1-0.2c0.1-0.1-0.1-0.1-0.2,0s-0.2,0-0.2-0.1
		c0.1-0.1-0.2-0.2-0.8-0.2c-0.8,0-0.9,0-1-0.2c-0.1-0.2-0.2-0.2-0.9-0.3c-0.8,0-1.1-0.2-1-0.6c0.1-0.1-0.1-0.2-0.3-0.1
		c-0.2,0.1-0.5,0-0.7-0.2c-0.2-0.2-0.5-0.3-0.7-0.3s-0.2-0.1-0.2-0.2c0-0.2-0.1-0.2-0.2-0.2c-0.1,0-0.3-0.2-0.6-0.4
		s-0.5-0.4-0.7-0.4s-0.2-0.1-0.2-0.2c0-0.1,0-0.2-0.1-0.2c-0.2,0-1.1-1-1.1-1.1c0-0.2-0.2-0.2-0.3-0.2c-0.3,0-0.3-0.1-0.2-0.2
		c0.1-0.2,0-0.3-0.2-0.3c-0.2-0.1-0.3-0.2-0.3-0.3c0-0.2-0.2-0.3-0.3-0.3c-0.3-0.1-0.6-0.7-0.3-0.7c0.1,0,0.1-0.1,0-0.2
		s-0.1-0.2-0.1-0.2s0-0.1-0.2,0c-0.2,0.1-0.2,0-0.3-0.4c-0.1-0.2-0.2-0.6-0.3-0.7c-0.2-0.2-0.2-0.3-0.2-0.6c0-0.2-0.1-0.4-0.2-0.5
		c-0.2-0.1-0.3-0.3-0.4-0.7c-0.1-0.3-0.2-0.7-0.3-0.7c-0.2-0.2-0.2-0.4-0.2-1.4c0-1.1-0.1-1.3-0.2-1.5c-0.2-0.2-0.2-1.2-0.2-34.3
		c0-33.3,0-34.8-0.4-34.8c-0.1,0-0.1-0.1-0.1-0.1c0-0.1-4.7-0.1-10.6-0.1C117.8,17.3,116.5,17.3,116.4,17.5 M158.1,39.1
		c0,0.1,0,0.2-0.1,0.3c-0.1,0.1-0.2,0.1-0.1-0.1c0.1-0.1,0.1-0.2-0.1-0.1c-0.1,0.1-0.2,0.2-0.2,0.3c0,0.1-0.1,0.2-0.2,0.1
		c-0.1-0.1-0.2,7.8-0.2,24.3c0,17.6,0.1,24.3,0.2,24.3c0.1-0.1,0.1,0,0.1,0.1c-0.1,0.1,0,0.2,0.1,0.4c0.1,0.1,0.2,0.2,0.2,0.1
		s0.1,0.9,0.2,2c0.1,2.6,0.1,2.5,0.4,2.6c0.2,0.1,0.2,0.2,0.2,1c0,0.5,0,0.9,0.1,1s0.1,0.2,0.1,0.2c-0.1,0.1,0,0.2,0.1,0.2
		s0.1,0.1,0.1,0.2c-0.1,0.1,0,0.1,0.2,0.1c0.2-0.1,0.2,0.1,0.2,0.8c0,0.5,0.1,0.9,0.2,0.9c0.1,0,0.2,0.2,0.2,0.2
		c0,0.2,0.1,0.2,0.2,0.2c0.1,0,0.2,0.2,0.2,0.6c0,0.3,0.2,0.7,0.3,1c0.2,0.2,0.3,0.7,0.3,0.9c0,0.4,0.1,0.6,0.3,0.7
		c0.2,0.1,0.3,0.2,0.3,0.7c0,0.3,0.1,0.5,0.2,0.5c0.2,0,0.4,0.2,0.4,0.7c0,0.2,0,0.4,0.1,0.4c0,0.1,0.2,0.1,0.3,0.2
		c0.2,0,0.2,0.2,0.3,0.3c0,0.5,0.1,0.5,0.3,0.7c0.2,0.2,0.3,0.4,0.2,0.7c0,0.1,0.1,0.2,0.2,0.2s0.4,0.4,0.5,0.7
		c0.2,0.4,0.2,0.5,0.4,0.4c0.2-0.1,0.2,0,0.2,0.1c-0.1,0.2,0.2,0.5,0.4,0.6c0.1,0,0.2,0.2,0.2,0.5s0.2,0.5,0.3,0.7
		c0.2,0.1,0.3,0.3,0.4,0.5s0.2,0.2,0.3,0.2c0.1-0.1,0.2,0,0.2,0.2c0,0.1,0.1,0.3,0.2,0.4s0.2,0.2,0.2,0.4s0.1,0.2,0.3,0.2
		c0.2,0,0.3,0.1,0.3,0.3c0,0.2,0.1,0.3,0.2,0.3c0.2,0,0.3,0.2,0.3,0.4c0,0.1,0.1,0.1,0.2,0.1s0.3,0.1,0.3,0.2s0.2,0.3,0.4,0.4
		c0.2,0.1,0.3,0.2,0.3,0.4s0.1,0.2,0.2,0.2s0.3,0.1,0.4,0.2s0.2,0.2,0.4,0.3c0.2,0.1,0.3,0.2,0.2,0.3c-0.1,0.2,0,0.2,0.2,0.3
		c0.2,0.1,0.3,0.2,0.4,0.4c0.1,0.2,0.2,0.2,0.2,0.2c0.1,0,0.2,0,0.3,0.1c0.2,0.2,0.2,0.2,0,0.2c-0.1,0,0,0.1,0.2,0.2
		c0.2,0.1,0.6,0.3,0.7,0.5c0.2,0.2,0.4,0.2,0.6,0.2c0.2,0,0.2,0.1,0.2,0.1c-0.1,0.2,0.2,0.4,0.7,0.5c0.2,0.1,0.4,0.2,0.5,0.3
		c0.1,0.2,0.2,0.2,0.4,0.3c0.2,0,0.3,0.1,0.3,0.2c0,0.2,0.1,0.3,0.6,0.4c0.4,0.1,0.9,0.4,0.9,0.6c0,0.1,0.1,0.1,0.2,0
		c0.1,0,0.2,0.1,0.4,0.2c0.1,0.2,0.2,0.2,0.3,0.2c0.1,0,0.2,0,0.3,0c0.1,0,0.3,0.2,0.5,0.3c0.2,0.2,0.2,0.2,0.2,0.2
		c0-0.1,0.1,0,0.2,0.1c0.1,0.2,0.2,0.2,0.5,0.2c0.2,0,0.4,0,0.4,0.2c0.2,0.2,0.7,0.5,1.1,0.5c0.3,0,0.3,0,0.2,0.2
		c-0.2,0.2,0.3,0.4,1.5,0.5c0.2,0,0.3,0.1,0.2,0.2c-0.1,0.1,0.1,0.2,0.2,0.2c0.1,0,0.2,0,0.2,0.1c0.1,0.1,0.4,0.2,0.8,0.2
		c0.6,0,0.8,0.1,1,0.2c0.2,0.2,0.6,0.3,1.9,0.4c0.3,0,0.4,0.1,0.3,0.2c-0.1,0.1,0,0.2,0.2,0.2c1.1,0.1,2,0.2,2.1,0.3
		c0.1,0.2,0.1,0.2,0.1,0s0.1-0.2,0.2,0c0.2,0.2,0.4,0.3,0.2,0.1c-0.1-0.2,0.2-0.2,0.5-0.1c0.2,0.1,0.2,0.1,0.2,0
		c0.1-0.2,0.6-0.2,0.6,0c0.1,0.2,1.3,0.4,1.4,0.2c0.1-0.1,0.2-0.1,0.2-0.1c0.1,0.1,0.2,0,0.2-0.1s0.1-0.1,0.2,0.1
		c0.2,0.4,5.1,0.2,5.1-0.2c0-0.1,0.4-0.1,1-0.1c0.7,0,1,0.1,1,0.2c0,0.1,0,0.1,0.1,0s0.5-0.2,1-0.2c0.9-0.1,1.1-0.2,1.1-0.3
		c0-0.1,0.1-0.1,0.2-0.1c0.2,0,0.2,0.1,0.2,0.1c0,0.1,0,0.2,0.1,0.2c0.1,0.1,0.2,0,0.2-0.2c0-0.1,0.1-0.2,0.2-0.2
		c0.1,0.1,0.2,0,0.2-0.1c0.1-0.1,0.3-0.1,0.7-0.1s0.6,0,0.6-0.1c0-0.2,0.7-0.6,0.8-0.3c0.1,0.2,0.2,0.2,0.2,0c0-0.1,0.1-0.2,0.2-0.2
		c0.1,0,0.2,0.1,0.2,0.2c-0.1,0.1,0.1,0,0.3-0.1s0.6-0.2,0.7-0.2c0.2,0,0.4-0.2,0.5-0.2c0.2-0.2,0.3-0.2,1.2-0.3
		c0.1,0,0.2-0.1,0.2-0.2c0-0.2,0.8-0.5,0.8-0.3c0,0.1,0.1,0,0.1-0.1c0.2-0.2,0.7-0.5,0.7-0.3c-0.1,0.1,0,0.1,0.1-0.1
		s0.2-0.2,0.3-0.2s0.2-0.1,0.5-0.2c0.2-0.2,0.5-0.3,0.6-0.3s0.3-0.2,0.5-0.3s0.5-0.3,0.7-0.3c0.3,0,0.9-0.3,0.7-0.4
		c-0.1-0.1,0.1-0.1,0.3-0.2c0.2-0.1,0.7-0.3,0.9-0.6c0.2-0.2,0.7-0.5,0.9-0.6c0.2-0.1,0.5-0.3,0.5-0.4c0.1-0.2,0.2-0.2,0.2-0.2
		c0.1,0,0.4-0.2,0.7-0.4s0.6-0.4,0.6-0.4c-0.2,0,0.2-0.3,0.7-0.5c0.2-0.1,0.4-0.2,0.4-0.3c0-0.1,0.1-0.2,0.2-0.2
		c0.1,0,0.2-0.2,0.3-0.3s0.2-0.3,0.3-0.3s0.2-0.2,0.2-0.2c0.1-0.2,0.3-0.3,0.7-0.2c0.1,0,0.1,0,0-0.1s0-0.2,0.2-0.3
		c0.2-0.1,0.2-0.2,0.1-0.1c-0.2,0.1-0.2,0.1-0.1-0.1c0.1-0.1,0.2-0.2,0.3-0.2c0.2,0,0.2-0.2,0.2-0.4c0-0.1,0.3-0.2,0.6-0.1
		c0.1,0,0.2-0.2,0.1-0.4c0-0.1,0.1-0.2,0.2-0.2c0.2,0,0.3-0.2,0.3-0.3c0-0.2,0.2-0.3,0.2-0.3s0.2-0.2,0.3-0.3s0.2-0.3,0.4-0.3
		s0.2-0.2,0.2-0.3s0.1-0.2,0.1-0.2c0.2,0.1,0.4,0,0.5-0.2c0.1-0.2,0.2-0.3,0.3-0.3c0.2-0.1,0.2-0.2,0.2-0.4c0-0.2,0.1-0.3,0.2-0.2
		c0.2,0.1,0.2-0.2,0.4-0.6c0.1-0.3,0.2-0.7,0.3-0.7s0.2-0.2,0.3-0.3s0.2-0.3,0.2-0.2c0.1,0.1,0.6-0.3,0.5-0.4
		c-0.2-0.2,0-0.7,0.3-0.8c0.2-0.1,0.3-0.2,0.3-0.4c0-0.2,0.1-0.4,0.2-0.5c0.2-0.1,0.2-0.2,0.3-0.3c0-0.1,0-0.3,0-0.4
		c0-0.2,0.1-0.2,0.2-0.2c0.3,0,0.5-0.4,0.4-0.8c-0.1-0.3,0-0.5,0.2-0.5c0.2,0,0.2-0.2,0.2-0.2c0-0.1,0-0.2,0.1-0.2
		c0.1-0.1,0.2-0.2,0.2-0.4s0.2-0.5,0.3-0.7c0.2-0.2,0.3-0.5,0.3-0.8c0-0.8,0.1-0.9,0.2-0.9c0.1,0,0.2,0,0.2,0s0.1-0.4,0.1-0.8
		c0.1-0.6,0.2-0.9,0.3-1.1c0.2-0.2,0.2-0.4,0.2-2.2c0-0.5,0.1-0.7,0.3-0.8s0.3-0.3,0.3-2c0-1.5,0.1-1.9,0.2-2
		c0.2-0.2,0.2-0.2,0.3-4.9c0.1-2.3,0.1-2.5,0.2-2.9c0.1-0.1,0-0.2-0.1-0.2s-0.1-0.1,0-0.2c0.1-0.2,0.1-0.3,0-0.7
		c-0.2-0.7-0.2-2,0.1-2.5c0.2-0.4,0.2-1,0.2-2.8c-0.1-2.6-0.1-2.9-0.1-3.2c0-0.2,0-7.2-0.1-15.6L233,41.6L232.9,57l-0.1,15.4V57
		c0-12,0-15.4,0.2-15.4c0.1,0,0.2-0.3,0.2-0.7c0-0.3-0.1-0.5-0.1-0.5c-0.1,0.1-0.1,0,0-0.2s0-0.2-0.1-0.2c-0.1,0.1-0.2,0-0.2-0.2
		c-0.1-0.2-0.2-0.2-0.5-0.2c-0.2,0-0.5,0-0.5-0.1c-0.1-0.1-9.6-0.1-10.2,0c-0.2,0.1-0.4,0-0.2-0.1c0.1-0.1,0.1-0.2-0.2-0.3
		c-0.2-0.2-0.2-0.2-0.1,0c0.2,0.3,0.2,0.3-4.7,0.4c-4.5,0-4.5,0-4.7,0.3c-0.2,0.2-0.2,0.2-0.3,0.2c0-0.1-0.1,9.5,0,21.3
		c0,11.8-0.1,21.3-0.1,21.3c-0.1,0-0.1,0.1-0.1,0.2c0,0.2,0.1,0.5,0.2,0.7c0,0.2,0,0.3-0.1,0.3s-0.1,0.3-0.1,0.7s0,0.7-0.1,0.8
		c-0.1,0.1-0.1,0.3-0.1,0.5s-0.1,0.4-0.2,0.5s-0.2,0.2-0.1,0.1s0.2,0,0.2,0.1s0,0.2-0.1,0.2s-0.2,0.2-0.2,0.4c0,1.1-0.2,1.8-0.3,2
		c-0.2,0.1-0.2,0.2-0.2,0.3c0.1,0.1,0,0.2-0.1,0.2c-0.2,0.1-0.2,0.2-0.2,0.7c0.1,0.6-0.2,1.4-0.5,1.4c-0.1,0-0.1,0.1,0,0.1
		c0.1,0.1-0.1,0.2-0.2,0.5c-0.2,0.2-0.2,0.4-0.2,0.4c0.1,0.1,0,0.1-0.1,0.1S209,93,209,93.1c0,0.1-0.1,0.2-0.2,0.2
		c-0.2,0-0.2,0,0,0.1s0.1,0.2-0.2,0.4c-0.2,0.2-0.3,0.4-0.3,0.6s-0.1,0.2-0.2,0.2c-0.2-0.1-0.2-0.1-0.2,0c0.1,0.1,0.1,0.2-0.5,0.8
		c-0.2,0.2-0.3,0.5-0.3,0.6c0,0.2-0.1,0.2-0.2,0.2c-0.2-0.1-0.2,0-0.1,0.1c0.1,0.2,0,0.2-0.2,0.2c-0.2,0-0.2,0.1-0.2,0.2
		c0.1,0.1,0,0.2-0.1,0.1c-0.2-0.1-0.2,0-0.2,0.1c0.1,0.2-0.3,0.4-0.5,0.2c-0.1-0.1-0.1,0-0.1,0.1c0.1,0.1-0.1,0.3-0.2,0.5
		c-0.2,0.2-0.3,0.3-0.3,0.2s-0.2,0.2-0.6,0.5c-0.3,0.3-0.6,0.5-0.6,0.5c0-0.1-0.1,0-0.2,0.1c-0.1,0.1-0.2,0.2-0.3,0.1
		c-0.1-0.1-0.2,0.1-0.3,0.2c-0.2,0.2-0.3,0.3-0.7,0.2c-0.2,0-0.5,0-0.4,0.1c0.2,0.2-0.4,0.6-1.1,0.7c-0.3,0.1-0.8,0.2-1,0.3
		c-0.2,0.2-0.7,0.2-1.3,0.2c-0.7,0-1,0.1-1,0.2c-0.1,0.2-0.5,0.2-0.5,0c0-0.1-0.1-0.1-0.2,0s-0.2,0.2-0.3,0.1
		c-0.1-0.1-0.2,0-0.1,0.1c0,0.2-0.2,0.2-0.7,0.2c-0.9,0-1.6-0.2-1.6-0.3c0-0.1-0.1-0.1-0.2,0c-0.2,0.1-0.2,0.1-0.3-0.1
		s-0.3-0.2-1.1-0.2c-1.1,0-1.5,0-1.4-0.2c0.1-0.2-0.3-0.3-0.9-0.4c-0.5-0.1-1.1-0.5-1-0.7c0.1-0.1-0.1-0.1-0.3,0
		c-0.4,0.1-0.7-0.1-0.7-0.2c0.1-0.2-0.2-0.4-0.7-0.4c-0.1,0-0.2-0.1-0.2-0.2c0-0.2-0.3-0.6-0.4-0.5c0,0-0.2-0.1-0.4-0.2
		c-0.2-0.2-0.5-0.3-0.6-0.3s-0.2-0.2-0.3-0.2c-0.1-0.1-0.2-0.3-0.3-0.3c-0.2-0.1-0.2-0.2-0.2-0.3c0-0.2-0.1-0.2-0.2-0.2
		s-0.2-0.1-0.2-0.2s-0.1-0.3-0.2-0.3c-0.1-0.1-0.2-0.2-0.2-0.2s-0.1-0.2-0.1-0.2c-0.1,0-0.2-0.2-0.2-0.3c-0.1-0.2-0.2-0.3-0.2-0.3
		s-0.2-0.2-0.2-0.3c0-0.2-0.2-0.3-0.3-0.3c-0.2,0-0.3-0.2-0.3-0.5c0-0.5-0.2-0.8-0.3-0.8c-0.1,0-0.2-0.2-0.2-0.6
		c-0.1-0.3-0.2-0.6-0.4-0.7c-0.2-0.1-0.2-0.3-0.2-0.7c0-0.3-0.1-0.6-0.2-0.6c-0.1,0-0.1-0.1-0.1-0.2c0.1-0.1,0-0.2-0.2-0.2
		s-0.2-0.2-0.2-0.4c0-0.2,0-0.6,0-0.8c0-0.4-0.3-1.1-0.5-1.1c-0.1,0-0.1-10.7-0.1-23.8c0-22,0-23.9-0.2-24c-0.2-0.2-1.2-0.2-5.2-0.2
		c-2.7,0-4.9-0.1-4.9-0.2c0-0.1-1-0.1-2.2-0.1c-5.7,0.1-8.8,0.1-8.7,0c0-0.1-0.1-0.2-0.2-0.2C158.1,38.9,157.9,38.9,158.1,39.1
		 M71,62.3c0.2,0.1,0.2,0.1,0.1,0.2c-0.2,0.2-0.2,0.2,0,0.1c0.1-0.1,0.2-0.1,0.3,0c0.2,0.2,0.2,0.2,1,0.2c0.5,0,0.7,0.1,0.7,0.2
		c0.1,0.2,0.2,0.2,0.3,0.2c0.2,0,0.2,0,0.3,0.1s0.3,0.1,0.6,0.1c0.4-0.1,0.5,0,0.7,0.3C75,64,75.2,64,75.5,64s0.5,0.1,0.5,0.2
		c0.1,0.2,0.2,0.2,0.5,0.2c0.5,0,0.9,0.3,0.7,0.6c-0.1,0.1,0,0.1,0.2,0.1c0.2-0.1,0.7,0.3,0.7,0.6c-0.1,0.2,0,0.2,0.2,0
		s0.2-0.1,0.6,0.2c0.2,0.2,0.4,0.4,0.4,0.4c0.2-0.2,0.5,0,0.6,0.3c0.1,0.2,0.2,0.3,0.2,0.2c0.2-0.1,0.4,0.2,0.3,0.4
		c-0.1,0.1,0.1,0.1,0.2,0.2c0.3,0.1,1.1,0.8,1.1,1.1c0,0.1,0.2,0.2,0.3,0.2c0.2,0,0.3,0.2,0.3,0.3c0,0.2,0.2,0.3,0.3,0.3
		c0.3,0.1,0.3,0.2,0.3,0.7c0,0.4,0.1,0.5,0.2,0.5c0.1-0.1,0.2,0,0.2,0.1c-0.1,0.1,0,0.2,0.1,0.2s0.2,0.2,0.2,0.3
		c0.1,0.2,0.2,0.3,0.2,0.3c0.1,0,0.2,0.2,0.3,0.4c0.2,0.7,0.3,0.8,0.5,0.7c0.1-0.1,0.2,0.1,0.2,0.3c0,0.7,0.1,0.7,0.3,0.8
		c0.2,0,0.3,0.2,0.3,0.6c0,0.3,0.1,0.6,0.2,0.7c0.1,0.1,0.1,0.2,0.1,0.3c-0.1,0.1,0,0.2,0.1,0.1c0.2-0.1,0.3,0.4,0.3,1.2
		c0,0.6,0.1,0.7,0.3,0.8c0.3,0.2,0.3,0.3,0.3,6c0,3.1,0,3.1-0.4,3c-0.2-0.1-0.2,0-0.2,0.2c0.1,0.1,0.1,0.2,0.1,0.2
		c-0.1,0.1-0.1,0.3-0.2,0.7c-0.1,0.9-0.1,1-0.4,1.1c-0.2,0.1-0.2,0.3-0.2,0.7c0,0.5-0.1,0.6-0.2,0.6c-0.2,0-0.2,0-0.3,0.6
		c0,0.2-0.1,0.3-0.2,0.5c-0.1,0.1-0.2,0.2-0.1,0.3s0,0.1-0.2,0s-0.2,0-0.2,0.2c0,0.4-0.3,1-0.5,1c-0.1,0-0.2,0.1-0.2,0.2
		c0,0.3-0.3,0.6-0.5,0.4c-0.1,0-0.1,0-0.1,0.1c0.1,0.5,0,1-0.3,1.1c-0.2,0-0.3,0.2-0.3,0.3c0,0.2-0.2,0.3-0.3,0.3
		c-0.2,0-0.3,0.2-0.2,0.3c0,0.2,0,0.3-0.1,0.2c-0.2,0-0.6,0.2-0.6,0.4c0,0.1-0.2,0.2-0.3,0.2c-0.2,0.1-0.3,0.2-0.2,0.2
		c0.2,0.2-0.2,0.4-0.4,0.3c-0.2-0.1-0.2,0-0.2,0.1c0.1,0.2-0.1,0.5-0.4,0.6c-0.2,0-0.2,0.2-0.2,0.2c0,0.2-0.2,0.3-1,0.4
		c-0.1,0-0.2,0.1-0.1,0.1c0.1,0.2-0.2,0.4-0.4,0.5c-0.2,0-0.2,0.2-0.3,0.3c0,0.2-0.2,0.2-0.6,0.2c-0.5,0-0.6,0-0.6,0.2
		c-0.1,0.3-0.7,0.4-1.2,0.3c-0.1,0-0.1,0,0,0.1c0.2,0.2-0.2,0.6-0.8,0.5c-0.6,0-0.7,0-0.9,0.3c-0.1,0.2-0.2,0.3-0.2,0.3
		c-0.3,0-1.7,0.2-1.8,0.3c-0.1,0.1-0.2,0.2-0.2,0.2s-0.1-0.1,0-0.2s0-0.1-0.2,0.1l-0.3,0.3h-3.8c-3.6,0-3.8,0-4.1-0.2
		c-0.2-0.2-0.5-0.2-1.1-0.3c-0.7,0-1.1-0.2-1.1-0.6c0-0.1-0.2-0.2-0.6-0.1c-0.4,0-0.7-0.1-0.8-0.2c-0.1-0.2-0.4-0.2-0.7-0.3
		c-0.2-0.1-0.7-0.3-1.1-0.6c-0.3-0.2-0.7-0.5-0.7-0.5s-0.1-0.1-0.1-0.1c0-0.1,0-0.1-0.2-0.1c-0.6,0-0.7-0.1-0.7-0.3
		s-0.2-0.3-0.4-0.3c-0.1,0-0.2-0.2-0.4-0.3c-0.2-0.2-0.5-0.3-0.7-0.3c-0.2,0-0.3-0.1-0.3-0.2c0-0.1-0.2-0.2-0.3-0.3
		c-0.2-0.1-0.3-0.2-0.3-0.4s-0.1-0.2-0.2-0.2c-0.1,0.1-0.2-0.1-0.3-0.2c-0.1-0.2-0.2-0.3-0.3-0.3s-0.2-0.2-0.3-0.3
		c-0.2-0.3-0.2-0.4-0.5-0.3c0,0-0.1-0.2-0.1-0.3c0-0.2-0.1-0.3-0.2-0.3s-0.1-0.1,0-0.2c0.2-0.1,0.2-0.1,0-0.1c-0.1,0-0.2,0-0.2,0
		c-0.1,0-0.2-0.2-0.2-0.4c-0.1-0.3-0.2-0.4-0.4-0.4c-0.2,0-0.2-0.1-0.2-0.3c0-0.3-0.4-1.1-0.4-0.8c0,0.1-0.2-0.2-0.3-0.6
		C49.3,91.3,49.1,91,49,91c-0.1,0.1-0.1,0-0.1-0.2c0-0.6-0.2-1-0.3-1.1c-0.1-0.1-0.2-0.3-0.2-0.6s-0.1-0.4-0.1-0.5c0,0,0-0.1,0-0.2
		s0-0.1-0.1-0.1c-0.3,0.2-0.4-0.2-0.5-1.1c0-0.6-0.1-1.1-0.2-1.1s-0.1,0-0.1-0.1c0.1-0.1,0-0.2-0.2-0.2c-0.4-0.2-0.3-6.9,0-7.4
		c0.2-0.2,0.2-0.5,0.3-1.3c0-0.9,0.1-1.1,0.4-1.5c0.2-0.2,0.3-0.6,0.3-0.7c0-0.5,0-0.7,0.2-0.7c0.1,0,0.2-0.2,0.2-0.5
		c0.1-0.2,0.1-0.6,0.2-0.7c0.1-0.1,0.1-0.2,0.1-0.3s0.1-0.1,0.2-0.1s0.2-0.1,0.2-0.2s0.2-0.3,0.3-0.6c0.2-0.2,0.3-0.5,0.3-0.6
		c0.1-0.4,0.2-0.6,0.4-0.6c0.1,0,0.2-0.1,0.2-0.2c0-0.2,0.1-0.3,0.2-0.3c0.2-0.1,0.3-0.2,0.3-0.5c0.1-0.2,0.2-0.5,0.3-0.6
		c0.2-0.1,0.3-0.3,0.4-0.5s0.2-0.2,0.2-0.2c0.1,0.1,0.5-0.2,0.3-0.3c0-0.1,0.1-0.2,0.2-0.2c0.2-0.1,0.3-0.2,0.2-0.2
		c-0.1-0.2,2-1.6,2.1-1.6c0.1,0,0.2-0.1,0.2-0.3c0.1-0.2,0.2-0.3,0.3-0.3s0.3-0.2,0.4-0.3c0.2-0.2,0.3-0.3,0.3-0.3
		c0.5,0.1,0.7,0,0.8-0.2c0-0.2,0.2-0.2,0.2-0.2c0.1,0,0.4,0,0.7-0.1c0.3,0,0.4-0.1,0.4-0.2c0-0.2,0.2-0.2,0.7-0.3
		c0.6-0.1,0.8-0.2,0.8-0.3c0.1-0.2,0.2-0.2,0.8-0.3c0.9-0.1,1.2-0.2,1.3-0.3C62.5,62.2,70.2,62.1,71,62.3 M232.9,79.3
		c0,0.3,0,0.4,0.1,0.2c0-0.2,0-0.4,0-0.6C232.9,78.8,232.9,79,232.9,79.3"/>
		<path id="path1" class="st1" d="M85.1,133.7c0,0.1-0.2,0.2-0.4,0.2c-0.6,0-0.8,0.2-0.8,0.4c0,0.2-0.1,0.2-0.2,0.2
		c-0.2,0-0.3,0.1-0.3,0.2s-0.2,0.3-0.3,0.3c-0.2,0-0.2,0.2-0.2,0.3s-0.1,0.3-0.3,0.3s-0.3,0.2-0.3,0.7c0,0.5-0.1,0.6-0.3,0.6
		s-0.2,0.1-0.2,1c0,0.7-0.1,1-0.2,1c-0.5,0-0.5,0.4-0.5,8.7c0,6.5,0.1,8.1,0.2,8.3c0.2,0.2-0.2,0.2-5.2,0.2h-5.4l-0.1,0.3
		c0,0.2-0.2,0.3-0.6,0.3s-0.6,0.1-0.7,0.2c0,0.2-0.2,0.3-0.3,0.3c-0.2,0-0.2,0.2-0.2,0.3s-0.1,0.3-0.3,0.3s-0.3,0.2-0.3,0.7
		s-0.1,0.6-0.3,0.6s-0.2,0.1-0.2,1c0,0.7-0.1,1-0.2,1c-0.5,0-0.7,1.5-0.1,1.7c0.2,0.2,0.3,0.2,0.3,1.3s0,1.2,0.2,1.2
		c0.2,0,0.2,0.2,0.3,0.6s0.2,0.6,0.3,0.7c0.2,0.1,0.2,0.2,0.2,0.3c0,0.2,0.1,0.2,0.2,0.2c0.1,0,0.2,0.2,0.3,0.3s0.2,0.3,0.4,0.3
		s0.2,0.1,0.3,0.2s0.2,0.2,0.7,0.3c0.3,0.1,0.7,0.2,0.8,0.3c0.2,0.2,0.7,0.2,4.9,0.2h4.7l-0.1,25c-0.1,26.7,0,28.4,0.4,28.4
		c0.2,0.1,0.2,0.2,0.2,2.2c0,2,0,2.2,0.2,2.5c0.2,0.2,0.2,0.6,0.2,1.1c0,0.8,0.2,1.2,0.5,1.2c0.2,0,0.2,0.2,0.2,0.7
		c0,0.5,0.1,0.7,0.2,0.7c0.2,0,0.2,0.1,0.3,0.6c0,0.5,0.1,0.6,0.3,0.7c0.2,0,0.3,0.2,0.3,0.7c0,0.5,0.1,0.6,0.2,0.6s0.2,0.2,0.3,0.5
		c0.1,0.3,0.2,0.5,0.3,0.6c0.2,0.1,0.2,0.2,0.2,0.4c0,0.2,0.1,0.3,0.2,0.3c0.1,0,0.2,0.2,0.3,0.3c0.1,0.2,0.2,0.3,0.4,0.3
		s0.2,0.1,0.2,0.2s0.1,0.3,0.3,0.3c0.2,0.1,0.3,0.2,0.3,0.3c0,0.2,0.1,0.2,0.3,0.2s0.3,0.1,0.4,0.2c0.1,0.2,0.2,0.3,0.6,0.3
		c0.3,0.1,0.5,0.2,0.5,0.3c0,0.2,0.1,0.2,0.5,0.2c0.3,0,0.5,0.1,0.7,0.3c0.2,0.2,0.3,0.3,0.5,0.3c0.2,0,0.4,0.2,0.6,0.2
		c0.2,0.2,0.4,0.2,0.7,0.2c0.2,0,0.4,0.1,0.4,0.2c0,0.2,0.2,0.3,1.2,0.4c0.4,0.1,0.8,0.2,0.8,0.2s1.6,0.1,3.4,0.1h3.6l0.1-0.5
		c0.1-0.7,0.1-10.9,0-11.5c-0.1-0.5-0.2-0.5-0.6-0.6c-0.3-0.1-0.6-0.2-0.6-0.3c-0.1-0.2-0.2-0.2-0.5-0.2c-0.4,0-0.8-0.2-0.8-0.6
		c0-0.1-0.1-0.2-0.2-0.2s-0.2-0.1-0.2-0.2c0-0.2-0.1-0.2-0.3-0.2c-0.2,0-0.3-0.1-0.3-0.3c0-0.2-0.1-0.3-0.2-0.3
		c-0.2,0-0.2-0.1-0.3-0.6c0-0.5-0.1-0.6-0.3-0.7c-0.2,0-0.3-0.1-0.3-0.9c0-0.7,0-0.8-0.2-0.9c-0.2-0.1-0.2-0.2-0.2-26.7V169h5.2h5.2
		l0.3,0.5c0.2,0.2,0.3,0.7,0.4,1.1c0.1,0.4,0.2,0.7,0.3,0.7c0.2,0.1,0.2,0.3,0.2,0.6s0.2,0.7,0.3,0.8s0.3,0.7,0.3,1
		c0.1,0.4,0.2,0.7,0.3,0.7c0.2,0.1,0.2,0.3,0.2,0.7c0,0.4,0.1,0.6,0.3,0.7s0.3,0.4,0.3,0.9c0.1,0.6,0.2,0.7,0.3,0.8s0.2,0.2,0.3,0.7
		c0,0.5,0.1,0.6,0.3,0.6s0.3,0.1,0.3,0.8c0,0.6,0.1,0.8,0.2,1s0.2,0.4,0.2,0.6c0,0.6,0.2,0.8,0.4,0.8s0.2,0.1,0.2,0.7
		c0,0.5,0,0.7,0.2,0.7s0.2,0.1,0.2,0.6c0,0.8,0.1,1.1,0.4,1.2c0.2,0.1,0.2,0.2,0.2,0.7s0.1,0.6,0.2,0.7c0.2,0.1,0.2,0.2,0.2,0.6
		c0,0.3,0.1,0.7,0.3,0.9c0.2,0.2,0.3,0.5,0.3,1c0,0.5,0.1,0.6,0.2,0.6c0.2,0,0.2,0.1,0.3,0.6c0,0.4,0.1,0.6,0.3,0.7
		c0.2,0.1,0.3,0.2,0.3,0.9s0,0.8,0.2,0.9c0.2,0.1,0.2,0.2,0.2,0.5c0,0.6,0.2,0.8,0.4,0.8c0.2,0,0.2,0.1,0.2,0.7
		c0,0.8,0.1,1.1,0.3,1.1c0.1,0,0.2,0.2,0.2,0.4c0,0.5,0.2,1,0.5,1c0.2,0,0.2,0.2,0.2,0.7s0,0.7,0.2,0.7s0.2,0.1,0.2,0.4
		c0,0.9,0.2,1.4,0.4,1.4s0.2,0.1,0.2,0.6c0,0.5,0.1,0.7,0.2,0.7c0.2,0.1,0.2,0.2,0.3,0.7c0.1,0.4,0.2,0.7,0.3,0.8s0.2,0.4,0.3,0.8
		c0,0.5,0.1,0.7,0.3,0.7c0.2,0,0.3,0.2,0.3,0.7s0,0.6,0.2,0.6s0.2,0.1,0.2,0.7c0,0.7,0.2,1.1,0.6,1.1c0.1,0,0.2,0.2,0.2,0.7
		c0,0.5,0.1,0.7,0.2,0.7c0.2,0,0.2,0.1,0.3,0.6c0,0.5,0.1,0.6,0.3,0.7c0.2,0,0.3,0.1,0.3,0.9s0,0.9,0.2,0.9s0.2,0.1,0.2,0.6
		c0,0.6,0,0.7,0.3,0.7s0.3,0.2,0.3,0.7c0,0.7,0.1,1,0.3,1c0.1,0,0.2,0.2,0.2,0.7c0,0.6,0.1,0.7,0.3,0.7c0.2,0,0.3,0.2,0.3,0.7
		c0,0.5,0.1,0.6,0.2,0.6c0.2,0,0.2,0.1,0.3,0.8c0,0.7,0.1,0.9,0.3,1c0.2,0.1,0.3,0.2,0.3,0.7s0.1,0.6,0.2,0.6c0.2,0,0.2,0.2,0.3,0.7
		c0.1,0.5,0.2,0.7,0.3,1c0.2,0.2,0.3,0.4,0.3,0.8s0.1,0.6,0.2,0.7c0.2,0.1,0.2,0.2,0.3,0.7c0,0.5,0.1,0.6,0.3,0.7
		c0.2,0,0.3,0.1,0.3,0.9c0,0.7,0,0.8,0.2,0.9c0.2,0.1,0.2,0.2,0.2,0.5c0,0.6,0.2,0.8,0.4,0.8c0.2,0,0.2,0.1,0.2,0.7
		c0,0.4,0.1,0.7,0.2,0.7c0.2,0,0.3,0.2,0.4,1.1c0.1,0.7,0.2,0.7,0.3,0.7c0.2,0,0.2,0.1,0.2,0.7c0,0.6,0,0.7,0.3,0.7s0.3,0,0.3,0.9
		c0,0.8,0,0.9,0.2,0.9s0.2,0.1,0.3,0.7c0,0.6,0.1,0.7,0.3,0.7c0.2,0,0.3,0.2,0.3,0.6s0.1,0.6,0.2,0.7c0.2,0,0.2,0.2,0.2,0.3
		c0,0.2,0.1,0.2,0.3,0.2c0.3,0,0.3,0.1,0.3,0.6s0.1,0.6,0.3,0.7c0.2,0.1,0.3,0.2,0.3,0.3s0.2,0.2,0.6,0.3s0.6,0.2,0.6,0.3
		c0,0.2,0.8,1,1.1,1c0.2,0,0.2,0.1,0.2,0.2s1.7,0.2,4.8,0.2c2.9,0,4.8-0.1,4.8-0.2s0.2-0.2,0.5-0.3c0.2-0.2,0.5-0.2,0.6-0.3
		c0-0.1,0.2-0.2,0.4-0.2c0.2-0.1,0.3-0.2,0.4-0.3s0.2-0.2,0.2-0.2s0.2-0.2,0.3-0.3c0.1-0.2,0.2-0.3,0.3-0.3c0.2,0,0.3-0.3,0.3-0.7
		c0-0.2,0.1-0.3,0.3-0.3c0.2,0,0.3-0.1,0.3-0.2c0-0.2,0.1-0.3,0.2-0.3c0.2-0.1,0.2-0.2,0.2-0.7c0-0.5,0.1-0.6,0.3-0.6
		c0.2,0,0.3-0.2,0.3-0.7c0-0.5,0.1-0.7,0.3-0.7c0.2-0.1,0.2-0.2,0.2-0.9c0-0.8,0-0.8,0.3-0.8s0.3-0.1,0.3-0.7c0-0.5,0.1-0.7,0.2-0.7
		c0.3,0,0.4-0.2,0.4-1.1c0-0.7,0-0.7,0.2-0.7s0.2-0.1,0.2-0.6s0.1-0.6,0.3-0.7c0.2,0,0.3-0.2,0.3-0.6s0.1-0.6,0.3-0.7
		c0.2-0.1,0.2-0.2,0.2-0.9s0-0.8,0.3-0.9c0.2,0,0.3-0.2,0.3-0.7s0.1-0.6,0.3-0.7c0.2-0.1,0.2-0.2,0.2-0.9c0-0.8,0-0.9,0.3-0.9
		c0.2,0,0.3-0.2,0.3-0.7c0-0.5,0.1-0.6,0.3-0.6c0.2,0,0.2-0.1,0.2-0.7c0-0.5,0.1-0.7,0.2-0.7c0.2,0,0.5-0.6,0.5-1.2
		c0-0.4,0.1-0.6,0.2-0.6c0.2,0,0.2-0.1,0.2-0.6s0.1-0.6,0.3-0.7c0.2,0,0.3-0.2,0.3-0.8s0.1-0.8,0.3-0.9c0.2-0.1,0.2-0.2,0.2-0.7
		c0-0.5,0.1-0.6,0.3-0.7c0.3-0.1,0.3-0.2,0.3-0.7c0-0.5,0.1-0.6,0.2-0.7c0.2-0.1,0.2-0.2,0.2-0.9c0-0.8,0-0.8,0.3-0.8
		s0.3-0.1,0.3-0.7c0-0.5,0-0.7,0.2-0.7s0.2-0.1,0.2-0.7c0-0.5,0.1-0.7,0.2-0.7c0.2,0,0.5-0.6,0.5-1.2c0-0.4,0.1-0.6,0.3-0.6
		c0.2,0,0.3-0.2,0.3-0.6s0.1-0.6,0.3-0.7c0.2-0.1,0.2-0.2,0.2-0.9s0-0.8,0.3-0.9s0.3-0.2,0.3-0.7c0-0.4,0.1-0.6,0.2-0.7
		c0.2-0.1,0.2-0.2,0.2-0.7c0-0.5,0.1-0.6,0.2-0.6c0.2,0,0.5-0.6,0.5-1.2c0-0.4,0.1-0.6,0.2-0.6c0.2,0,0.2-0.1,0.2-0.7
		c0-0.4,0.1-0.7,0.2-0.7c0.2,0,0.5-0.4,0.5-1c0-0.2,0.1-0.6,0.2-0.7c0.2-0.2,0.2-0.5,0.2-0.9c0-0.5,0.1-0.6,0.3-0.7
		c0.2,0,0.3-0.2,0.3-0.6s0.1-0.6,0.3-0.7c0.2-0.1,0.2-0.2,0.2-0.9c0-0.7,0-0.8,0.3-0.9s0.3-0.2,0.3-0.7c0-0.4,0.1-0.6,0.2-0.7
		c0.2-0.1,0.2-0.2,0.2-0.7c0-0.4,0.1-0.7,0.3-1c0.2-0.2,0.3-0.5,0.3-0.9s0.1-0.5,0.2-0.5c0.2,0,0.2-0.1,0.2-0.7
		c0-0.5,0.1-0.7,0.2-0.7c0.3-0.1,0.4-0.4,0.4-1.2c0-0.5,0.1-0.6,0.2-0.6c0.2,0,0.2-0.1,0.2-0.6c0-0.5,0.1-0.6,0.3-0.7
		c0.2,0,0.3-0.2,0.3-0.6c0-0.3,0.2-0.7,0.3-0.7c0.2-0.2,0.3-0.4,0.3-0.9c0.1-0.6,0.2-0.7,0.3-0.8s0.2-0.2,0.2-0.7s0.1-0.6,0.2-0.6
		c0.2,0,0.2-0.2,0.3-0.7c0.1-0.4,0.2-0.7,0.3-0.9c0.2-0.2,0.2-0.4,0.2-0.8c0-0.5,0.1-0.6,0.2-0.7s0.3-0.2,0.3-0.7
		c0.1-0.3,0.2-0.7,0.3-0.8c0.2-0.2,0.2-0.5,0.2-0.9c0-0.6,0-0.7,0.2-0.7s0.4-0.3,0.4-0.9c0-0.2,0.2-0.3,0.2-0.4
		c0.2-0.2,0.2-0.3,0.2-0.7s0.1-0.6,0.2-0.6c0.2,0,0.3-0.2,0.4-1.1c0.1-0.4,0.2-0.7,0.2-0.7c0.1,0,0.1-1.6,0.1-3.6
		c0-2.3-0.1-3.6-0.2-3.6s-0.2-0.1-0.2-0.2c0-0.2-0.2-0.3-0.3-0.5c-0.2-0.1-0.3-0.3-0.3-0.4s-0.1-0.2-0.2-0.2s-0.3-0.1-0.3-0.2
		c-0.1-0.2-0.2-0.2-0.3-0.2s-0.2-0.1-0.2-0.2c0-0.2-0.3-0.4-0.9-0.4c-0.2,0-0.3-0.1-0.3-0.2c-0.1-0.4-6-0.4-6,0
		c-0.1,0.2-0.2,0.2-0.7,0.3c-0.4,0.1-0.6,0.2-0.7,0.3c0,0.2-0.2,0.2-0.3,0.2s-0.3,0.1-0.3,0.2s-0.2,0.3-0.3,0.3s-0.2,0.2-0.2,0.3
		s-0.1,0.2-0.2,0.2c-0.2,0-0.5,0.4-0.5,0.9c0,0.2-0.1,0.3-0.2,0.4c-0.2,0.1-0.2,0.2-0.3,0.9c0,0.8-0.1,0.9-0.3,0.9
		c-0.2,0-0.3,0.2-0.3,0.7s0,0.6-0.2,0.6s-0.2,0.1-0.2,0.7c0,0.4-0.1,0.7-0.2,0.7c-0.3,0-0.5,0.4-0.5,1.1c0,0.6,0,0.7-0.2,0.7
		s-0.2,0.1-0.2,0.6c0,0.5-0.1,0.7-0.3,0.7c-0.3,0.2-0.3,0.2-0.3,1s0,0.8-0.2,0.8c-0.2,0-0.2,0.2-0.3,0.6c-0.1,0.4-0.2,0.7-0.3,0.7
		c-0.2,0.1-0.2,0.2-0.2,0.9c0,0.7-0.1,0.8-0.2,0.8c-0.2,0-0.5,0.4-0.5,1c0,0.3-0.1,0.4-0.2,0.4c-0.2,0-0.2,0.1-0.2,0.9
		s0,0.9-0.3,0.9c-0.2,0-0.3,0.2-0.3,0.6s-0.1,0.6-0.3,0.7c-0.2,0.1-0.2,0.2-0.2,1s0,0.9-0.3,0.9c-0.2,0-0.3,0.2-0.3,0.7
		s-0.1,0.6-0.3,0.6c-0.2,0-0.2,0.1-0.2,0.9s0,0.9-0.3,0.9c-0.2,0-0.3,0.2-0.3,0.6s-0.1,0.6-0.3,0.7c-0.2,0.1-0.2,0.2-0.2,1
		s0,0.9-0.3,0.9c-0.2,0-0.3,0.2-0.3,0.7c0,0.5-0.1,0.6-0.3,0.6c-0.2,0-0.2,0.1-0.2,0.6c0,0.5-0.1,0.7-0.3,1c-0.2,0.2-0.3,0.5-0.3,1
		c0,0.5,0,0.7-0.2,0.7s-0.2,0.1-0.2,0.7c0,0.4-0.1,0.7-0.2,0.7c-0.3,0-0.5,0.4-0.5,1.1c0,0.5-0.1,0.7-0.2,0.7
		c-0.2,0.1-0.2,0.2-0.2,0.7s-0.1,0.6-0.3,0.7c-0.3,0.1-0.3,0.2-0.3,1c0,0.7,0,0.8-0.2,0.8s-0.2,0.1-0.2,0.6c0,0.5-0.1,0.6-0.3,0.7
		c-0.2,0-0.3,0.2-0.3,0.8c0,0.6-0.1,0.8-0.3,1c-0.2,0.1-0.3,0.4-0.3,0.7c-0.1,0.4-0.2,0.6-0.3,0.7s-0.2,0.2-0.2,0.6
		s-0.1,0.6-0.2,0.6c-0.2,0.1-0.2,0.2-0.3,0.9c-0.1,0.7-0.2,0.8-0.3,0.9s-0.2,0.2-0.2,0.7c0,0.5-0.1,0.6-0.2,0.7
		c-0.2,0.1-0.4,0.6-0.4,1.3c0,0.2-0.1,0.4-0.2,0.4c-0.2,0.1-0.2,0.2-0.2,0.7c0,0.4-0.1,0.6-0.2,0.6c-0.2,0.1-0.4,0.6-0.4,1.4
		c0,0.4-0.1,0.5-0.2,0.5c-0.2,0-0.2,0.1-0.2,0.7c0,0.5-0.1,0.7-0.2,0.7c-0.2,0-0.4,0.5-0.4,1.3c0,0.3-0.1,0.5-0.2,0.5
		c-0.2,0.1-0.2,0.2-0.2,0.7c0,0.4-0.1,0.6-0.2,0.7c-0.2,0.1-0.4,0.6-0.4,1.2c0,0.2-0.1,0.4-0.2,0.5c-0.2,0.2-0.2,0.3-0.2,0.7
		s-0.1,0.6-0.2,0.6c-0.2,0-0.5,0.5-0.5,1c0,0.2-0.1,0.4-0.2,0.7s-0.2,0.6-0.2,1s-0.1,0.6-0.2,0.6c-0.2,0-0.5,0.5-0.5,1.1
		c0,0.2-0.2,0.6-0.3,0.7l-0.3,0.4v-0.3c0-0.2-0.1-0.4-0.2-0.6c-0.2-0.1-0.2-0.4-0.3-0.7c0-0.4-0.1-0.6-0.3-0.6
		c-0.2,0-0.3-0.2-0.3-0.7c0-0.5-0.1-0.7-0.2-0.9s-0.2-0.4-0.2-0.7c0-0.7-0.1-0.9-0.4-0.9c-0.2,0-0.2-0.1-0.2-0.7
		c0-0.5,0-0.7-0.2-0.7s-0.2-0.1-0.2-0.7c0-0.7-0.2-1.2-0.5-1.2c-0.2,0-0.2-0.2-0.2-0.6s-0.1-0.6-0.2-0.7c-0.2-0.1-0.2-0.2-0.2-0.7
		c0-0.8-0.2-1.1-0.4-1.1s-0.2-0.1-0.2-0.7c0-0.5,0-0.7-0.2-0.7s-0.2-0.1-0.2-0.5c0-0.8-0.2-1.3-0.4-1.4c-0.2-0.1-0.2-0.2-0.2-0.7
		s-0.1-0.6-0.2-0.7c-0.2-0.1-0.2-0.2-0.2-0.6s-0.1-0.6-0.3-0.7c-0.3-0.2-0.3-0.3-0.3-1c0-0.7-0.1-0.7-0.2-0.8
		c-0.2-0.1-0.2-0.2-0.2-0.5c0-0.6-0.2-0.8-0.4-0.8s-0.2-0.1-0.2-0.7c0-0.6-0.1-0.8-0.2-0.9s-0.2-0.3-0.2-0.6c0-0.6-0.2-0.8-0.4-0.8
		s-0.2-0.1-0.2-0.7c0-0.5,0-0.7-0.2-0.7s-0.2-0.1-0.2-0.7c0-0.9-0.1-1.2-0.4-1.2c-0.2,0-0.2-0.1-0.2-0.7s0-0.7-0.3-0.7
		s-0.3,0-0.3-0.9c0-0.7,0-0.9-0.2-1c-0.2-0.1-0.2-0.2-0.3-0.7c0-0.5-0.1-0.6-0.3-0.6c-0.2,0-0.3-0.1-0.3-0.9c0-0.7,0-0.8-0.2-0.9
		s-0.2-0.2-0.2-0.7c0-0.6,0-0.6-0.3-0.6s-0.3,0-0.3-0.8c0-0.7-0.1-0.8-0.2-1c-0.2-0.1-0.2-0.4-0.3-0.7c0-0.4-0.1-0.6-0.3-0.6
		c-0.2,0-0.3-0.2-0.3-0.7c0-0.5-0.1-0.6-0.2-0.6c-0.2,0-0.2-0.1-0.3-0.8c0-0.7-0.1-0.9-0.3-1c-0.2-0.1-0.3-0.2-0.3-0.7
		c0-0.5-0.1-0.6-0.2-0.6c-0.2,0-0.2-0.1-0.2-0.7c0-0.8-0.1-1.1-0.4-1.1c-0.2,0-0.2-0.1-0.2-0.7c0-0.5,0-0.7-0.2-0.7
		s-0.2-0.1-0.2-0.5c0-0.8-0.2-1.3-0.4-1.4c-0.2-0.1-0.2-0.2-0.2-0.7c0-0.5-0.1-0.6-0.2-0.6c-0.2,0-0.2-0.1-0.3-0.6
		c0-0.5-0.1-0.6-0.3-0.7c-0.2,0-0.3-0.1-0.3-0.9c0-0.7,0-0.9-0.2-1c-0.2-0.1-0.2-0.2-0.3-0.7c0-0.5-0.1-0.6-0.3-0.6
		c-0.2,0-0.3-0.1-0.3-0.9s0-0.9-0.3-0.9c-0.3,0-0.3-0.1-0.3-0.7c0-0.5-0.1-0.7-0.2-0.7c-0.2,0-0.2-0.1-0.3-0.9c0-0.8-0.1-0.9-0.3-1
		c-0.2,0-0.3-0.2-0.3-0.7s-0.1-0.6-0.2-0.6c-0.2,0-0.2-0.1-0.2-0.7c0-0.8-0.1-1.1-0.4-1.1c-0.2,0-0.2-0.1-0.2-0.6s-0.1-0.6-0.2-0.7
		c-0.2-0.1-0.2-0.2-0.3-0.7c0-0.5-0.1-0.6-0.3-0.7c-0.2,0-0.3-0.2-0.3-0.7s-0.1-0.6-0.2-0.6c-0.2,0-0.2-0.1-0.2-0.2
		s-0.1-0.2-0.3-0.2c-0.2,0-0.3-0.1-0.3-0.3c0-0.2-0.1-0.3-0.2-0.3c-0.2,0-0.2-0.1-0.2-0.2s-0.1-0.2-0.3-0.2c-0.2,0-0.3-0.1-0.3-0.2
		c0-0.4-0.1-0.4-10-0.4c-6,0-9.5-0.1-9.3-0.2c0.2-0.1,0.2-1.2,0.2-8.2c0.1-8.7,0-9.2-0.4-9.3c-0.2-0.1-0.2-0.2-0.2-0.7
		s0-0.7-0.2-0.7s-0.2-0.1-0.3-0.6c0-0.5-0.1-0.6-0.3-0.7c-0.2,0-0.3-0.2-0.3-0.4s-0.1-0.3-0.2-0.3s-0.2-0.1-0.2-0.2
		s-0.1-0.2-0.3-0.2s-0.3-0.1-0.4-0.3c0-0.2-0.2-0.3-0.7-0.3c-0.3,0-0.6-0.1-0.6-0.2c0-0.1-1.2-0.2-3.1-0.2
		C86.4,133.5,85.1,133.6,85.1,133.7"/>
		<path id="path2" class="st1" d="M25.1,16.9"/>
		<path id="path3" class="st1" d="M25.1,16.9"/>
		<path id="path4" class="st1" d="M25.1,16.9"/>
</g>
</svg>