<svg version="1.1" id="layer" xmlns="http://www.w3.org/2000/svg" x="0" y="0" viewBox="-153 -46 652 652" style="enable-background:new -153 -46 652 652" xml:space="preserve"><style>.st1,.st2{stroke-width:7.6383;stroke-miterlimit:10}.st1{fill:none;stroke:#fff;stroke-linecap:round}.st2{fill:#fff;stroke:#f15a29}</style><path d="M45.6 195.9c6.1 6.1 12.8 11.8 19.9 16.8 2.7 2 6.4 1.4 8.4-1.4.8-1.1 1.2-2.4 1.1-3.8-1.7-37.7 1.5-154.3 101.4-183.6 3.1-.9 6.1.9 7 3.8.3.9.3 2 0 2.9-25.8 109.4 38.8 142.7 68.3 91.2 1.5-2.7 4.9-3.7 7.6-2.1.8.5 1.5 1.1 2 1.8 25.7 39.7 18.9 75.2 12.1 93.8-1.5 4.3.6 8.9 4.9 10.4 2.1.8 4.6.6 6.6-.5 4.3-2.4 8.4-5.3 11.9-8.9 1.2-1.2 3.2-1.2 4.3 0 .6.6.9 1.4.9 2.1 0 75-60.8 135.7-135.7 135.7C95 354.1 35.8 298.8 31 227.8c-.6-9-.3-18.2.9-27.2.6-4.4 4.7-7.6 9.2-7 1.5.2 3.1 1 4.5 2.3z" style="fill:#f2663d"/><path class="st1" d="M275.3 191.2c-.6 9.6-2.7 19.1-6.1 28.1-1.5 4.3.6 8.9 4.9 10.4 2.1.8 4.6.6 6.6-.5 4.3-2.4 8.4-5.3 11.9-8.9 1.2-1.2 3.2-1.2 4.3 0 .6.6.9 1.4.9 2.1h0M180.7 123.1c14.8 34.1 48 35.9 66.8 2.9 1.5-2.7 4.9-3.7 7.6-2.1.8.5 1.5 1.1 2 1.8 7.6 11.6 13.1 24.6 16.2 38.2M92.3 95.7c14.8-29.5 39.4-55.8 79.9-67.7 3.1-.9 6.1.9 7 3.8.3.9.3 2 0 2.9-1.8 7.9-3.4 15.9-4.4 23.8M29.8 253.1c-1.5-6.9-2.6-13.9-3.1-21.1-.6-9-.3-18.2.9-27.2.6-4.4 4.6-7.6 9-7 1.8.2 3.5 1.1 4.7 2.3 6.1 6.1 12.8 11.8 19.9 16.8 2.7 2 6.4 1.2 8.4-1.4.8-1.1 1.2-2.4 1.1-3.7-.8-18.5.3-37.1 3.1-55.5M274.1 299.2c-42.2 61.9-126.5 77.8-188.4 35.4-5.2-3.5-10.1-7.3-14.7-11.6"/><path class="st2" d="M23.2 418.1c-.3 1.2-1.4 2.1-2.6 2.4-4.3.9-8.4 2.6-12.1 4.9-10 6.4-15.2 20.6-13.4 32.8 2.6 16.7 19.4 14.7 28.4 12.2 1.8-.5 3.7.6 4.1 2.4.2.6.2 1.2 0 1.8-.9 3.4-2 6.7-2.6 8.6-.3 1.1-1.2 2-2.4 2.3-43.8 12.2-57.7-26.5-40.6-57.2 12.2-22 31.9-26.1 40.9-26.7 1.8-.2 3.5 1.4 3.7 3.2 0 .5 0 .8-.2 1.1l-3.2 12.2zM81.9 485.6c0 .5-.2.6-.8.5l-15.3-2.6c-.3 0-.3-.3-.3-.6l.2-1.2c3.7-20.2 1.5-24.6.5-25.7-1.4-.9-2.7-1.5-4.4-1.8-1.7-.5-3.4.5-3.8 2.1 0 .2-.2.3-.2.6l-3.4 26.4c-.2 1.5-1.5 2.7-3.2 2.7l-10.2-.4c-1.7 0-3.1-1.5-2.9-3.2v-.2l8.1-86.3c.2-1.7 1.5-2.9 3.4-2.7.2 0 .5 0 .6.2l12.8 3.4c1.5.5 2.4 1.8 2.3 3.4l-4.1 31.5c-.2 1.5.8 3.1 2.3 3.4 5 1.2 10.8 3.2 14.8 6.9 4.8 4 11.2 15.3 3.6 43.6zM113.7 434.4c.2 0 .3.2.3.3l-4.7 54.2h-.6c-2.1 0-12.8-.3-14.1-.6l-.5-.2 3.2-50c0-.2.2-.3.3-.3l16.1-3.4zM98.4 421c-.6-1.4-.6-2.9-.2-4.3s1.4-2.6 2.6-3.4c3.1-2.1 7.2-1.5 9.3 1.5.8.9 1.1 2.1 1.2 3.4 0 .8 0 1.4-.3 2.1-.6 1.5-1.8 2.7-3.4 3.4-.9.5-1.7.6-2.6.8-2.6.3-5.2-1.1-6.6-3.5z"/><path d="m183.2 371.5-18 105.9c-.3 1.8-2.1 3.2-4 2.9-.8-.2-1.4-.5-1.8-.9l-14.7-13.9c-1.4-1.4-3.7-1.2-4.9.2-.6.6-.9 1.5-.9 2.4l.2 14.7c0 2-1.5 3.5-3.5 3.5-.5 0-.9-.2-1.4-.3l-11.6-5v-.5l2.9-42.6c.2-2 1.8-3.4 3.7-3.2.6 0 1.2.3 1.8.6l16.7 11.6c1.5 1.1 3.7.8 4.9-.8.3-.5.5-.9.6-1.5l9.5-72c.2-1.5 1.4-2.7 2.9-3.1l13.7-2.1c1.8-.3 3.7.9 4 2.9-.1.3-.1.7-.1 1.2z" style="fill:#fff"/><path d="M183.2 371.5 171.9 438l-18.6 6.6 9.5-72c.2-1.5 1.4-2.7 2.9-3.1l13.7-2.1c1.8-.3 3.7.9 4 2.9-.2.4-.2.7-.2 1.2z" style="fill:#f7941d"/><path d="m184.4 363.2-8.6 50.3-20 9.6 6.6-50.6c.2-1.5 1.4-2.7 2.9-3.1l13.7-2.1c2.5-.3 4.5 1.9 5.4-4.1z" style="fill:#f47c4b"/><path d="m183.2 371.5-3.4 20-20.5 6.1 3.2-24.9c.2-1.5 1.4-2.7 2.9-3.1l13.7-2.1c1.8-.3 3.7 1.1 4 2.9.1.3.1.6.1 1.1z" style="fill:#f15a29"/><path d="m183.2 371.5-18 105.9c-.3 1.8-2.1 3.2-4 2.9-.8-.2-1.4-.5-1.8-.9l-14.7-13.9c-1.4-1.4-3.7-1.2-4.9.2-.6.6-.9 1.5-.9 2.4l.2 14.7c0 2-1.5 3.5-3.5 3.5-.5 0-.9-.2-1.4-.3l-11.6-5v-.5l2.9-42.6c.2-2 1.8-3.4 3.7-3.2.6 0 1.2.3 1.8.6l16.7 11.6c1.5 1.1 3.7.8 4.9-.8.3-.5.5-.9.6-1.5l9.5-72c.2-1.5 1.4-2.7 2.9-3.1l13.7-2.1c1.8-.3 3.7.9 4 2.9-.1.3-.1.7-.1 1.2z" style="fill:none;stroke:#f15a29;stroke-width:7.6383;stroke-miterlimit:10"/><path class="st2" d="M226 435.9c2 .2 3.4 1.8 3.4 3.8l-3.4 58.7c-2.1 23.1-18.8 24.7-24.3 25.2h-.9c-10.2.8-21.1-4.9-22.3-17.6-.8-8.7 2.6-13.7 5.7-16.5 3.5-2.7 7.6-4.3 11.9-4.7 7.2 0 9.9-1.1.5-1.8-6.1-.5-17.9-14.7-17.6-24.7.2-6.6 2.7-12.8 7.5-17.4 4.6-4.4 10.8-6.7 17.3-6.4 3.4.2 6.7 1.2 9.6 2.7l.2-2.3 12.4 1zm-12.4 28c1.2-6.6-2.3-13.1-8.6-15.7-1.4-.5-2.9-.8-4.4-.6-1.2.2-2.4.6-3.5 1.2-2.6 1.5-4.4 4.1-4.9 7.2-1.2 6.6 2.3 13.1 8.4 15.7 2.6 1.1 5.7.8 8.1-.6 2.6-1.6 4.4-4.1 4.9-7.2zm-19.4 43.5c1.7 1.4 4.9.8 5.5.8 2.6-.3 5.2-1.2 7.5-2.6.3-.2.5-.5.8-.6 1.1-1.2 1.7-2.9 1.8-4.4-4-.5-8.1-.3-12.1.5-1.1.2-2.3.6-3.4 1.1-.8.8-1.2 1.8-1.2 2.9 0 .7.3 1.6 1.1 2.3zm16.6-22.1v-1.4c-3.8.2-3.6 1.1 0 1.4zM290.1 484.5l-2.3.8c-.6.2-1.2.5-2 .6-1.4.3-2.9.6-4.3.8-2.9.3-8.2.3-11-2.4-2.7 1.7-5.8 2.6-9 2.9-1.5.2-3.1.2-4.6 0-2.4-.2-4.7-.6-7-1.5-4.4-1.7-7.6-5.3-9.2-9.8-1.2-4.6-.5-9.3 2-13.4 4.3-7.5 14.8-11.8 23.5-9.3l.8.3c-.3-.8-.8-1.5-1.5-2-5.3-3.4-13.9 1.4-14.1 1.5l-2.4 1.4-1.1-2.4-4.4-10.1c-.3-1.1.8-1.5 1.4-2 3.7-1.7 7.5-3.1 11.5-3.8 8.2-1.7 15.4-.9 20.8 2.1 8.4 5 6.9 15 5.8 23.1-.2 1.4-.5 2.9-.6 4.1 0 .6-.2 1.1-.2 1.7s-.2 1.4-.3 2.4c0 .2.2.2.3.2l2-1.1 5.9 15.9zm-23.8-10.2c2.9-1.7 4.4-4.7 3.5-7.2-.5-1.4-1.5-2.4-2.9-2.9-1.1-.5-2.3-.6-3.4-.5-.9.2-1.8.3-2.6.6l-.5.2c-1.8.8-3.2 2.3-4 4.1-.8 1.5-.5 3.5.8 4.7 1.1 1.2 2.6 2 4.3 2 1.7.2 3.3-.3 4.8-1zM339.9 441.6l-7.5 14.2c-.2.3-.6.2-.9-.2-3.5-3.2-6.9-4.4-10.2-3.7-1.5.3-2.9.9-4.1 1.7l-2.4 29.9c-.2 1.2-1.1 2-2.3 1.8-.2 0-.5 0-.6-.2l-13-5.2c-.2-.2-.3-.3-.2-.8l4.4-45.8c.2-1.1 1.1-2 2.3-1.8l13.4 1.1-.2 2.4c7.2-1.4 12.5-2.1 21.1 5.5.2.6.2.9.2 1.1zM365.7 434.1c.2 0 .3 0 .3.2v.2l-4.7 54.2h-.8c-2.1 0-12.8-.3-14.1-.6l-.5-.2 3.1-50c0-.2.2-.3.3-.3l16.4-3.5zm-15.1-13.3c-.6-1.4-.6-2.9-.2-4.3s1.4-2.6 2.6-3.4c3.1-2.1 7.2-1.5 9.3 1.5.8.9 1.1 2.1 1.2 3.2 0 .8 0 1.4-.3 2.1-.6 1.5-1.8 2.7-3.4 3.4-.9.5-1.7.6-2.6.8-2.6.4-5.4-.8-6.6-3.3z"/></svg>