<svg xmlns="http://www.w3.org/2000/svg" width="256" height="256"><g transform="translate(-373.642 -318.344)"><path fill="#1D8CB5" d="M583.659 328.849H419.625c-19.599 0-35.487 15.888-35.487 35.487v164.015c0 19.599 15.888 35.486 35.487 35.486h164.033c19.599 0 35.487-15.888 35.487-35.486V364.337c.001-19.599-15.888-35.488-35.486-35.488z"/><linearGradient id="a" gradientUnits="userSpaceOnUse" x1="-808.873" y1="199.892" x2="-860.569" y2="49.203" gradientTransform="rotate(180 -17.27 206.273) scale(.5915)"><stop offset="0" stop-color="#fff"/><stop offset="1" stop-color="#fff" stop-opacity="0"/></linearGradient><path opacity=".781" fill="url(#a)" d="M557.056 338.895H446.227c-29.337 0-52.955 23.81-52.955 53.385v108.127c.95 23.087 4.603 8.491 11.555-17.075 8.081-29.713 34.396-55.682 66.445-75.145 24.461-14.855 51.84-24.341 101.679-25.244 28.265-.511 25.77-36.683-15.895-44.048z"/></g><g fill="#FFF"><path d="M81.604 207.76V101.49h-35.32v106.27h35.32zM63.951 86.98c12.308 0 19.981-8.161 19.981-18.36-.228-10.426-7.673-18.36-19.75-18.36-12.087 0-19.984 7.934-19.984 18.36 0 10.199 7.662 18.36 19.52 18.36h.233zM101.151 207.76h35.326v-59.345c0-3.178.23-6.352 1.165-8.621 2.547-6.35 8.363-12.92 18.118-12.92 12.784 0 17.893 9.748 17.893 24.032v56.855h35.319v-60.936c0-32.643-17.422-47.83-40.665-47.83-19.053 0-27.421 10.647-32.068 17.902h.238V101.49h-35.326c.469 9.97 0 106.27 0 106.27z"/></g></svg>