<svg xmlns="http://www.w3.org/2000/svg" viewBox="0 0 128 128"><path d="M95.226 70.978c-5.3 0-9.6-4.2-9.6-9.3 0-5.2 4.3-9.3 9.6-9.3s9.6 4.2 9.6 9.3c0 5.1-4.3 9.3-9.6 9.3m-62.4 0c-5.3 0-9.6-4.2-9.6-9.3 0-5.2 4.3-9.3 9.6-9.3s9.6 4.2 9.6 9.3c-.1 5.1-4.4 9.3-9.6 9.3m76-22.6c-7.5-7.3-19.7-7.3-27.2 0l-16.3 15.9c-.3.3-.8.5-1.4.5-.5 0-1-.2-1.4-.5l-16.3-15.9c-7.5-7.3-19.7-7.3-27.2 0s-7.5 19.2 0 26.5c7.5 7.3 19.7 7.3 27.2 0l5.4-5.3c.3-.3.8-.5 1.4-.5.5 0 1 .2 1.4.5l8.2 8c.3.3.8.5 1.4.5.5 0 1-.2 1.4-.5l8.2-8c.3-.3.8-.5 1.4-.5.5 0 1 .2 1.4.5l5.4 5.3c7.5 7.3 19.7 7.3 27.2 0 7.3-7.3 7.3-19.2-.2-26.5" fill-rule="evenodd" clip-rule="evenodd"/></svg>