<svg xmlns="http://www.w3.org/2000/svg" viewBox="0 0 219 217"><g fill="#699c39"><path d="M63 185.937c1.9 2.6 4.1 4.5 6.8 6 13.2 7.5 35.8.4 70-19.6 34.6-20 52-35.8 52.3-50.8 0-2.3-.4-4.1-1.1-6.4-21.8 29.8-94.9 66.7-128 70.8m3-158.1c29.7 5.3 104.7 46.7 125 74.2.8-1.9.8-4.1 1.1-6 0-15.1-16.9-31.3-52-51.2-34.3-19.6-56.5-27.1-70-19.6-1.5.7-2.6 1.4-4.1 2.6zm-23.7 2.6c4.5-2.6 10.2-3.8 16.2-3.4 2.6-3.4 5.3-5.6 8.7-7.5 15.4-8.7 39.9-1.1 76.1 20 36.9 21.5 55.3 38.8 55.3 56.9 0 4.1-1.1 8.3-3 12.4 2.3 4.1 3 8.7 3 12.8 0 17.7-18.8 35-55.3 56.1s-60.6 28.6-76.4 19.6c-4.1-2.3-7.9-6-10.9-10.9-5.3 0-9.8-1.5-13.9-3.8-15.4-8.7-21.5-33.1-21.5-76.1s6.3-67.4 21.7-76.1zm12.4 2.6c-3.4.4-6.8 1.1-9.4 2.6-13.2 7.5-18.4 30.1-18.4 70.8 0 40.3 4.9 63.3 18.4 70.8 2.3 1.1 4.9 2.3 7.9 2.6-14.3-28.5-14.3-119.6 1.5-146.8zm15.5 17.4c-25.6 14.3-25.6 101.6-.4 115.9 26.4 15.1 97.5-36.9 97.5-59.5.4-29.3-72.3-70.4-97.1-56.4z"/><path d="M118.7 113.237c-3.4 1.9-7.2 4.1-10.5 6s-7.2 4.1-10.5 6c-10.9 6.4-10.5 6.8-10.5-6v-12-12c0-12.4-.8-12.4 10.5-6 3.4 1.9 7.2 4.1 10.5 6s7.2 4.1 10.5 6c10.9 6.4 10.9 6 0 12" fill-rule="evenodd" clip-rule="evenodd"/></g></svg>