<svg xmlns="http://www.w3.org/2000/svg" width="375.16" height="375.16"><g data-name="Layer 2"><g data-name="Layer 1"><path fill="#494949" d="M375.23 187.61c0-52.45-75.8-139.17-140.31-173.23C217.79 5.36 201.5 0 187.61 0c-16.78 0-37.15 7.76-58.09 20.45C109.07 32.78 88 49.85 69 68.88c-19.24 19.25-36.45 40.54-48.86 61.2C7.73 150.74 0 170.9 0 187.54c0 66.35 121.27 187.62 187.61 187.62 16.78 0 37-7.76 58-20.38 20.44-12.34 41.6-29.47 60.7-48.51s36.38-40.47 48.72-61c12.51-20.85 20.2-41.02 20.2-57.66z"/><path fill="#40c9ff" d="M249.16 126.06a706.84 706.84 0 0 0-61.34-57.46c-18-14.8-36.52-28.06-55.06-38.56-19.25 11.63-39.13 27.7-57.11 45.68l111.89 111.89z"/><path fill="#9661ba" d="M232.24 24.25c-16.14-8.53-31.51-13.53-44.63-13.53-15.86 0-35 7.33-54.78 19.32 18.54 10.43 37.09 23.76 55.07 38.56z"/><path fill="#ffa233" d="m245.92 245.92-58.31-58.31L75.72 75.72C57.53 93.84 41.32 114 29.61 133.47 67.05 198.19 138.26 263 188.11 303.73Z"/><path fill="#ff5a7e" d="M242.25 345.26c-4.51-3.17-25.94-18.54-54.14-41.6C138.26 263 67.05 198.19 29.61 133.47 17.91 153 10.72 172 10.72 187.61c0 62.54 114.36 176.9 176.89 176.9 15.8 0 34.9-7.33 54.64-19.25z"/><path fill="#ffd91d" d="M364.51 187.61c0-49.42-71.49-131.21-132.27-163.36L187.9 68.6a707.26 707.26 0 0 1 61.26 57.46l-61.55 61.55 58.31 58.31-57.81 57.81c28.27 23.06 49.63 38.36 54.14 41.6 19.32-11.63 39.2-27.78 57.25-45.76 18.05-17.98 34.27-38.14 46-57.6 11.82-19.67 19.01-38.63 19.01-54.36z"/></g></g></svg>