<svg xmlns="http://www.w3.org/2000/svg" version="1.0" width="533.333" height="533.333" viewBox="0 0 400 400"><path d="M176 .9c0 .4-2.8 1.1-6.2 1.5-9.4 1-31.2 6.3-37.3 9.1-1.6.7-6.1 2.6-10 4.1-6.2 2.5-9.8 4.2-23.7 11.6-2 1.1-4.2 2.6-4.9 3.4-.6.8-1.5 1.4-2 1.4-1.8 0-14.1 9-22.9 16.8-13.4 11.9-25.9 26-36.2 40.8C24.1 102 10.2 132.9 6.9 147c-2.8 12.1-4.8 22.9-4.9 25.7 0 1.8-.4 3.3-1 3.3s-1 9.2-1 25.5c0 14 .4 25.5.9 25.5.4 0 1.4 3.5 2 7.7 3.5 22.5 13.1 48 26.2 69.8 4 6.6 14.2 20.7 18.1 24.9 1 1.1 1.8 2.6 1.8 3.3 0 .7.4 1.3.8 1.3 1.4 0 15.2 14.1 15.2 15.6 0 .8.8 1.4 1.8 1.4s2.7.8 3.8 1.8c1 1 4.6 3.8 7.9 6.3 23.2 17.7 52.9 31.3 80.6 36.9 5.7 1.1 10.5 2.5 10.7 3 .5 1.3 59.9 1.3 60.4 0 .2-.5 5-1.9 10.7-3 20.3-4.1 45-13.8 63.6-25.1 3.9-2.3 11.6-7.7 17.3-12.1 5.7-4.3 10.9-7.8 11.7-7.8.8 0 1.5-.6 1.5-1.3 0-1.5 11.4-13.3 14.2-14.8 1-.5 1.8-1.5 1.8-2.2 0-.7.8-2.2 1.8-3.3 3.8-4.1 14.1-18.2 18.1-24.9 11.4-18.8 20.9-42.9 25.1-63.5 1-5.2 2.3-9.6 2.9-9.8 1.7-.6 1.5-42.2-.1-42.2-.7 0-6.2 1.4-12.3 3-6 1.7-12.3 3.3-14 3.6-1.6.4-5 1.3-7.3 2-2.4.8-10.3 3-17.5 4.9-13.9 3.5-30.7 8-34.4 9.1-1.7.5-2.3 1.6-2.8 5.3-3.2 24.6-12.3 42.8-30.5 61.2-24.3 24.5-44.6 32.9-80.1 32.9-36.2 0-57.6-9.1-82.3-35.1l-9.2-9.7-5 1.3c-5.1 1.4-17.5 4.7-35.4 9.5-5.8 1.5-16.5 4.4-23.8 6.4-7.4 2-14 3.6-14.8 3.6-3.1 0-1-2.8 6.2-8.5 4.2-3.3 9.6-7.7 12.1-9.8 2.4-2 5-3.7 5.8-3.7.7 0 1.5-.6 1.8-1.4.3-.7 7.4-6.9 15.8-13.7 8.4-6.8 16.6-13.5 18.2-14.9l2.9-2.6-1.6-7.8c-2.1-10.3-2.2-37.3-.1-48.3 4.1-21.6 13.3-38.3 30.4-55.4 17.6-17.5 33.8-26.3 55.6-30.3 10.4-1.9 43.4-1.4 51.5.7 8.8 2.4 15.2 4.7 20.1 7.3 2.6 1.3 5.4 2.4 6.2 2.4.8 0 5.7-3.4 10.9-7.5 5.1-4.1 12.2-9.9 15.8-12.7 3.6-2.9 7-5.6 7.5-6 5.1-4 31.7-25.8 34-28l3-2.9-3-2.5C303.4 25.6 269.1 9.9 241 4c-5.8-1.2-10.6-2.6-10.8-3.1-.5-1.2-54.2-1.2-54.2 0z" fill="#f14038"/></svg>