<svg xmlns="http://www.w3.org/2000/svg" width="400" height="400"><g fill-rule="evenodd"><path d="M205.6 61.443c-.913.229-11.897 1.015-18.2 1.302-4.168.19-5.856.422-6.6.908-.587.383-2.29.753-4.124.896-1.892.149-4.113.64-5.632 1.248-1.379.552-3.185 1.003-4.015 1.003-.829 0-2.075.262-2.769.582-2.827 1.305-5.554 2.218-6.626 2.218-.625 0-1.351.258-1.613.574-.262.316-1.016.693-1.676.838-.659.145-1.682.515-2.272.823-.59.308-1.276.561-1.524.563-.248.001-.675.272-.949.602-.274.33-.976.6-1.56.6-.584 0-1.449.271-1.922.602-.473.332-2.898 1.625-5.389 2.874-2.491 1.25-4.619 2.395-4.729 2.544-.11.15-.65.41-1.2.579-.55.17-1.63.787-2.4 1.372-.77.585-1.85 1.288-2.4 1.562-1.988.991-2.979 1.639-4.044 2.644-.596.563-1.267 1.023-1.489 1.023-.223 0-1.231.63-2.24 1.4-1.009.77-1.967 1.403-2.13 1.407-.164.004-1.261.904-2.439 2-1.179 1.096-2.219 1.993-2.312 1.993-.375 0-4.303 3.292-5.028 4.214-.427.542-.952.986-1.167.986-.94 0-15.551 15.646-15.551 16.652 0 .196-.36.58-.8.855-.44.275-.8.758-.8 1.074 0 .315-.363.828-.808 1.139-.444.312-1.382 1.447-2.085 2.523-.703 1.076-1.378 2.047-1.5 2.157-.123.11-.441.695-.707 1.3-.265.605-.667 1.1-.891 1.1a.418.418 0 00-.409.424c0 .233-.63 1.249-1.4 2.258-.77 1.008-1.4 2.006-1.4 2.218 0 .211-.523 1.158-1.161 2.104-.639.947-1.281 2.098-1.427 2.558-.146.461-.427.838-.624.838-.196 0-.562.76-.812 1.689s-.887 2.203-1.415 2.831c-.529.628-.961 1.391-.961 1.697 0 .305-.63 1.702-1.4 3.102-.77 1.401-1.4 2.915-1.4 3.365 0 .45-.27 1.042-.6 1.316-.33.274-.601.791-.602 1.149-.002.358-.244 1.113-.539 1.678a12.084 12.084 0 00-.829 2.196c-.161.643-.465 1.275-.675 1.405-.21.13-.524 1.121-.697 2.204-.173 1.082-.517 2.328-.763 2.768-.605 1.081-2.092 6.131-2.109 7.167-.008.458-.272 1.283-.586 1.833-.314.55-.576 1.63-.581 2.4-.011 1.677-.983 6.409-2.055 10-1.201 4.025-1.154 28.931.066 34.923 1.025 5.035 2.076 7.388 3.451 7.733 2.049.514 20.208-.125 22.119-.778.99-.339 2.88-.803 4.2-1.031 3.715-.643 6.668-1.268 8.175-1.731 1.272-.391 2.354-.655 7.825-1.915 1.1-.253 2.567-.717 3.26-1.031.694-.313 1.717-.57 2.274-.57.558 0 1.521-.2 2.14-.444.619-.244 2.116-.68 3.326-.969 8.28-1.978 7.375-.387 8.407-14.787.22-3.08.669-6.602.997-7.826.328-1.225.597-3.025.598-4 .002-.976.255-2.257.563-2.847.308-.59.685-1.67.838-2.4.483-2.301 1.849-6.312 2.231-6.548.201-.124.366-.631.366-1.126 0-.495.264-1.249.587-1.677.323-.427.593-1.078.6-1.447.007-.37.259-.918.56-1.219.301-.301.686-.989.855-1.529.169-.539.786-1.701 1.37-2.581.585-.88 1.287-2.05 1.561-2.6 3.269-6.557 16.697-20.978 21.11-22.672.354-.136 1.061-.625 1.57-1.088.509-.462 1.974-1.38 3.256-2.04 1.282-.66 2.421-1.311 2.531-1.446.11-.136 1.28-.735 2.6-1.332a227.01 227.01 0 004.434-2.068c1.119-.541 2.739-1.091 3.6-1.223.861-.131 1.836-.451 2.166-.71.592-.464 4.69-1.554 7.8-2.074.88-.147 1.96-.49 2.4-.761.536-.331 3.645-.566 9.435-.713 7.752-.198 8.958-.323 11.8-1.225 1.741-.552 4.004-1.113 5.03-1.245 1.08-.14 1.958-.486 2.087-.822.123-.32.489-.581.814-.581 2.803 0 15.434-11.259 15.434-13.758 0-.267.511-1.29 1.135-2.274s1.253-2.535 1.399-3.445c.146-.911.517-2.166.825-2.789 2.298-4.647 2.127-12.923-.381-18.394-.318-.694-.578-1.808-.578-2.477 0-.669-.184-1.33-.409-1.469-.225-.139-.99-1.345-1.7-2.68-1.823-3.428-1.872-3.501-4.075-6.076-2.129-2.491-5.898-5.585-7.581-6.225-.569-.216-1.035-.578-1.035-.803 0-.226-.248-.41-.551-.41-.303 0-.775-.27-1.049-.6-.274-.33-.886-.6-1.36-.6-.474 0-1.289-.299-1.811-.665-.522-.365-1.687-.811-2.589-.989-1.755-.348-9.959-1.577-10.01-1.5-.016.026-.3.115-.63.197m74.156 141.044c-.971 1.098-2.471 4.797-3.451 8.513-.232.88-.576 1.799-.765 2.043-.188.243-.508 1.233-.711 2.2-.447 2.132-1.297 4.47-1.895 5.211-.243.3-.564 1.119-.714 1.818-.149.7-.53 1.487-.846 1.749-.316.262-.582.77-.591 1.128-.01.358-.458 1.371-.996 2.251-.538.88-1.159 2.012-1.379 2.517-.22.504-1.306 2.304-2.412 4a1718.084 1718.084 0 00-2.503 3.846c-2.416 3.743-13.727 15.151-15.649 15.783-.244.08-.626.35-.849.6-.645.724-2.925 2.254-3.359 2.254-.218 0-.54.225-.716.5-.176.275-1.009.851-1.85 1.279-.842.429-1.904 1.104-2.361 1.5-.457.397-1.243.721-1.747.721-.503 0-1.015.161-1.136.359-.313.506-3.007 1.859-4.374 2.197-.632.156-1.367.502-1.635.77-.267.267-1.82.825-3.451 1.239-1.632.414-3.218.952-3.525 1.194-.308.243-1.838.65-3.4.905-1.563.255-4.551.823-6.641 1.261-2.702.567-6.103.863-11.768 1.026-7.996.23-9.619.513-13.127 2.296-.382.194-.942.353-1.246.353-.303 0-1.009.36-1.568.8-.56.44-1.23.8-1.491.8-.261 0-.886.315-1.391.7-.504.385-1.318.97-1.808 1.3-2.19 1.474-3.899 3-5.517 4.925l-2.915 3.464c-.643.764-1.169 1.521-1.169 1.682 0 .162-.54 1.21-1.2 2.329-.66 1.119-1.2 2.411-1.2 2.87 0 .46-.335 1.397-.744 2.083-2.04 3.418-2.14 17.936-.14 20.346.247.297.575 1.33.729 2.294.154.964.792 2.511 1.418 3.438.625.927 1.137 1.856 1.137 2.065 0 .209.36.706.8 1.104.44.398.8.899.8 1.114 0 .329 2.042 2.911 3.182 4.023 2.583 2.52 6.199 5.242 7.482 5.632.475.144 1.082.525 1.349.846.267.322.751.585 1.076.585.324 0 1.157.248 1.851.552 5.605 2.456 4.325 2.308 18.791 2.172 9.908-.093 13.498-.255 14.172-.64.875-.499 1.715-.655 9.544-1.776 2.006-.287 3.896-.719 4.2-.96.304-.241 1.676-.55 3.048-.686 1.372-.137 2.812-.417 3.2-.623 2.864-1.521 4.361-2.039 5.894-2.039.97 0 1.884-.195 2.031-.433.375-.607 3.661-1.967 4.752-1.967.498 0 1.321-.36 1.828-.8.507-.44 1.337-.8 1.844-.8.506 0 1.803-.52 2.881-1.156 1.077-.635 2.523-1.279 3.213-1.43.689-.152 1.349-.431 1.466-.621.118-.19 1.065-.738 2.105-1.217 1.04-.479 2.161-1.024 2.491-1.212.33-.188 1.5-.811 2.6-1.384 1.1-.574 2.284-1.299 2.631-1.612.348-.312.817-.568 1.043-.568.226 0 1.202-.602 2.168-1.337.967-.735 1.938-1.41 2.158-1.5 1.063-.435 4.6-2.872 4.6-3.17 0-.187.405-.467.9-.623.786-.248 3.494-2.222 5.009-3.651.281-.265 1.348-1.165 2.372-2 8.049-6.567 24.906-24.471 24.921-26.468.001-.138.496-.794 1.1-1.459.604-.664 1.458-1.912 1.898-2.774.44-.862 1.34-2.294 2-3.183 1.492-2.011 3.202-4.808 4.03-6.593.346-.747.886-1.615 1.2-1.929.313-.314.57-.819.57-1.124 0-.305.54-1.47 1.2-2.589.66-1.119 1.2-2.211 1.2-2.425 0-.215.54-1.402 1.2-2.639.66-1.237 1.2-2.455 1.2-2.708 0-.252.35-1.144.777-1.982.427-.838.891-2.044 1.031-2.68.139-.636.42-1.26.623-1.385.203-.126.375-.533.383-.905.007-.372.361-1.396.786-2.276.425-.88.779-2.011.786-2.513.008-.502.284-1.559.614-2.349.33-.789.601-1.729.602-2.087.002-.358.257-1.137.567-1.731.309-.594.69-2.262.844-3.706.155-1.444.43-2.717.611-2.829.181-.112.435-1.054.564-2.094.129-1.04.511-3.781.848-6.091.393-2.689.569-6.214.489-9.8l-.125-5.6-1-.107c-.55-.058-1.63-.274-2.4-.48-.77-.205-14.188-.478-29.818-.607l-28.417-.233-.809.914M379.2 391.849c0 .531.109.559.6.151.33-.274.6-.566.6-.649 0-.083-.27-.151-.6-.151-.33 0-.6.292-.6.649" fill="#fcfafa"/><path d="M43.6.4c0 .22-.63.4-1.4.4-.978 0-1.4.181-1.4.6 0 .468-.537.6-2.437.6-2.051 0-2.469.119-2.635.754-.129.494-.447.688-.926.563-.412-.108-1.091.172-1.565.646-.46.46-1.293.837-1.85.837-.556 0-1.116.27-1.242.6-.127.33-.678.6-1.225.6-.647 0-1.066.27-1.197.772-.124.477-.426.687-.786.548-.371-.142-.666.087-.808.628-.122.469-.376.852-.563.852-.188 0-.251.234-.142.519.382.996-1.654 2.415-3.061 2.134-1.488-.298-5.262 2.6-8.195 6.293-.897 1.129-1.931 2.3-2.297 2.601-.485.398-.608.941-.455 2 .217 1.501-1.394 3.459-2.017 2.451-.138-.222.032-.512.376-.644s.625-.565.625-.963c0-.399.225-.815.5-.926.299-.121.218-.215-.2-.233-.444-.02-.7.261-.7.768 0 .444-.267.8-.6.8-.395 0-.6.395-.6 1.153 0 .817-.233 1.215-.8 1.363-.44.115-.786.451-.768.747.023.404.081.413.233.037.277-.688 1.2-.629 1.477.094.129.336-.074.755-.467.966-.382.204-.733.835-.78 1.401C7.545 31.175 5.2 32.903 5.2 31.2c0-.444.267-.8.6-.8.33 0 .6-.301.6-.669 0-.367.271-.967.602-1.333.536-.593.534-.665-.024-.665-.363 0-.718.465-.846 1.108-.122.609-.488 1.21-.813 1.335-.461.177-.562.822-.455 2.925L5 35.8l-1.137.017c-1.567.022-2.002 1.015-1.761 4.018.219 2.724.071 3.207-.765 2.513-.434-.361-.537-.137-.537 1.17 0 .917-.216 1.703-.5 1.818-.359.146-.375.296-.056.534.801.595 1.071 3.958.374 4.655-.98.98-.941 300.066.039 300.442.801.307.506 5.331-.349 5.935-.404.285-.406.4-.008.562.275.111.5.466.5.787 0 .334.299.534.7.467.556-.094.7.171.7 1.282 0 .83-.185 1.365-.455 1.315-.34-.064-.341.158-.005.87.304.644.598.833.902.58.823-.683 1.404.606 1.108 2.457-.24 1.503-.191 1.679.403 1.451.843-.323 1.354.783.673 1.454-.37.365-.611.296-1.053-.303-.315-.428-.573-.595-.573-.373 0 .578 1.688 1.949 2.4 1.949.442 0 .571.377.491 1.433-.096 1.263-.001 1.429.8 1.4.828-.03.897.119.775 1.668-.111 1.396-.025 1.658.479 1.465 1.028-.395 2.398 1.209 2.088 2.444-.34 1.355.051 2.59.821 2.59.418 0 .523.243.346.8-.201.634-.072.8.622.8.739 0 .797-.095.37-.61-.278-.335-.366-.74-.194-.9.171-.159.392-.065.49.21.098.275.524.5.945.5.422 0 .767.264.767.586 0 .323.55 1.149 1.221 1.836 1.63 1.667 1.326 2.364-.327.748-1.187-1.16-1.294-1.195-1.294-.417 0 .576.252.847.787.847.561 0 .716.186.54.645-.213.555-.015.606 1.413.365 1.36-.23 1.66-.167 1.66.347 0 .345.675.977 1.5 1.405.825.429 1.86 1.332 2.3 2.007.44.676.935 1.229 1.1 1.23.165 0 .3.271.3.601 0 .731-.467.772-1.144.1-.403-.401-.453-.368-.251.164.313.821 1.973 1.278 2.903.8.871-.448 1.692-.171 1.692.569 0 .312.201.567.447.567.249 0 .354.353.237.8-.153.584-.012.8.52.8.401 0 .82.225.931.5.161.4.208.4.233 0 .038-.591 2.432-.69 2.432-.1 0 .22.435.4.967.4 1.381 0 2.233.398 2.233 1.043 0 .306.201.557.447.557.249 0 .354.353.237.8-.165.63-.012.8.72.8.511 0 1.021.225 1.132.5.152.374.287.383.534.037.595-.831 3.286-1.118 3.569-.381.226.59 13.479.644 159.204.644H359.6l.812-.812c.678-.678 1.127-.771 2.718-.56 1.48.197 2.023.111 2.436-.387.293-.353.858-.641 1.256-.641s.838-.36.978-.8c.14-.44.596-.8 1.013-.8.418 0 1.351-.257 2.073-.571.723-.314 1.584-.681 1.914-.815 1.35-.551 2.49-1.364 3.065-2.186.57-.813.674-.829 1.559-.249 1.252.82 1.776.784 1.776-.123 0-1.558 10.053-12.332 11.39-12.208.317.029.604-.591.739-1.598.234-1.741 1.8-3.444 3.171-3.448.758-.002.899-.668.33-1.566-.594-.94 1.131-4.036 2.25-4.036 1.024 0 1.089-.137.542-1.158-.258-.483-.195-1.059.2-1.82.318-.612.58-1.588.583-2.168.009-1.67.441-2.854 1.042-2.854 1.048 0 .802-319.652-.247-320.307-.611-.382-.8-.933-.8-2.332 0-1.416-.204-1.998-.897-2.559-.882-.715-.884-.738-.138-1.564.749-.827.747-.838-.123-.838-.631 0-1.05-.4-1.468-1.4-.322-.77-.762-1.4-.979-1.4-.217 0-.395-.448-.395-.997 0-.58-.489-1.464-1.171-2.115-.644-.616-1.294-1.608-1.444-2.204-.149-.596-.41-1.084-.58-1.084-.169 0-1.004-1.029-1.856-2.288-1.702-2.514-5.509-6.541-6.872-7.271-.477-.255-.979-.909-1.116-1.453-.18-.719-.518-.988-1.24-.988-1.2 0-3.309-1.887-3.353-2.999-.017-.44-.122-.576-.233-.301-.282.698-1.712.626-1.99-.1-.127-.33-.558-.6-.959-.6-.401 0-.967-.235-1.257-.522a4.204 4.204 0 00-1.229-.788c-.431-.163-.7-.685-.7-1.357 0-.85-.107-.986-.48-.613-.651.651-2.516.607-3.08-.072-.252-.303-.994-.659-1.649-.79-.944-.189-1.191-.447-1.191-1.248 0-1.164-.219-1.248-1.057-.41-1.236 1.236-3.337.495-3.349-1.18-.005-.633-.087-.692-.361-.259-.583.921-5.256.64-6.097-.366C352.203-.322 50.423-.48 49.307.636c-.681.681-4.169.468-4.44-.272C44.685-.131 43.6-.1 43.6.4m-.9 1.3c-.252.757-1.5.864-1.5.129 0-.371.342-.629.833-.629.489 0 .765.207.667.5m-4.398 1.4c.093.282-.166.5-.592.5-.416 0-1.106.264-1.534.587-.887.671-2.576.811-2.576.213 0-.22.444-.4.986-.4.586 0 1.165-.334 1.427-.824.478-.893 2.003-.944 2.289-.076M32 5.773c0 .315-.36.687-.8.827-.44.14-.8.422-.8.627 0 .205-.326.373-.724.373-.397 0-1.072.264-1.5.587-1.403 1.062-1.863.639-.638-.587.66-.66 1.574-1.2 2.031-1.2.472 0 .831-.259.831-.6 0-.333.356-.6.8-.6.44 0 .8.258.8.573M23.345 9.4c-.127.33-.481.6-.788.6-.306 0-.557.296-.557.658 0 .499.242.398 1-.42.994-1.073 1.194-1.438.787-1.438-.116 0-.316.27-.442.6M18.4 15.2c0 .22-.159.4-.353.4-.195 0-.451.373-.571.83-.119.456-.59.927-1.046 1.046-.457.12-.83.376-.83.571 0 .194-.298.353-.662.353-.616 0-.616-.051 0-.731.364-.403.662-.933.662-1.179 0-.245.495-.707 1.1-1.026 1.368-.72 1.7-.772 1.7-.264M3.6 37.733c0 .563-.238.934-.6.934-.603 0-.832-1.102-.333-1.6.532-.533.933-.247.933.666M210.145 60.2c.18.471.995.6 3.793.6 2.68 0 3.688.149 4.062.6.274.33.853.6 1.286.6.452 0 .878.341.998.8.166.635.551.802 1.863.811 1.296.009 1.905.268 2.82 1.2.641.654 1.408 1.189 1.704 1.189.295 0 .845.36 1.222.8.377.44.846.8 1.043.8.517 0 3.464 3.023 3.464 3.553 0 .246.2.447.444.447.664 0 2.341 1.713 2.349 2.4.004.33.637 1.308 1.407 2.173s1.4 1.97 1.4 2.457c0 .486.27.988.6 1.115.344.132.6.729.6 1.4 0 .67.256 1.268.6 1.4.381.146.6.76.6 1.679 0 .844.334 1.875.8 2.467 1.101 1.399 1.238 16.414.16 17.491-.351.352-.737 1.371-.857 2.264-.12.892-.462 1.717-.76 1.831-.299.115-.543.735-.543 1.378 0 .671-.256 1.268-.6 1.4-.33.127-.6.716-.6 1.309 0 .708-.482 1.546-1.4 2.436-.77.746-1.4 1.616-1.4 1.933 0 .626-1.806 2.467-2.421 2.467-.208 0-.379.27-.379.6 0 .33-.27.6-.6.6-.33 0-.603.225-.607.5-.008.61-1.735 2.3-2.349 2.3-.244 0-.444.148-.444.329 0 .359-3.072 2.471-3.593 2.471-.177 0-.425.27-.552.6-.126.33-.693.6-1.259.6-.567 0-1.247.183-1.513.406-2.052 1.723-3.636 2.394-5.652 2.394-1.408 0-2.302.204-2.631.6-.411.495-1.842.6-8.2.6-6.04 0-7.8.118-8.158.549-.287.346-1.619.616-3.609.732-2.226.128-3.35.379-3.822.851-.494.493-1.38.668-3.397.668-2.056 0-2.785.148-2.959.6-.132.344-.729.6-1.4.6-.67 0-1.268.256-1.4.6-.128.335-.723.6-1.348.6-.616 0-1.791.36-2.611.8-.821.44-1.742.8-2.046.8-.303 0-.776.27-1.05.6-.274.33-.907.6-1.406.6-.5 0-1.003.247-1.119.549-.116.303-.865.673-1.664.823-.799.149-1.553.532-1.675.85-.122.318-.453.578-.736.578s-.618.27-.745.6c-.134.351-.734.6-1.442.6-.786 0-1.213.202-1.213.573 0 .315-.36.687-.8.827-.44.14-.8.4-.8.578 0 .179-.54.549-1.2.822-.66.273-1.2.655-1.2.849 0 .193-.186.351-.414.351-.538 0-11.586 10.988-11.586 11.524 0 .225-.142.469-.316.543-.174.073-.924.988-1.668 2.033-.743 1.045-1.501 1.9-1.684 1.9-.183 0-.332.338-.332.751s-.27.975-.6 1.249c-.33.274-.6.706-.6.96s-.36.77-.8 1.147c-.44.377-.8 1.038-.8 1.469 0 .431-.225.928-.5 1.104-.276.176-.916 1.171-1.424 2.211-.508 1.04-1.082 1.989-1.276 2.109-.195.12-.477 1.039-.627 2.041-.15 1.003-.521 1.918-.823 2.034-.303.116-.55.619-.55 1.119 0 .499-.27 1.132-.6 1.406-.372.309-.6 1.188-.6 2.317 0 1.088-.251 2.098-.625 2.51-.343.38-.73 1.715-.859 2.967-.141 1.361-.453 2.36-.776 2.484-.394.151-.54 1.11-.54 3.536s-.163 3.492-.6 3.929c-.49.49-.6 1.959-.6 8.032 0 6.938-.053 7.478-.8 8.118-.44.377-.8.915-.8 1.196 0 .281-.336.511-.746.511s-1.204.36-1.763.8c-.673.529-1.623.8-2.805.8-1.101 0-1.979.23-2.286.6-.327.394-1.219.6-2.6.6-1.294 0-2.277.211-2.558.549-.251.303-1.382.673-2.513.823-1.132.15-2.429.533-2.882.85-.454.318-1.608.578-2.565.578-1.013 0-1.99.251-2.339.6-.383.383-1.369.6-2.723.6-1.311 0-2.296.21-2.578.549-.257.311-1.693.671-3.307.83-1.585.156-3.105.534-3.422.851-.34.34-1.371.57-2.556.57-1.1 0-2.398.27-2.911.607-1.704 1.116-22.806.677-22.97-.478-.068-.479-.383-1.086-.7-1.349-.317-.263-.576-.987-.576-1.609 0-.662-.291-1.294-.7-1.522-.584-.327-.723-1.104-.839-4.708-.092-2.858-.329-4.588-.7-5.118-.815-1.164-.824-23.667-.01-24.834.302-.434.624-2.114.715-3.733.122-2.18.343-3.073.85-3.444.559-.409.684-1.168.684-4.169 0-2.892.127-3.717.6-3.898.408-.157.6-.796.6-2s.192-1.844.6-2c.431-.166.6-.84.6-2.392 0-1.666.183-2.318.8-2.846.562-.481.8-1.18.8-2.347 0-.989.243-1.864.6-2.16.33-.274.6-.853.6-1.287 0-.434.259-1.267.576-1.851.317-.584.687-1.746.822-2.583.135-.837.506-1.621.824-1.743.322-.123.578-.74.578-1.391 0-.671.256-1.268.6-1.4.365-.14.6-.746.6-1.545 0-.799.235-1.405.6-1.545.33-.126.6-.597.6-1.046 0-.449.36-1.125.8-1.502.44-.377.8-1.095.8-1.596 0-.543.242-.911.6-.911.417 0 .6-.419.6-1.371 0-.755.27-1.642.6-1.972.33-.33.6-.791.6-1.025 0-.234.36-.65.8-.925.44-.275.8-.912.8-1.416 0-.504.27-1.02.6-1.146.33-.127.6-.561.6-.964 0-.404.191-.852.425-.996.233-.145.589-.695.79-1.224.201-.528.64-.961.975-.961.4 0 .61-.382.61-1.111 0-.707.401-1.471 1.103-2.1.607-.544 1.323-1.484 1.591-2.089.269-.605.673-1.1.897-1.1.225 0 .409-.36.409-.8 0-.444.267-.8.6-.8.33 0 .6-.27.6-.6 0-.619.342-1.08 2.647-3.567.744-.803 1.359-1.589 1.366-1.746.007-.158.637-.908 1.4-1.668.763-.759 1.387-1.587 1.387-1.84 0-.253.9-1.289 2-2.302 1.1-1.013 2-1.961 2-2.105 0-.343 5.829-6.172 6.172-6.172.144 0 1.092-.9 2.105-2s2.04-2.006 2.283-2.013c.599-.017 2.64-1.847 2.64-2.368 0-.23.27-.419.6-.419.675 0 2.2-1.387 2.2-2 0-.22.26-.4.578-.4.317 0 1.262-.629 2.1-1.398.837-.769 1.657-1.399 1.822-1.4.165-.001.66-.362 1.1-.802.44-.44 1.115-.808 1.5-.817.385-.009 1.142-.549 1.681-1.2.66-.795 1.349-1.183 2.1-1.183.657 0 1.119-.217 1.119-.525 0-.717 2.18-2.275 3.184-2.275.459 0 .816-.263.816-.6 0-.37.376-.6.98-.6.539 0 1.124-.225 1.3-.5.599-.936 2.885-2.3 3.855-2.3.532 0 1.191-.27 1.465-.6.274-.33.752-.6 1.062-.6.309 0 .667-.271.794-.602.127-.331.947-.717 1.822-.857.875-.14 1.684-.499 1.799-.798.115-.298.617-.543 1.117-.543.499 0 1.132-.27 1.406-.6.274-.33.886-.6 1.36-.6.474 0 1.17-.36 1.547-.8.475-.555 1.18-.8 2.302-.8 1.068 0 1.694-.204 1.846-.6.127-.33.667-.6 1.2-.6.534 0 1.074-.27 1.2-.6.162-.42.817-.6 2.188-.6 1.424 0 2.175-.218 2.757-.8.44-.44 1.318-.8 1.951-.8s1.375-.27 1.649-.6c.33-.398 1.226-.6 2.662-.6 1.554 0 2.228-.169 2.393-.6.183-.475 1.023-.6 4.044-.6 2.953 0 3.913-.137 4.258-.609.245-.335 1.165-.722 2.044-.861.88-.138 1.743-.494 1.919-.791.254-.429 2.312-.539 10.051-.539 8.162 0 9.811-.097 10.229-.6.369-.445 1.354-.6 3.806-.6 2.572 0 3.36.134 3.539.6M343.1 202.022l1.3 1.219v4.392c0 3.535-.117 4.437-.6 4.622-.494.19-.6 1.231-.6 5.911 0 4.376-.135 5.859-.587 6.458-.33.436-.593 1.657-.6 2.787-.007 1.106-.261 2.366-.563 2.8-.303.434-.679 1.725-.835 2.869-.157 1.144-.539 2.291-.85 2.549-.346.287-.565 1.229-.565 2.433 0 1.376-.179 2.032-.6 2.193-.365.14-.6.746-.6 1.545 0 .767-.237 1.405-.568 1.532-.345.133-.679 1.105-.85 2.475-.166 1.328-.508 2.343-.832 2.468-.303.116-.55.619-.55 1.119 0 .499-.27 1.132-.6 1.406-.33.274-.6.943-.6 1.486s-.36 1.445-.8 2.005c-.44.559-.8 1.448-.8 1.975 0 .528-.27 1.063-.6 1.189-.33.127-.6.494-.6.816 0 .323-.27.856-.6 1.186-.33.33-.6 1.009-.6 1.51 0 .5-.36 1.235-.8 1.633-.44.398-.8.966-.8 1.262 0 .296-.27.538-.6.538-.401 0-.6.401-.6 1.213 0 .708-.249 1.308-.6 1.442-.33.127-.6.573-.6.992 0 .418-.36 1.069-.8 1.446-.44.377-.8.915-.8 1.196 0 .281-.27.511-.6.511-.365 0-.6.372-.6.951 0 .523-.27 1.175-.6 1.449-.33.274-.6.746-.6 1.049 0 .303-.189.551-.42.551-.232 0-.684.63-1.006 1.4-.322.77-.762 1.4-.979 1.4-.217 0-.395.27-.395.6 0 .33-.168.6-.373.6s-.486.356-.624.79c-.138.435-.87 1.428-1.627 2.207-.757.78-1.376 1.594-1.376 1.81 0 .216-.27.393-.6.393-.33 0-.6.251-.6.558 0 .306-.898 1.521-1.996 2.7-1.097 1.178-2.099 2.457-2.227 2.842-.127.385-.399.7-.604.7-.398 0-1.973 1.452-1.973 1.819 0 .409-5.958 6.181-6.381 6.181-.23 0-.419.27-.419.6 0 .33-.164.6-.364.6-.201 0-1.236.868-2.3 1.93-2.449 2.441-5.48 4.87-6.077 4.87-.253 0-.459.27-.459.6 0 .33-.161.6-.358.6-.196 0-.926.531-1.62 1.18-.695.648-1.647 1.301-2.117 1.45-.47.149-1.427.878-2.127 1.621-.7.742-1.637 1.349-2.082 1.349-.446 0-.914.27-1.041.6-.126.33-.486.6-.8.6-.313 0-.673.27-.8.6-.126.33-.601.6-1.055.6-.454 0-.927.266-1.052.592-.125.325-1.064 1-2.088 1.499-1.023.5-2.004 1.133-2.18 1.409-.176.275-.673.5-1.104.5-.431 0-1.092.36-1.469.8-.377.44-.893.8-1.147.8s-.686.27-.96.6c-.274.33-1.106.6-1.849.6-.901 0-1.351.189-1.351.568 0 .313-.528.684-1.172.826-.645.142-1.387.516-1.649.832-.262.316-.995.574-1.628.574-.756 0-1.151.206-1.151.6 0 .43-.439.6-1.551.6-.891 0-1.763.255-2.049.6-.274.33-.673.6-.886.6-.213 0-.845.36-1.405.8-.622.489-1.623.8-2.575.8-1.017 0-1.639.209-1.789.6-.14.365-.746.6-1.545.6-.799 0-1.405.235-1.545.6-.156.407-.793.6-1.98.6-1.243 0-1.961.232-2.475.8-.581.642-1.232.8-3.291.8-1.748 0-2.757.191-3.166.6-.33.33-1.105.6-1.723.6-.617 0-1.325.244-1.573.543-.301.363-1.944.638-4.948.828-2.997.19-4.708.475-5.13.857-.416.377-1.576.576-3.4.585-1.798.008-3.041.218-3.545.6-1.147.867-20.501.867-21.648 0-.448-.339-1.669-.593-2.889-.6-1.468-.009-2.18-.19-2.335-.594-.126-.328-1.035-.701-2.087-.858-1.154-.171-2.395-.712-3.256-1.419-.765-.628-1.712-1.142-2.104-1.142-.392 0-1.021-.36-1.398-.8-.377-.44-.896-.8-1.153-.8-.258 0-.572-.27-.699-.6-.126-.33-.506-.6-.842-.6a.608.608 0 01-.613-.6c0-.33-.171-.6-.379-.6-.551 0-2.421-1.812-2.421-2.346 0-.25-.27-.454-.6-.454-.33 0-.6-.251-.6-.557 0-.307-.27-.661-.6-.788-.33-.126-.602-.551-.604-.942-.003-.392-.633-1.323-1.4-2.069-.768-.746-1.396-1.669-1.396-2.051 0-.382-.27-.919-.6-1.193-.33-.274-.6-.904-.6-1.4 0-.496-.272-1.127-.604-1.403-.332-.275-.714-1.194-.849-2.041-.136-.848-.494-1.746-.797-1.997-.848-.704-.801-18.452.05-19.159.33-.274.6-.836.6-1.249 0-.413.36-1.111.8-1.551.44-.44.8-1.318.8-1.951s.27-1.375.6-1.649c.33-.274.6-.913.6-1.42 0-1.124.983-2.18 2.029-2.18.592 0 .771-.282.771-1.213 0-.708.249-1.308.6-1.442.33-.127.6-.481.6-.788 0-.306.172-.557.382-.557.496 0 2.418-1.922 2.418-2.418 0-.21.27-.382.6-.382.33 0 .6-.27.6-.6 0-.333.356-.6.8-.6.444 0 .8-.267.8-.6 0-.33.27-.6.6-.6.33 0 .96-.36 1.4-.8.44-.44 1.048-.8 1.351-.8.303 0 .775-.27 1.049-.6.274-.33.746-.6 1.049-.6.303 0 .911-.36 1.351-.8.484-.484 1.333-.8 2.151-.8.743 0 1.575-.27 1.849-.6.281-.338 1.153-.6 2-.6s1.719-.262 2-.6c.416-.501 1.985-.6 9.486-.6 8.382 0 9.056-.054 10.005-.8.805-.633 1.623-.8 3.92-.8 2.212 0 2.958-.143 3.134-.6.142-.371.75-.6 1.593-.6.75 0 1.588-.27 1.862-.6.327-.394 1.219-.6 2.6-.6 1.338 0 2.275-.209 2.578-.574.676-.814 3.497-2.226 4.447-2.226.44 0 .904-.27 1.03-.6.127-.33.588-.6 1.025-.6.436 0 1.251-.36 1.811-.8.559-.44 1.358-.8 1.775-.8.418 0 .863-.27.989-.6.127-.33.652-.6 1.168-.6.515 0 1.081-.231 1.257-.514.664-1.067 4.037-3.486 4.861-3.486.497 0 .859-.253.859-.6 0-.33.27-.6.6-.6.33 0 .6-.27.6-.6 0-.33.167-.6.371-.6.385 0 7.629-6.982 7.629-7.353 0-.369 2.021-2.247 2.418-2.247.21 0 .382-.27.382-.6 0-.33.27-.6.6-.6.33 0 .6-.164.6-.364 0-.553 2.096-3.636 2.471-3.636.181 0 .329-.341.329-.757 0-.417.27-.861.6-.988.33-.126.6-.484.6-.793 0-.31.258-.779.574-1.041.316-.262.687-.989.825-1.615.137-.627.509-1.239.825-1.36.317-.122.576-.475.576-.784 0-.31.27-.788.6-1.062.33-.274.6-.907.6-1.406 0-.5.245-1.002.543-1.117.299-.115.658-.924.798-1.799.14-.875.526-1.695.857-1.822.331-.127.602-.692.602-1.256 0-.564.27-1.129.6-1.255.388-.149.6-.769.6-1.759 0-.841.27-1.799.6-2.129.33-.33.6-1.244.6-2.032 0-.938.276-1.67.8-2.118.569-.487.8-1.18.8-2.396 0-1.254.16-1.711.6-1.711.402 0 .6-.402.6-1.221 0-.671.405-1.93.9-2.797l.9-1.576 31.6-.001 31.6-.001 1.3 1.218M392 378.6c-.408.491-.38.6.151.6.357 0 .649-.27.649-.6 0-.33-.068-.6-.151-.6-.083 0-.375.27-.649.6m-380.006 1.514c.003.173-.378.108-.848-.143-.669-.358-.736-.53-.311-.793.515-.318 1.144.19 1.159.936m376.406 3.59c0 .351-.315.72-.7.82-.656.172-.655.186.013.23.723.047 1.393-.981.936-1.438-.137-.137-.249.037-.249.388M18 387.925c0 .481.205.875.456.875s.701.315 1.001.7c.506.649.525.642.264-.1-.526-1.501-1.721-2.524-1.721-1.475m366.4-.221c0 .351-.315.72-.7.82-.656.172-.655.186.013.23.723.047 1.393-.981.936-1.438-.137-.137-.249.037-.249.388m-354.63 8.648c.293.474 1.83.855 1.83.453 0-.331-.974-.805-1.656-.805-.215 0-.293.158-.174.352" fill="#f4242c"/><path d="M357.2.4c0 .22.45.4 1 .4s1-.18 1-.4c0-.22-.45-.4-1-.4s-1 .18-1 .4m4.4 1c0 .333.356.6.8.6.444 0 .8-.267.8-.6 0-.333-.356-.6-.8-.6-.444 0-.8.267-.8.6m6.8 2.637c0 .496.28.763.8.763.44 0 .8-.249.8-.553 0-.305-.36-.648-.8-.763-.593-.155-.8-.012-.8.553m12 6.763c0 .547.267.8.843.8.604 0 .774-.179.6-.633-.134-.348-.243-.708-.243-.8 0-.092-.27-.167-.6-.167-.333 0-.6.356-.6.8m2.8 2.554c0 .376.329.646.787.646.549 0 .715.189.548.624-.159.417.044.698.613.847.469.122.852.471.852.776 0 .304.18.553.4.553 1.138 0-.182-2.114-2.108-3.376-.976-.64-1.092-.648-1.092-.07m4 4.032c0 .347.347.614.8.614.44 0 .8-.084.8-.186s-.36-.379-.8-.614c-.639-.342-.8-.304-.8.186m1.206 1.327c-.007.579 1.094 1.121 1.485.73.14-.141.043-.469-.218-.73-.364-.364-.474-.34-.479.107-.005.493-.064.49-.394-.02-.271-.42-.39-.446-.394-.087m4.261 5.154c-.507.507-.264.933.533.933.444 0 .8-.267.8-.6 0-.609-.846-.821-1.333-.333m2.533 4.146c0 .433.27.787.6.787.33 0 .6-.251.6-.557 0-.307-.27-.661-.6-.788-.408-.156-.6.022-.6.558m1.6 2.787c0 .516.203.799.5.7a.788.788 0 00.5-.7.788.788 0 00-.5-.7c-.297-.099-.5.184-.5.7m2.4 5.6c0 .66.18 1.2.4 1.2.22 0 .4-.54.4-1.2 0-.66-.18-1.2-.4-1.2-.22 0-.4.54-.4 1.2M202.8 61.178c-.99.173-4.86.447-8.6.608-9.395.406-13.874.964-6.6.823 5.405-.105 16.722-.845 18.169-1.188.721-.171 6.817.6 10.471 1.325.902.178 2.067.624 2.589.989.522.366 1.337.665 1.811.665s1.086.27 1.36.6c.274.33.746.6 1.049.6.303 0 .551.184.551.41 0 .225.466.587 1.035.803 1.683.64 5.452 3.734 7.581 6.225 2.203 2.575 2.252 2.648 4.075 6.076.71 1.335 1.475 2.541 1.7 2.68.225.139.409.8.409 1.469s.26 1.783.578 2.477c2.508 5.471 2.679 13.747.381 18.394-.308.623-.679 1.878-.825 2.789-.146.91-.775 2.461-1.399 3.445S236 112.375 236 112.642c0 2.499-12.631 13.758-15.434 13.758-.325 0-.691.261-.814.581-.129.336-1.007.682-2.087.822-1.026.132-3.289.693-5.03 1.245-2.842.902-4.048 1.027-11.8 1.225-5.79.147-8.899.382-9.435.713-.44.271-1.52.614-2.4.761-3.11.52-7.208 1.61-7.8 2.074-.33.259-1.305.579-2.166.71-.861.132-2.481.682-3.6 1.223a227.01 227.01 0 01-4.434 2.068c-1.32.597-2.49 1.196-2.6 1.332-.11.135-1.249.786-2.531 1.446-1.282.66-2.747 1.578-3.256 2.04-.509.463-1.216.952-1.57 1.088-4.413 1.694-17.841 16.115-21.11 22.672-.274.55-.976 1.72-1.561 2.6-.584.88-1.201 2.042-1.37 2.581-.169.54-.554 1.228-.855 1.529-.301.301-.553.849-.56 1.219-.007.369-.277 1.02-.6 1.447-.323.428-.587 1.182-.587 1.677 0 .495-.165 1.002-.366 1.126-.382.236-1.748 4.247-2.231 6.548-.153.73-.53 1.81-.838 2.4-.308.59-.561 1.871-.563 2.847-.001.975-.27 2.775-.598 4-.328 1.224-.777 4.746-.997 7.826-1.032 14.4-.127 12.809-8.407 14.787-1.21.289-2.707.725-3.326.969-.619.244-1.582.444-2.14.444-.557 0-1.58.257-2.274.57-.693.314-2.16.778-3.26 1.031-5.471 1.26-6.553 1.524-7.825 1.915-1.507.463-4.46 1.088-8.175 1.731-1.32.228-3.21.692-4.2 1.031-1.911.653-20.07 1.292-22.119.778-1.348-.338-2.416-2.665-3.422-7.456-.672-3.201-.801-3.516-.823-2-.042 2.928 2.131 9.034 3.504 9.85 1.097.652 21.063-.037 23.288-.803 1.006-.347 2.986-.81 4.4-1.03 1.415-.22 3.292-.579 4.172-.798.88-.219 3.85-.962 6.6-1.651 2.75-.689 5.63-1.395 6.4-1.571.77-.175 1.94-.512 2.6-.748.66-.237 3.09-.884 5.4-1.439 9.327-2.241 9.182-2.108 9.671-8.893.794-11.013 1.73-18.437 2.703-21.424.232-.711.784-2.553 1.226-4.093.753-2.622 1.331-4.203 2.654-7.26.3-.694.546-1.527.546-1.851 0-.325.263-.809.585-1.076.321-.267.707-.874.858-1.349.151-.475.732-1.584 1.292-2.464.56-.88 1.451-2.41 1.978-3.4.984-1.845 2.491-4.005 4.787-6.859.715-.889 1.3-1.761 1.3-1.936 0-.316 6.683-6.962 9-8.949 2.082-1.786 5.365-4.256 5.657-4.256.154 0 .626-.313 1.048-.695 1.905-1.724 12.13-6.861 16.064-8.07 1.523-.469 2.963-1.006 3.2-1.195.237-.189 1.961-.65 3.831-1.023 1.87-.373 4.429-1.025 5.687-1.448 1.746-.587 3.498-.778 7.4-.809 9.196-.072 19.246-1.614 21.229-3.257.284-.236 1.409-.842 2.5-1.347 3.756-1.74 7.585-5.101 12.938-11.356 5.009-5.852 7.5-20.605 4.692-27.791-.685-1.755-1.246-3.504-1.246-3.886 0-1.394-3.479-7.212-6.342-10.608-1.692-2.006-6.056-5.715-6.725-5.715-.185 0-1.222-.63-2.305-1.4-1.083-.77-2.257-1.4-2.609-1.4-.353 0-1.047-.284-1.543-.632-2.301-1.611-12.229-2.931-16.476-2.19m-22.501 2.18c-.386.293-2.253.658-4.148.812-1.965.159-4.33.639-5.499 1.116-1.129.461-2.772.967-3.652 1.126l-1.6.288 1.569.05c.862.027 2.707-.406 4.099-.962 1.565-.626 3.744-1.107 5.709-1.258 2.698-.208 7.041-1.752 4.823-1.715-.33.006-.916.25-1.301.543m-17.31 3.981c-.434.296-2.049.865-3.589 1.265-1.54.399-3.073.956-3.406 1.238-.333.281-1.323.682-2.2.89-2.016.48-4.463 1.532-4.79 2.062-.138.223-.578.406-.977.406-.607 0-5.135 2.208-13.539 6.6-.841.44-2.088 1.205-2.771 1.7-.682.495-1.383.9-1.557.9-.419 0-3.224 1.892-4.874 3.288-.723.612-1.487 1.112-1.699 1.112-.402 0-4.11 2.56-5.213 3.6-1.33 1.253-3.024 2.626-4.374 3.545-.77.524-1.544 1.201-1.72 1.504-.176.303-.491.551-.7.551-.209 0-1.347.945-2.53 2.1a456.94 456.94 0 01-4.299 4.134c-3.287 3.107-9.872 10.484-12.25 13.72-.385.525-1.202 1.515-1.814 2.2-2.077 2.325-9.63 14.033-11.9 18.446-.906 1.76-1.883 3.65-2.172 4.2-2.121 4.032-5.815 12.591-5.815 13.472 0 .292-.36 1.203-.8 2.024-.44.82-.804 1.765-.808 2.098-.005.333-.476 1.866-1.047 3.406s-1.108 3.43-1.193 4.2c-.103.937.118.54.669-1.2.452-1.43 1.025-2.96 1.272-3.4.248-.44.592-1.686.765-2.768.173-1.083.487-2.074.697-2.204.21-.13.514-.762.675-1.405.161-.643.535-1.632.829-2.196.295-.565.537-1.32.539-1.678.001-.358.272-.875.602-1.149.33-.274.6-.866.6-1.316 0-.45.63-1.964 1.4-3.365.77-1.4 1.4-2.797 1.4-3.102 0-.306.432-1.069.961-1.697.528-.628 1.165-1.902 1.415-2.831s.616-1.689.812-1.689c.197 0 .478-.377.624-.838.146-.46.788-1.611 1.427-2.558.638-.946 1.161-1.893 1.161-2.104 0-.212.63-1.21 1.4-2.218.77-1.009 1.4-2.025 1.4-2.258 0-.233.184-.424.409-.424.224 0 .626-.495.891-1.1.266-.605.584-1.19.707-1.3.122-.11.797-1.081 1.5-2.157s1.641-2.211 2.085-2.523c.445-.311.808-.824.808-1.139 0-.316.36-.799.8-1.074.44-.275.8-.659.8-.855 0-1.006 14.611-16.652 15.551-16.652.215 0 .74-.444 1.167-.986.725-.922 4.653-4.214 5.028-4.214.093 0 1.133-.897 2.312-1.993 1.178-1.096 2.275-1.996 2.439-2 .163-.004 1.121-.637 2.13-1.407s2.017-1.4 2.24-1.4c.222 0 .893-.46 1.489-1.023 1.065-1.005 2.056-1.653 4.044-2.644.55-.274 1.63-.977 2.4-1.562.77-.585 1.85-1.202 2.4-1.372.55-.169 1.09-.429 1.2-.579.11-.149 2.238-1.294 4.729-2.544 2.491-1.249 4.916-2.542 5.389-2.874.473-.331 1.338-.602 1.922-.602.584 0 1.286-.27 1.56-.6.274-.33.701-.601.949-.602.248-.002.934-.255 1.524-.563.59-.308 1.613-.678 2.272-.823.66-.145 1.414-.522 1.676-.838.262-.316.988-.574 1.613-.574 1.086 0 4.002-.98 6.566-2.207.947-.454 1.029-.577.389-.584-.446-.005-1.166.233-1.6.53M66.083 169.223c-.285.922-.444 1.749-.354 1.839.284.284 1.148-2.169 1.006-2.857-.074-.362-.368.096-.652 1.018m-1.392 6.377c-.39 2.31-.908 4.74-1.15 5.4-.243.66-.512 1.83-.598 2.6-.115 1.023.054.754.626-1 1.114-3.415 2.134-8.591 1.97-10-.086-.743-.409.401-.848 3m-2.393 18.1c-.124 3.795-.092 9.51.072 12.7.257 5.03.305 4.115.363-6.9.074-14.086-.092-16.299-.435-5.8m217.483 8.213c-1.127.945-1.964 2.592-2.995 5.887-.481 1.54-1.125 3.391-1.43 4.114-.729 1.723-.719 3.081.012 1.486.571-1.249 1.635-4.33 2.21-6.4 1.522-5.481 1.24-5.366 13.446-5.5l10.376-.114-10.4-.08c-9.316-.071-10.485-.008-11.219.607m40.419.109c10.12.14 19.21.418 20.2.617l1.8.361.125 5.6c.08 3.586-.096 7.111-.489 9.8-.337 2.31-.719 5.051-.848 6.091s-.383 1.982-.564 2.094c-.181.112-.456 1.385-.611 2.829-.154 1.444-.535 3.112-.844 3.706-.31.594-.565 1.373-.567 1.731-.001.358-.272 1.298-.602 2.087-.33.79-.606 1.847-.614 2.349-.007.502-.361 1.633-.786 2.513-.425.88-.779 1.904-.786 2.276-.008.372-.18.779-.383.905-.203.125-.484.749-.623 1.385-.14.636-.604 1.842-1.031 2.68-.427.838-.777 1.73-.777 1.982 0 .253-.54 1.471-1.2 2.708-.66 1.237-1.2 2.424-1.2 2.639 0 .214-.54 1.306-1.2 2.425-.66 1.119-1.2 2.284-1.2 2.589 0 .305-.257.81-.57 1.124-.314.314-.854 1.182-1.2 1.929-.828 1.785-2.538 4.582-4.03 6.593-.66.889-1.56 2.321-2 3.183-.44.862-1.294 2.11-1.898 2.774-.604.665-1.099 1.321-1.1 1.459-.015 1.997-16.872 19.901-24.921 26.468-1.024.835-2.091 1.735-2.372 2-1.515 1.429-4.223 3.403-5.009 3.651-.495.156-.9.436-.9.623 0 .298-3.537 2.735-4.6 3.17-.22.09-1.191.765-2.158 1.5-.966.735-1.942 1.337-2.168 1.337-.226 0-.695.256-1.043.568-.347.313-1.531 1.038-2.631 1.612-1.1.573-2.27 1.196-2.6 1.384-.33.188-1.451.733-2.491 1.212s-1.987 1.027-2.105 1.217c-.117.19-.777.469-1.466.621-.69.151-2.136.795-3.213 1.43-1.078.636-2.375 1.156-2.881 1.156-.507 0-1.337.36-1.844.8-.507.44-1.33.8-1.828.8-1.091 0-4.377 1.36-4.752 1.967-.147.238-1.061.433-2.031.433-1.533 0-3.03.518-5.894 2.039-.388.206-1.828.486-3.2.623-1.372.136-2.744.445-3.048.686-.304.241-2.194.673-4.2.96-7.829 1.121-8.669 1.277-9.544 1.776-.674.385-4.264.547-14.172.64-14.466.136-13.186.284-18.791-2.172-.694-.304-1.527-.552-1.851-.552-.325 0-.809-.263-1.076-.585-.267-.321-.874-.702-1.349-.846-1.291-.393-4.843-3.074-7.546-5.696-1.07-1.038-3.118-3.639-3.118-3.959 0-.215-.36-.716-.8-1.114-.44-.398-.8-.895-.8-1.104 0-.209-.512-1.138-1.137-2.065-.626-.927-1.264-2.474-1.418-3.438-.154-.964-.482-1.997-.729-2.294-2-2.41-1.9-16.928.14-20.346.409-.686.744-1.623.744-2.083 0-.459.54-1.751 1.2-2.87.66-1.119 1.2-2.167 1.2-2.329 0-.161.526-.918 1.169-1.682l2.915-3.464c1.618-1.925 3.327-3.451 5.517-4.925.49-.33 1.304-.915 1.808-1.3.505-.385 1.13-.7 1.391-.7.261 0 .931-.36 1.491-.8.559-.44 1.265-.8 1.568-.8.304 0 .864-.159 1.246-.353 3.508-1.783 5.131-2.066 13.127-2.296 7.477-.215 11.271-.698 16.968-2.16 1.259-.323 1.198-.343-.6-.195-1.1.091-2.99.457-4.2.814-1.521.448-4.937.752-11.073.986-9.719.369-13.578 1.232-18.327 4.099-5.385 3.25-9.225 6.571-11.222 9.705-.42.66-1.061 1.42-1.423 1.689-.363.269-.96 1.169-1.327 2-.368.831-.926 1.961-1.242 2.511-.316.55-.577 1.3-.58 1.667-.003.367-.501 1.627-1.106 2.8-1.95 3.781-1.74 18.03.302 20.533.18.22.453 1.12.607 2 .154.88.571 2.05.926 2.6.355.55.981 1.63 1.39 2.4.41.77.973 1.581 1.252 1.802.279.22.621.762.761 1.203.659 2.077 9.61 9.795 11.359 9.795.276 0 .503.147.503.326 0 .18 1.035.735 2.3 1.233 1.265.498 3.015 1.207 3.889 1.574 2.16.907 29.666 1.018 30.744.123.36-.299 2.142-.708 3.961-.909 3.921-.433 9.105-1.457 9.69-1.913.229-.178 1.501-.432 2.827-.564 1.375-.136 3.562-.761 5.091-1.455 1.474-.668 3.248-1.215 3.942-1.215s1.823-.344 2.509-.763c.686-.42 2.057-.975 3.047-1.233.99-.257 2.395-.814 3.123-1.236.727-.422 1.592-.768 1.921-.768.328 0 1.815-.63 3.303-1.4 1.488-.77 2.998-1.4 3.355-1.4.358 0 .765-.185.905-.411.139-.226 1.815-1.166 3.723-2.09 1.909-.924 4.216-2.179 5.128-2.789.912-.611 1.843-1.11 2.069-1.11.227 0 .92-.426 1.542-.947.622-.521 2.391-1.712 3.931-2.648 1.54-.936 3.07-1.958 3.4-2.27.33-.313 1.59-1.288 2.8-2.169 2.894-2.105 4.831-3.692 7.765-6.366 1.329-1.21 3.05-2.737 3.825-3.393 1.873-1.585 6.435-6.247 9.41-9.618 1.32-1.496 2.685-3.005 3.033-3.354.928-.931 4.869-5.749 5.567-6.805.33-.5 1.23-1.78 2-2.844 1.576-2.177 4.145-6.166 5.507-8.551.499-.873 1.153-1.868 1.453-2.211.3-.343.678-1.074.84-1.624.162-.55.535-1.275.829-1.611.293-.336 1-1.596 1.57-2.8.569-1.204 1.204-2.459 1.41-2.789.655-1.051 2.619-5.67 4.166-9.8.825-2.2 1.741-4.49 2.037-5.089.296-.599.935-2.669 1.419-4.6.485-1.931 1.048-3.724 1.252-3.984.203-.26.542-1.687.752-3.172.21-1.484.628-3.431.928-4.327.97-2.891 1.898-12.483 1.763-18.223l-.126-5.396-1.2-.604c-1.02-.514-4.085-.607-20.4-.621l-19.2-.017 18.4.255M274.031 216.4c-.313.99-1.168 3.109-1.9 4.709-1.496 3.27-1.579 3.595-.742 2.9.325-.269.703-1.095.842-1.835s.504-1.554.811-1.809c.307-.255.558-.72.558-1.034 0-.314.281-1.114.624-1.778.344-.664.569-1.6.5-2.08-.091-.64-.276-.393-.693.927m-4.336 10.075c-2.458 4.772-3.633 6.808-4.402 7.626-.465.495-.997 1.31-1.182 1.811-.721 1.947-10.431 12.533-14.911 16.256-.99.823-1.6 1.436-1.356 1.364 1.853-.551 13.217-12.002 15.649-15.769.271-.419 1.397-2.151 2.503-3.846 1.106-1.696 2.192-3.496 2.413-4 .221-.505.86-1.693 1.421-2.641.561-.949.96-1.905.887-2.125-.073-.22-.533.376-1.022 1.324m-23.357 27.638c-.363.268-1.055.757-1.537 1.087-.482.33-1.434 1.005-2.116 1.5-.682.495-1.387.9-1.566.9-.179 0-1.071.54-1.982 1.2-.912.66-1.874 1.2-2.14 1.2s-1.692.63-3.169 1.4c-1.477.77-2.921 1.4-3.208 1.4-.287 0-.739.261-1.004.58-.265.32-1.322.706-2.349.859-1.027.153-2.677.65-3.667 1.105-.99.454-2.34.944-3 1.088l-1.2.263 1.369.052c.752.029 1.652-.191 2-.489.347-.298 1.965-.881 3.597-1.294 1.631-.414 3.184-.971 3.451-1.238.268-.268 1.003-.614 1.635-.77 1.367-.338 4.061-1.691 4.374-2.197.121-.198.633-.359 1.136-.359.504 0 1.29-.324 1.747-.721.457-.396 1.519-1.071 2.361-1.5.841-.428 1.641-.93 1.776-1.115.236-.322 1.139-.889 3.032-1.902.483-.259.972-.716 1.087-1.016.252-.655.22-.657-.627-.033M395.2 373.387c0 .358.235.498.6.358.33-.127.6-.391.6-.588 0-.196-.27-.357-.6-.357-.33 0-.6.264-.6.587m-32 26.213c0 .22.54.4 1.2.4.66 0 1.2-.18 1.2-.4 0-.22-.54-.4-1.2-.4-.66 0-1.2.18-1.2.4" fill="#fc9494"/><path d="M45.2.4c0 .22.27.4.6.4.33 0 .6-.18.6-.4 0-.22-.27-.4-.6-.4-.33 0-.6.18-.6.4M354 .4c0 .22.54.4 1.2.4.66 0 1.2-.18 1.2-.4 0-.22-.54-.4-1.2-.4-.66 0-1.2.18-1.2.4m6.446 1.1c-.035.693.161.889.854.854.638-.033.703-.099.225-.225-.372-.098-.756-.482-.854-.854-.126-.478-.192-.413-.225.225m7.68 2.469c.041.532.344 1.041.674 1.13.396.107.446.05.146-.169-.249-.181-.553-.69-.674-1.13-.173-.631-.204-.595-.146.169m2.72 1.344c-.055.857 1.036 1.365 1.639.762.307-.307.196-.369-.391-.216-.575.151-.878-.006-1.011-.522-.176-.68-.194-.682-.237-.024M373.6 6.8c0 .571.257.792.9.772.859-.027.863-.044.1-.372-.44-.189-.575-.356-.3-.372.716-.04.621-.828-.1-.828-.333 0-.6.356-.6.8m4.294 2.239c-.389.389.145 1.361.749 1.361.306 0 .557.27.557.6 0 .879.672.732.916-.2.136-.52.012-.8-.353-.8-.31 0-.563-.27-.563-.6 0-.592-.842-.825-1.306-.361m3.319 2.636c-.007.152.518.857 1.167 1.568.98 1.073 1.142 1.145.954.424-.125-.477-.411-.867-.637-.867-.225 0-.648-.315-.94-.7-.292-.385-.537-.576-.544-.425m4.97 5.389c.782.805 1.541 1.345 1.686 1.2.146-.145.054-.264-.202-.264-.257 0-.467-.27-.467-.6 0-.33-.251-.6-.557-.6-.307 0-.661-.27-.788-.6-.126-.33-.424-.6-.662-.6-.237 0 .208.659.99 1.464m5.188 5.676c0 .503.221.683.687.561.392-.103.594-.421.472-.74-.314-.817-1.159-.687-1.159.179m5.029 6.06c0 .22-.27.4-.6.4-.83 0-.755.666.1.89.51.133.716-.072.758-.754.031-.515-.014-.936-.1-.936-.087 0-.158.18-.158.4m1.6 6.013c0 .433.168.787.373.787.206 0 .449.495.54 1.1.121.795.184.64.227-.557.041-1.146-.125-1.729-.54-1.888-.408-.156-.6.022-.6.558M399.2 39c0 .33.18.6.4.6.22 0 .4-.27.4-.6 0-.33-.18-.6-.4-.6-.22 0-.4.27-.4.6M204.537 60.306c-.254.162.673.294 2.061.294 1.387 0 2.44-.135 2.339-.3-.237-.385-3.791-.381-4.4.006M189.1 61.495c1.155.081 3.045.081 4.2 0 1.155-.081.21-.147-2.1-.147s-3.255.066-2.1.147m24.405-.012c.497.096 1.217.092 1.6-.008.382-.1-.025-.179-.905-.174-.88.004-1.193.086-.695.182M184 62c-1.357.286-1.363.295-.2.307.66.008 1.65-.131 2.2-.307 1.312-.42-.004-.42-2 0m-7.7 1.882a5.661 5.661 0 001.8 0c.495-.095.09-.173-.9-.173s-1.395.078-.9.173m-5.324.74c-.764.612-.763.616.024.254.44-.202 1.07-.468 1.4-.59.518-.193.515-.227-.024-.254-.342-.018-.972.248-1.4.59M167.2 65.82c-1.181.338-1.456.516-.8.517.55.001 1.63-.24 2.4-.537 1.756-.676.789-.664-1.6.02M158 68.4c-.795.514.204.514 1.4 0l.8-.344-.8-.022c-.44-.012-1.07.153-1.4.366m71.401.734c.659.734 1.559 1.521 1.999 1.749.44.228.62.257.4.065l-1.999-1.749-1.599-1.399 1.199 1.334m3.782 3.966c.743.935 1.423 1.7 1.511 1.7.283 0-1.431-2.251-2.159-2.836-.387-.31-.095.201.648 1.136m-102.142 8.127c-.858.645-1.398 1.168-1.2 1.162.197-.006 1.066-.546 1.93-1.2.864-.654 1.404-1.177 1.2-1.162-.204.015-1.073.555-1.93 1.2M239.212 84c0 .33.175.87.388 1.2.345.533.388.533.388 0 0-.33-.175-.87-.388-1.2-.345-.533-.388-.533-.388 0m1.435 3.986c.169.323.432 1.223.584 2 .276 1.406.277 1.407.323.19.025-.672-.237-1.572-.584-2-.346-.427-.491-.512-.323-.19M116.37 91.5l-.97 1.1 1.2-1c.66-.55 1.275-1.045 1.367-1.1.091-.055-.012-.1-.231-.1-.218 0-.833.495-1.366 1.1m-6.255 5.2c-1.978 1.901-2.04 1.994-.354.537 2.863-2.477 3.242-2.837 2.979-2.837-.127 0-1.308 1.035-2.625 2.3m-4.545 4l-.97 1.1 1.2-1c.66-.55 1.275-1.045 1.367-1.1.091-.055-.012-.1-.231-.1-.218 0-.833.495-1.366 1.1m135.545.71a39.61 39.61 0 01-.495 1.59c-.149.44.022.294.38-.324s.581-1.334.495-1.59c-.085-.256-.256-.11-.38.324M103.6 102.513c-.33.268-.863.847-1.185 1.287-.321.44-.006.271.7-.375 1.152-1.053 1.485-1.45 1.185-1.412-.055.007-.37.232-.7.5m-3.199 3.285c-.515.55-.862 1.066-.769 1.148.092.082.587-.368 1.098-.999 1.146-1.412.944-1.503-.329-.149m138.89 1.102c-.681 1.884-.587 2.394.135.73.327-.753.54-1.531.475-1.728-.066-.197-.341.252-.61.998m-142.083 2.492c-.967.985-1.679 1.849-1.583 1.921.096.071.965-.735 1.932-1.792 2.214-2.421 1.984-2.507-.349-.129M236.9 112.5c-.43 1.175-.42 1.226.112.524.509-.672.809-1.824.476-1.824-.062 0-.327.585-.588 1.3m-3.483 4.778c-.932.977-.998 1.14-.309.771.481-.257 1.064-.823 1.297-1.258.564-1.055.412-.98-.988.487m-1.619 1.925c-.137.222-1.502 1.482-3.034 2.8-1.531 1.319-2.645 2.397-2.474 2.396.397 0 6.403-5.554 6.034-5.58-.152-.01-.389.163-.526.384m-143.643 1.409c-.365.557-.591 1.086-.502 1.175.089.089.465-.367.836-1.013.825-1.438.58-1.557-.334-.162m-2.611 4.088c-1.151 1.389-1.638 2.1-1.44 2.1.11 0 .682-.63 1.269-1.4 1.09-1.429 1.222-1.968.171-.7m130.256 4.316l-2 .54 1.8-.223c.99-.123 2.07-.377 2.4-.566.814-.465.182-.393-2.2.249m-134.824 2.622c-.568.901-.969 1.702-.891 1.781.079.079.628-.658 1.22-1.638 1.35-2.236 1.069-2.358-.329-.143m116.937-.543c1.163.081 2.963.081 4-.002 1.038-.082.087-.148-2.113-.147-2.2.001-3.049.068-1.887.149m-5.867.468c-.339.215.205.269 1.4.141 1.075-.116 2.029-.276 2.121-.357.362-.319-3.002-.112-3.521.216m-3.787 1.111c-.151.151-1.036.398-1.966.55l-1.693.276 1.424.05c1.091.038 3.79-1.08 2.743-1.137-.129-.007-.357.11-.508.261m-9.659 2.74c-.66.303-.93.552-.6.554.33.002 1.05-.254 1.6-.568 1.265-.723.589-.713-1 .014m-100.986 2.16c-.228.425-.414.996-.414 1.268s-.309.869-.687 1.327c-.664.804-.662.809.064.153.413-.374.971-1.319 1.24-2.1.536-1.56.444-1.856-.203-.648m77.086 11.855c-1.495.811-1.404 1.149.1.371.66-.341 1.2-.706 1.2-.81 0-.258-.043-.243-1.3.439m-83.912 2.993c-.242.452-.381 1-.308 1.217.072.218.338-.152.591-.822.526-1.392.368-1.612-.283-.395m72.749 9.478c-.813.969-1.994 2.9-1.775 2.9.1 0 .728-.81 1.396-1.8 1.249-1.85 1.416-2.337.379-1.1m-77.872 7.117c-.67 1.471-.542 1.785.182.448.339-.625.541-1.211.449-1.302-.091-.092-.375.293-.631.854m-1.416 5.198c-.137.358-.233 1.041-.213 1.518.026.614.149.475.423-.477.398-1.384.235-2.198-.21-1.041m-1.435 7.359c-.228.425-.396 1.19-.373 1.7.033.743.099.682.336-.309.162-.679.425-1.444.583-1.7.158-.256.193-.465.078-.465-.116 0-.396.348-.624.774m70.093 2.058c-.271.724-.421 1.388-.332 1.476.285.285 1.08-1.53.95-2.17-.074-.366-.327-.081-.618.694M61.845 191.5c-.136 2.145-.318 5.43-.403 7.3l-.156 3.4.337-3.2c.522-4.95.905-11.4.676-11.4-.113 0-.317 1.755-.454 3.9m68.601 3.367c-.025.367-.15.997-.276 1.4-.218.695-.207.696.227.02.251-.391.376-1.021.276-1.4-.162-.619-.185-.621-.227-.02m155.23 6.232c2.792.068 7.472.069 10.4 0 2.928-.068.644-.124-5.076-.125-5.72 0-8.116.056-5.324.125m-223.762 4.839c.174 5.27.36 5.917.42 1.462.03-2.2-.078-4.208-.24-4.462-.162-.254-.243 1.096-.18 3m281.417 1.462c.002 1.54.074 2.121.161 1.291.087-.83.085-2.09-.003-2.8-.089-.71-.16-.031-.158 1.509M129.2 210.026c0 1.335-.19 2.82-.422 3.3-.408.844-.401.848.2.098.579-.723.948-5.824.422-5.824-.11 0-.2 1.092-.2 2.426m213.709 3.174c0 .99.078 1.395.173.9a5.661 5.661 0 000-1.8c-.095-.495-.173-.09-.173.9m-69.244 2.617c-.256.561-.458 1.237-.449 1.502.008.264.281-.131.606-.88.683-1.574.539-2.149-.157-.622M62.501 217.4c.004.88.086 1.193.182.695.096-.497.092-1.217-.008-1.6-.1-.382-.179.025-.174.905m61.099-.4c-.987.38-1.157.548-.576.57.452.016 1.172-.234 1.6-.557.938-.71.791-.712-1.024-.013m218.86 2.65a32.862 32.862 0 01-.259 2.4l-.198 1.35.421-1.343c.231-.738.348-1.818.258-2.4l-.162-1.057-.06 1.05m-234.26 1.364c-.66.303-.919.558-.576.568.342.01.972-.246 1.4-.569.948-.717.745-.717-.824.001m-5 1.211c-.77.291-1.106.54-.746.552.36.013 1.26-.24 2-.561 1.666-.724.662-.716-1.254.009m-8.7 2.051c.385.1 1.015.1 1.4 0 .385-.101.07-.183-.7-.183s-1.085.082-.7.183m-3.9.738c-1.615.74-.649.741 1.054.002.74-.322 1.076-.577.746-.568-.33.009-1.14.264-1.8.566m-24.838.886c.779.92 16.76 1.445 18.101.594.255-.162-3.5-.239-8.344-.172-8.014.111-8.885.057-9.663-.6L65 225l.762.9m275.078 1.94c-.282.781-.425 1.508-.317 1.617.109.108.413-.458.677-1.257.625-1.894.309-2.21-.36-.36m-1.555 6.573c-.267.427-.484 1.004-.483 1.282.002.278.275-.017.608-.655.693-1.329.601-1.79-.125-.627m-.839 2.854c-.025.367-.15.997-.276 1.4-.218.695-.207.696.227.02.251-.391.376-1.021.276-1.4-.162-.619-.185-.621-.227-.02m-77.537 2.165c-1.306 1.49-1.581 2.086-.541 1.172.792-.695 1.863-2.217 1.546-2.197-.063.004-.515.465-1.005 1.025M257.063 244c-.588.66-.922 1.2-.741 1.2.18 0 .727-.54 1.215-1.2.488-.66.821-1.2.741-1.2-.08 0-.627.54-1.215 1.2m-4.596 4.7l-1.502 1.5 1.417-1.199a134.71 134.71 0 011.798-1.5c.209-.166.247-.301.085-.301-.163 0-.972.675-1.798 1.5m-3.689 3.2l-1.378 1.5 1.5-1.378c.825-.759 1.5-1.434 1.5-1.5 0-.306-.338-.018-1.622 1.378m-24.954 12.713c-.428.323-.599.587-.38.587.218 0 .567-.163.776-.361.209-.199.74-.448 1.18-.554l.8-.192-.8-.034c-.44-.018-1.149.231-1.576.554m-8.124 2.063c.385.1 1.015.1 1.4 0 .385-.101.07-.183-.7-.183s-1.085.082-.7.183m-19.239 1.668c-.517.145 1.823.21 5.2.145 8.426-.162 9.435-.365 1.939-.389-3.41-.011-6.623.098-7.139.244m-11.037 3.069c-.428.323-.597.587-.377.587.22 0 .749-.264 1.177-.587.427-.323.596-.588.376-.588-.22 0-.749.265-1.176.588m136.071 2.006c-.591.98-.992 1.781-.89 1.781.272 0 2.278-3.251 2.11-3.419-.079-.079-.628.658-1.22 1.638m-140.911.892c-1.346 1.206-1.003 1.1.77-.239.635-.48.995-.867.8-.861-.195.006-.901.501-1.57 1.1m-5.197 4.189L173 281l2.5-2.387c2.322-2.218 2.683-2.613 2.387-2.613-.061 0-1.186 1.125-2.5 2.5m139.842 3.754c-.456.58-.824 1.255-.817 1.5.007.245.212.086.456-.354.244-.44.717-1.115 1.05-1.5.333-.385.501-.7.373-.7s-.606.474-1.062 1.054m-3.382 4.147c-.796.881-1.447 1.727-1.447 1.88 0 .154.135.108.301-.101.166-.209.921-1.055 1.679-1.88.757-.825 1.273-1.5 1.145-1.5-.128 0-.883.721-1.678 1.601m-3.869 4.299l-1.378 1.5 1.5-1.378c1.396-1.284 1.684-1.622 1.378-1.622-.066 0-.741.675-1.5 1.5m-2.8 3.2l-1.378 1.5 1.5-1.378c.825-.759 1.5-1.434 1.5-1.5 0-.306-.338-.018-1.622 1.378m-139.82 1.466c-.12.312-.153 1.077-.074 1.7.118.925.18.821.341-.566.202-1.749.113-2.125-.267-1.134M299.97 299.1l-.97 1.1 1.2-1c.66-.55 1.275-1.045 1.367-1.1.091-.055-.012-.1-.231-.1-.218 0-.833.495-1.366 1.1m-4.392 4l-1.378 1.5 1.5-1.378c1.396-1.284 1.684-1.622 1.378-1.622-.066 0-.741.675-1.5 1.5m-5.208 4.4l-.97 1.1 1.2-1c.66-.55 1.275-1.045 1.367-1.1.091-.055-.012-.1-.231-.1-.218 0-.833.495-1.366 1.1m-125.102 1.3c-.018.77.228 1.94.546 2.6.463.962.525 1.001.309.2-.148-.55-.394-1.72-.546-2.6l-.277-1.6-.032 1.4m118.426 3.612c-.719.653-1.157 1.188-.975 1.188.182 0 .849-.54 1.481-1.2 1.47-1.535 1.186-1.528-.506.012m-117.266.988c0 .22.258.85.572 1.4.314.55.572.82.572.6 0-.22-.258-.85-.572-1.4-.314-.55-.572-.82-.572-.6m113.218 1.601c-1.185.735-2.445 1.634-2.8 1.999-.62.635 2.898-1.493 4.554-2.755 1.315-1.002.54-.668-1.754.756M269.6 321c-.278.335-.321.6-.098.6.22 0 .624-.27.898-.6.278-.335.321-.6.098-.6-.22 0-.624.27-.898.6m-93.2 8.4c.746.77 1.447 1.4 1.557 1.4.11 0-.411-.63-1.157-1.4-.746-.77-1.447-1.4-1.557-1.4-.11 0 .411.63 1.157 1.4m75.6-.375c-.966.366-1.145.537-.576.552.452.013 1.172-.241 1.6-.564.911-.69.829-.689-1.024.012m-8 2.593c-.438.297-.276.334.6.138 1.471-.329 1.79-.558.767-.55-.422.003-1.037.189-1.367.412m-3.4 1.396c-.66.303-.919.558-.576.568.342.01.972-.246 1.4-.569.948-.717.745-.717-.824.001m-5.976 1.199c-.999.755-.629.75.83-.011.63-.328.876-.592.546-.587-.33.006-.949.275-1.376.598m-49.2 1.174c.427.323.956.588 1.176.588.22 0 .051-.265-.376-.588-.428-.323-.957-.587-1.177-.587-.22 0-.051.264.377.587m43.776.213l-1.4.295 1.4.046c.77.026 1.67-.128 2-.341.727-.47.233-.47-2 0m-4.9.682a5.661 5.661 0 001.8 0c.495-.095.09-.173-.9-.173s-1.395.078-.9.173m-34.639.736c.363.371.879.602 1.145.513.267-.089-.031-.392-.661-.675-1.072-.48-1.103-.47-.484.162m31.139.015c-.623.346-.765.557-.376.561.342.003.972-.258 1.4-.581.97-.735.313-.721-1.024.02M0 353.8c0 .55.18 1 .4 1 .22 0 .4-.45.4-1s-.18-1-.4-1c-.22 0-.4.45-.4 1m399.2 9.6c0 .33.18.6.4.6.22 0 .4-.27.4-.6 0-.33-.18-.6-.4-.6-.22 0-.4.27-.4.6M2.4 364.8c0 .22.27.4.6.4.33 0 .6-.18.6-.4 0-.22-.27-.4-.6-.4-.33 0-.6.18-.6.4m1.455 3c.127.33.391.6.588.6.196 0 .357-.27.357-.6 0-.33-.264-.6-.587-.6-.358 0-.498.235-.358.6m392.637 2.675c.247.742 1.108.865 1.108.158a.635.635 0 00-.633-.633c-.349 0-.562.214-.475.475M6.6 372.8c-.16.258-.11.65.11.87.266.266.496.243.69-.07.16-.258.11-.65-.11-.87-.266-.266-.496-.243-.69.07m385.8 4.2c0 .33.251.6.557.6.307 0 .661-.27.788-.6.156-.408-.022-.6-.558-.6-.433 0-.787.27-.787.6m-2.571 4.829c-.346.345-.624.84-.617 1.1.007.259.193.162.413-.216.22-.378.71-.868 1.088-1.088.378-.22.475-.406.216-.413-.26-.007-.755.271-1.1.617m-7.468 6.856c.41.162.302.365-.4.754-.927.514-.931.533-.104.547.472.008.954-.238 1.073-.547.242-.632-.05-1.055-.697-1.007-.238.017-.181.131.128.253m-5.961 4.469c0 .575.185.75.617.584.683-.262.599-.999-.142-1.246-.264-.088-.475.206-.475.662m-7.022 3.681c-.461.747.459 1.303 1.283.776.645-.411.65-.444.039-.254-.791.246-.972-.381-.2-.692.308-.124.24-.214-.176-.233-.372-.018-.798.164-.946.403M361.6 399.6c0 .22.27.4.6.4.33 0 .6-.18.6-.4 0-.22-.27-.4-.6-.4-.33 0-.6.18-.6.4" fill="#f46068"/><path d="M360.8 1.4c0 .33.18.6.4.6.22 0 .4-.27.4-.6 0-.33-.18-.6-.4-.6-.22 0-.4.27-.4.6m4.875 1.295c.216 1.119 1.534 1.149 1.479.034-.034-.677-.096-.739-.23-.229-.1.385-.369.7-.596.7-.228 0-.31-.27-.183-.6.126-.33.042-.6-.187-.6s-.356.313-.283.695M371.2 5.4c0 .33.27.6.6.6.33 0 .6-.27.6-.6 0-.33-.27-.6-.6-.6-.33 0-.6.27-.6.6m20.032 17.286c-.044.669 1.443 1.439 1.767.915.137-.221-.107-.401-.542-.401-.435 0-.881-.225-.992-.5-.152-.377-.21-.38-.233-.014M205.7 60.687a8.899 8.899 0 002.2 0c.605-.092.11-.167-1.1-.167-1.21 0-1.705.075-1.1.167m-9 .806c.935.084 2.465.084 3.4 0s.17-.153-1.7-.153c-1.87 0-2.635.069-1.7.153m14.2-.017c.385.1 1.015.1 1.4 0 .385-.101.07-.183-.7-.183s-1.085.082-.7.183m-22.6.417c.935.084 2.465.084 3.4 0s.17-.153-1.7-.153c-1.87 0-2.635.069-1.7.153m-14.795 2.39c.497.096 1.217.092 1.6-.008.382-.1-.025-.179-.905-.174-.88.004-1.193.086-.695.182M241.293 92.4c0 .77.082 1.085.183.7.1-.385.1-1.015 0-1.4-.101-.385-.183-.07-.183.7m.021 6.6c.003 1.1.081 1.503.173.895.092-.609.09-1.509-.005-2-.095-.492-.171.005-.168 1.105m-140.136 6.5L99.8 107l1.5-1.378c1.396-1.284 1.684-1.622 1.378-1.622-.066 0-.741.675-1.5 1.5m-4.203 4.6l-1.175 1.3 1.3-1.175c1.212-1.095 1.484-1.425 1.175-1.425-.069 0-.654.585-1.3 1.3m132.8 10.8l-1.175 1.3 1.3-1.175c.715-.646 1.3-1.231 1.3-1.3 0-.309-.33-.037-1.425 1.175m-23.675 9.791c.825.087 2.175.087 3 0 .825-.086.15-.157-1.5-.157s-2.325.071-1.5.157m-12.6.391a5.661 5.661 0 001.8 0c.495-.095.09-.173-.9-.173s-1.395.078-.9.173m-6.7 1.718c-.824.264-.859.326-.2.354.44.019 1.07-.141 1.4-.354.701-.453.214-.453-1.2 0m-50.1 40.214c-.999 1.336-.869 1.709.146.419.465-.591.78-1.138.7-1.215-.08-.077-.461.282-.846.796M62.501 185.4c.004.88.086 1.193.182.695.096-.497.092-1.217-.008-1.6-.1-.382-.179.025-.174.905m-.848 13.8c-.023 1.65.097 3.217.265 3.481.168.265.246-.815.173-2.4-.189-4.092-.391-4.592-.438-1.081m67.689 5c-.001 1.98.066 2.84.15 1.912.084-.928.085-2.548.003-3.6-.083-1.052-.152-.292-.153 1.688m180.958-2.7c5.115.063 13.485.063 18.6 0 5.115-.064.93-.115-9.3-.115s-14.415.051-9.3.115m32.646 6.3c.001 2.2.068 3.049.149 1.887.081-1.163.081-2.963-.002-4-.082-1.038-.148-.087-.147 2.113m-214.07 2.267c-.042 1.247-.18 2.597-.306 3-.215.685-.201.687.22.033.251-.391.386-1.718.306-3l-.145-2.3-.075 2.267M62.52 214c0 1.21.075 1.705.167 1.1a8.899 8.899 0 000-2.2c-.092-.605-.167-.11-.167 1.1m279.981 3.4c.004.88.086 1.193.182.695.096-.497.092-1.217-.008-1.6-.1-.382-.179.025-.174.905m-229.301 2c-.55.314-.82.572-.6.572.22 0 .85-.258 1.4-.572.55-.314.82-.572.6-.572-.22 0-.85.258-1.4.572m-28.7 6.476c.385.1 1.015.1 1.4 0 .385-.101.07-.183-.7-.183s-1.085.082-.7.183m-12.4.422c2.145.072 5.655.072 7.8 0 2.145-.072.39-.131-3.9-.131s-6.045.059-3.9.131M252.175 249.3L251 250.6l1.3-1.175c.715-.646 1.3-1.231 1.3-1.3 0-.309-.33-.037-1.425 1.175m73.025 17.9c-.47.66-.764 1.2-.654 1.2.11 0 .584-.54 1.054-1.2.47-.66.764-1.2.654-1.2-.11 0-.584.54-1.054 1.2m-125.082 1.498c1.715.075 4.415.074 6-.001 1.585-.076.182-.138-3.118-.137-3.3.001-4.597.062-2.882.138m-5.618.378c.385.1 1.015.1 1.4 0 .385-.101.07-.183-.7-.183s-1.085.082-.7.183m-19.034 9.685c-1.466 1.519-2.666 2.899-2.666 3.067 0 .168.052.23.115.139.064-.092 1.353-1.472 2.866-3.067 1.513-1.595 2.66-2.9 2.55-2.9-.11 0-1.399 1.242-2.865 2.761M165.354 302.8c0 2.75.064 3.875.142 2.5a53.448 53.448 0 000-5c-.078-1.375-.142-.25-.142 2.5m129.824.3l-1.378 1.5 1.5-1.378c1.396-1.284 1.684-1.622 1.378-1.622-.066 0-.741.675-1.5 1.5M199.9 337.899c2.695.069 7.105.069 9.8 0 2.695-.069.49-.126-4.9-.126-5.39 0-7.595.057-4.9.126M7.878 375.456c-.32.319.041.944.546.944.207 0 .376-.27.376-.6 0-.619-.472-.795-.922-.344" fill="#fc848c"/><path d="M47.6.4c0 .22.27.4.6.4.33 0 .6-.18.6-.4 0-.22-.27-.4-.6-.4-.33 0-.6.18-.6.4m325.085 6.403c.096.368.852.968 1.679 1.333 1.913.844 2.036.835 2.036-.154 0-.718-.171-.786-1.4-.556-1.21.227-1.4.158-1.4-.515 0-.428-.245-.778-.545-.778-.313 0-.471.286-.37.67M378.8 11.2c.283.529.796.78 1.514.74l1.086-.06-1.1-.167c-.611-.092-1.1-.421-1.1-.74 0-.315-.186-.573-.414-.573-.281 0-.276.258.014.8m3.2 2.112c0 .062.63.706 1.4 1.432 1.703 1.607 1.864 1.358.213-.33-1.045-1.07-1.613-1.458-1.613-1.102M15.867 15.867c-.461.46-.292.933.333.933.33 0 .6-.27.6-.6 0-.625-.473-.794-.933-.333m374.979 6.744c-.025.446.314 1.119.754 1.496s.8.516.8.309c0-.207-.25-.52-.555-.696-.306-.176-.645-.68-.754-1.12-.196-.791-.199-.791-.245.011M394 26.776c0 .785.676 1.481 1.063 1.094.314-.314-.26-1.87-.69-1.87-.205 0-.373.349-.373.776m.846 2.504c-.025.374.198.824.495 1 .298.176.644.59.769.92.151.4.237.3.258-.3.019-.528-.204-.9-.539-.9-.314 0-.653-.315-.753-.7-.167-.637-.187-.639-.23-.02m2.8 5.571c-.025.358.224.875.554 1.149.415.344.6.359.6.049 0-.247-.167-.449-.371-.449s-.453-.315-.553-.7c-.155-.591-.19-.598-.23-.049M0 46.6c0 .33.18.6.4.6.22 0 .4-.27.4-.6 0-.33-.18-.6-.4-.6-.22 0-.4.27-.4.6m0 2.2c0 .66.18 1.2.4 1.2.22 0 .4-.54.4-1.2 0-.66-.18-1.2-.4-1.2-.22 0-.4.54-.4 1.2m195.5 12.295c1.155.081 3.045.081 4.2 0 1.155-.081.21-.147-2.1-.147s-3.255.066-2.1.147m16.205-.008c.609.092 1.509.09 2-.005.492-.095-.005-.171-1.105-.168-1.1.003-1.503.081-.895.173m4.295.399c.33.122.96.388 1.4.59.787.362.788.358.024-.254-.428-.342-1.058-.608-1.4-.59-.539.027-.542.061-.024.254m-42.9 2.396a5.661 5.661 0 001.8 0c.495-.095.09-.173-.9-.173s-1.395.078-.9.173m55.7 4.243c0 .069.585.654 1.3 1.3l1.3 1.175-1.175-1.3c-1.095-1.212-1.425-1.484-1.425-1.175M241.737 95.4c.002 1.76.072 2.43.156 1.489.085-.94.084-2.38-.002-3.2-.086-.819-.155-.049-.154 1.711m-.881 7.655c-.48 1.072-.47 1.103.162.484.371-.363.602-.879.513-1.145-.089-.267-.392.031-.675.661M229.4 121.876c-1.918 1.808-2.17 2.13-.8 1.022 1.897-1.534 4.136-3.719 3.77-3.679-.094.01-1.43 1.206-2.97 2.657m-11.113 6.77c-.136.136-.841.387-1.567.559-1.148.272-1.187.318-.296.354.562.023 1.372-.223 1.8-.546.427-.323.671-.593.543-.6-.129-.007-.345.098-.48.233m-12.975 2.449c1.052.082 2.672.081 3.6-.003.928-.084.068-.151-1.912-.15-1.98.001-2.74.07-1.688.153M194 131.6l-1.8.28 1.676.06c.922.033 1.788-.12 1.924-.34.136-.22.192-.373.124-.34-.068.033-.934.186-1.924.34m-117.7 8.214c-.999 1.336-.869 1.709.146.419.465-.591.78-1.138.7-1.215-.08-.077-.461.282-.846.796M63.701 176.6c.004.88.086 1.193.182.695.096-.497.092-1.217-.008-1.6-.1-.382-.179.025-.174.905m-1.961 14.6c0 1.87.069 2.635.153 1.7.084-.935.084-2.465 0-3.4s-.153-.17-.153 1.7m69.169 2c0 .99.078 1.395.173.9a5.661 5.661 0 000-1.8c-.095-.495-.173-.09-.173.9m-1.2 7.2c0 .99.078 1.395.173.9a5.661 5.661 0 000-1.8c-.095-.495-.173-.09-.173.9m180.791.7a955.05 955.05 0 0019 0c5.225-.064.95-.115-9.5-.115s-14.725.051-9.5.115M61.746 207c.001 2.2.068 3.049.149 1.887.081-1.163.081-2.963-.002-4-.082-1.038-.148-.087-.147 2.113m281.654.625c0 2.17.122 3.638.272 3.261.37-.933.387-6.174.022-6.747-.162-.253-.294 1.315-.294 3.486m-.48 9.175c0 1.21.075 1.705.167 1.1a8.899 8.899 0 000-2.2c-.092-.605-.167-.11-.167 1.1m-.474 5.267c-.025.367-.15.997-.276 1.4-.218.695-.207.696.227.02.251-.391.376-1.021.276-1.4-.162-.619-.185-.621-.227-.02M84 226.395c-.409.26-.09.304 1 .137 1.977-.303 2.314-.534.767-.526-.642.003-1.437.178-1.767.389m257.115 1.815a39.61 39.61 0 01-.495 1.59c-.149.44.022.294.38-.324s.581-1.334.495-1.59c-.085-.256-.256-.11-.38.324m-83.137 14.49l-1.378 1.5 1.5-1.378c1.396-1.284 1.684-1.622 1.378-1.622-.066 0-.741.675-1.5 1.5m-6.4 6.4l-1.378 1.5 1.5-1.378c1.396-1.284 1.684-1.622 1.378-1.622-.066 0-.741.675-1.5 1.5M225.7 263.876c.385.1 1.015.1 1.4 0 .385-.101.07-.183-.7-.183s-1.085.082-.7.183m-12.088 2.908c-.953.603-.303.73.788.155.551-.291.731-.527.4-.527-.33 0-.865.168-1.188.372m-12.312 1.114a111.9 111.9 0 007 0c1.925-.073.35-.133-3.5-.133s-5.425.06-3.5.133m-6.5.502c-.792.254-.833.32-.2.32.44 0 1.25-.144 1.8-.32.792-.254.833-.32.2-.32-.44 0-1.25.144-1.8.32m124.229 9.162L317.858 279l1.351-1.287c.742-.708 1.269-1.355 1.17-1.438-.098-.083-.706.496-1.35 1.287m-10.605 12.956c-1.681 1.971-1.695 2.007-.267.682 1.266-1.174 2.561-2.846 2.157-2.782-.063.01-.913.955-1.89 2.1m-3.846 4.353c-1.088 1.139-1.695 1.904-1.349 1.7.654-.386 3.792-3.771 3.495-3.771-.092 0-1.058.932-2.146 2.071M164.962 303c0 3.52.062 4.906.136 3.081.074-1.825.074-4.705-.001-6.4-.075-1.695-.136-.201-.135 3.319m131.824-.7l-2.186 2.3 2.3-2.186c2.137-2.032 2.483-2.414 2.186-2.414-.062 0-1.097 1.035-2.3 2.3m-12.611 10.2L283 313.8l1.3-1.175c.715-.646 1.3-1.231 1.3-1.3 0-.309-.33-.037-1.425 1.175M168.8 319.889c0 .232.371.847.824 1.367l.823.944-.702-1.2c-.925-1.579-.945-1.603-.945-1.111m68.305 13.994c.497.096 1.217.092 1.6-.008.382-.1-.025-.179-.905-.174-.88.004-1.193.086-.695.182m-9.4 2.404c.609.092 1.509.09 2-.005.492-.095-.005-.171-1.105-.168-1.1.003-1.503.081-.895.173m-35.605 1.589c.385.1 1.015.1 1.4 0 .385-.101.07-.183-.7-.183s-1.085.082-.7.183m24.6.006a5.661 5.661 0 001.8 0c.495-.095.09-.173-.9-.173s-1.395.078-.9.173m-17 .417c2.805.069 7.395.069 10.2 0 2.805-.069.51-.125-5.1-.125-5.61 0-7.905.056-5.1.125m197.175 31.572c.372.098.756.482.854.854.126.478.192.413.225-.225.035-.693-.161-.889-.854-.854-.638.033-.703.099-.225.225m-7.275 11.033c0 .351-.315.72-.7.82-.656.172-.655.186.013.23.723.047 1.393-.981.936-1.438-.137-.137-.249.037-.249.388m-376.8 1.247c0 .083.27.375.6.649.491.408.6.38.6-.151 0-.357-.27-.649-.6-.649-.33 0-.6.068-.6.151m372.5 3.212c-1.701 1.794-.867 2.568.882.819.56-.56 1.018-1.19 1.018-1.4 0-.688-.982-.387-1.9.581m-365.7 3.416c0 .827 2.012 2.569 2.456 2.125.548-.548.041-1.427-.667-1.155-.292.112-.731-.038-.976-.334-.333-.401-.315-.59.07-.745.329-.131.262-.218-.183-.238-.385-.018-.7.139-.7.347m349.094 7.86c-.287.287.078 1.361.463 1.361.149 0 .272-.36.272-.8 0-.798-.282-1.013-.735-.561" fill="#f44c54"/><path d="M353.3.4c.091.338.671.628 1.331.663 1.007.055 1.03.036.169-.14-.55-.112-1.149-.411-1.33-.663-.221-.308-.277-.261-.17.14m3.2 1.076c.385.1 1.015.1 1.4 0 .385-.101.07-.183-.7-.183s-1.085.082-.7.183m3.852 1.036c.193.193.867.286 1.499.207 1.058-.132 1.03-.16-.351-.351-.86-.119-1.35-.058-1.148.144m6.848 1.059c0 .204-.268.429-.595.5-.417.09-.318.258.331.559.842.391.91.345.748-.5-.175-.92-.484-1.276-.484-.559M30.4 5.8c0 .33.315.586.7.568.422-.019.501-.112.198-.234-.277-.111-.401-.367-.277-.568.124-.201.036-.366-.197-.366s-.424.27-.424.6m346.861 3.6c-.026.44.429 1.25 1.011 1.8 1.005.951 1.034.956.579.1-.264-.495-.64-.9-.837-.9-.197 0-.436-.405-.532-.9-.149-.776-.18-.789-.221-.1M23.28 10.48c-.584.584-.622 1.12-.08 1.12.22 0 .4-.255.4-.567 0-.311.225-.657.5-.768.275-.111.311-.216.08-.233-.231-.018-.636.184-.9.448M389.836 21.9c1.233 2.47 1.164 2.417 1.164.9 0-.66-.203-1.2-.451-1.2s-.746-.405-1.106-.9c-.36-.495-.183.045.393 1.2m2.196 3.177c-.018.263.283.713.668 1 .385.288.955 1.018 1.267 1.622.312.605.66 1.007.774.894.113-.114-.007-.419-.268-.68-.26-.26-.473-.887-.473-1.393 0-.64-.233-.92-.767-.92-.421 0-.857-.225-.968-.5-.146-.362-.211-.368-.233-.023M6.8 29.176c0 .453.18.824.4.824.22 0 .4-.259.4-.576 0-.317-.18-.688-.4-.824-.22-.136-.4.123-.4.576m-1.6 1.648c0 .233.165.321.366.197.201-.124.457 0 .568.277.122.303.215.224.234-.198.018-.385-.238-.7-.568-.7-.33 0-.6.191-.6.424M396.101 32c.089.33.598.633 1.13.674.764.058.8.027.169-.146-.44-.121-.949-.425-1.13-.674-.219-.3-.276-.25-.169.146M4.212 34.517c-.171.395-.199.83-.061.967.406.406.733-.164.546-.953-.165-.698-.187-.699-.485-.014m392.988.58c0 .223.27.629.6.903.33.274.614.791.632 1.149.019.409.106.466.232.155.11-.273-.174-.972-.632-1.554-.458-.582-.832-.876-.832-.653M2.67 37.361c-.25.652.086 1.113.586.805.454-.281.444-1.366-.013-1.366-.197 0-.454.252-.573.561M208.2 59.889c.44.109 1.07.403 1.4.654.522.397.528.366.051-.243-.302-.385-.932-.679-1.4-.654-.808.044-.811.057-.051.243m-20.1 1.205a29.38 29.38 0 003.8 0c1.045-.082.19-.15-1.9-.15s-2.945.068-1.9.15m-5.048.422c-.108.174.421.245 1.176.157.755-.088 1.372-.231 1.372-.317 0-.301-2.355-.153-2.548.16M241.714 90.6c.003 1.1.081 1.503.173.895.092-.609.09-1.509-.005-2-.095-.492-.171.005-.168 1.105m0 9.6c.003 1.1.081 1.503.173.895.092-.609.09-1.509-.005-2-.095-.492-.171.005-.168 1.105m-56.609 33.683c.497.096 1.217.092 1.6-.008.382-.1-.025-.179-.905-.174-.88.004-1.193.086-.695.182M73.5 145.014c-.999 1.336-.869 1.709.146.419.465-.591.78-1.138.7-1.215-.08-.077-.461.282-.846.796m79.678 6.486L151.8 153l1.5-1.378c.825-.759 1.5-1.434 1.5-1.5 0-.306-.338-.018-1.622 1.378M62.101 185c.004.88.086 1.193.182.695.096-.497.092-1.217-.008-1.6-.1-.382-.179.025-.174.905m-.652 2.815c-.137.358-.217 2.121-.179 3.918l.07 3.267.239-3.8c.257-4.11.247-4.367-.13-3.385m70.597 1.205c-.025.451-.225 1.037-.445 1.301-.219.265-.111.232.239-.072.35-.305.55-.891.445-1.302-.173-.673-.197-.666-.239.073M60.942 199c-.001 1.98.066 2.84.15 1.912.084-.928.085-2.548.003-3.6-.083-1.052-.152-.292-.153 1.688m68.804 6.8c.001 2.2.068 3.049.149 1.887.081-1.163.081-2.963-.002-4-.082-1.038-.148-.087-.147 2.113m-68.4.8c.001 2.2.068 3.049.149 1.887.081-1.163.081-2.963-.002-4-.082-1.038-.148-.087-.147 2.113m.774 7.8c0 1.21.075 1.705.167 1.1a8.899 8.899 0 000-2.2c-.092-.605-.167-.11-.167 1.1m280.789 6c0 .99.078 1.395.173.9a5.661 5.661 0 000-1.8c-.095-.495-.173-.09-.173.9m-257.309 6c-1.384.291-1.386.295-.2.341.66.026 1.47-.128 1.8-.341.666-.43.445-.43-1.6 0m-13.878.699c2.377.071 6.157.07 8.4-.001 2.243-.071.298-.129-4.322-.129-4.62.001-6.455.059-4.078.13m182.476 19.303c-1.023 1.13-.588 1.235.488.118.487-.506.74-.92.562-.92-.178 0-.651.361-1.05.802m-36.693 19.881c.497.096 1.217.092 1.6-.008.382-.1-.025-.179-.905-.174-.88.004-1.193.086-.695.182M165.28 294.48c-.264.264-.455.939-.426 1.5l.055 1.02.184-1c.101-.55.368-1.225.594-1.5.524-.638.226-.653-.407-.02m29.382 44.02c.239.388 19.79.382 20.4-.006.254-.162-4.273-.294-10.061-.294s-10.441.135-10.339.3M1.2 360.176c0 1.407.584 1.565.684.185.046-.639-.089-1.161-.3-1.161s-.384.439-.384.976m1.033 3.681c-.138.362-.158.752-.042.867.115.115.209-.001.209-.257 0-.257.27-.467.6-.467.33 0 .6-.18.6-.4 0-.658-1.094-.452-1.367.257m7.145 12.978c-.147.239-.068.635.177.88.327.327.445.211.445-.435 0-.966-.208-1.115-.622-.445m378.668 5.494c-.054.615-1.028 1.671-1.543 1.671-.426 0-2.503 2.116-2.503 2.55 0 .409-.87 1.26-1.607 1.573-.326.138-.054.212.605.164.924-.067 1.244-.316 1.4-1.087.287-1.42 1.619-2.8 2.703-2.8 1.007 0 1.473-.742 1.179-1.877-.103-.397-.208-.485-.234-.194M24.8 392.787c0 .214.295.275.655.137.45-.173.595-.076.464.312-.191.569.741 1.538 1.481 1.539.22 0 .085-.183-.3-.407-.385-.224-.7-.759-.7-1.188 0-.513-.273-.78-.8-.78-.44 0-.8.174-.8.387m8.628 4.058c.151.244.026.618-.277.83-.453.317-.444.357.049.222.71-.193 1.063-1.497.406-1.497-.249 0-.33.2-.178.445m329.077 2.242c.609.092 1.509.09 2-.005.492-.095-.005-.171-1.105-.168-1.1.003-1.503.081-.895.173" fill="#f43c44"/><path d="M353.552 1.312c.193.193.867.286 1.499.207 1.058-.132 1.03-.16-.351-.351-.86-.119-1.35-.058-1.148.144M379.2 12.155c0 .085.53.232 1.179.327.648.095 1.088.026.976-.154-.198-.321-2.155-.478-2.155-.173m13.804 14.814c.6.787 1.143 1.431 1.206 1.431.373 0-.919-2.001-1.545-2.391-.541-.338-.446-.069.339.96m3.202 5.841c.266.43 1.794.77 1.794.399 0-.174-.445-.401-.988-.505-.543-.103-.906-.056-.806.106M182.749 61.5c-.479.611-.472.64.056.23.333-.259 1.323-.544 2.2-.633l1.595-.163-1.651-.067c-1.156-.047-1.816.143-2.2.633m32.951 68.376c.385.1 1.015.1 1.4 0 .385-.101.07-.183-.7-.183s-1.085.082-.7.183m-19.52 1.693c-.209.203-.92.446-1.58.54l-1.2.171 1.251.06c.69.033 1.475-.209 1.749-.54.545-.657.388-.822-.22-.231M60.942 192.2c-.001 1.98.066 2.84.15 1.912.084-.928.085-2.548.003-3.6-.083-1.052-.152-.292-.153 1.688m.004 14c.001 2.2.068 3.049.149 1.887.081-1.163.081-2.963-.002-4-.082-1.038-.148-.087-.147 2.113m283.137 1.42c-.046 2.101-.262 4.037-.482 4.301-.219.265-.122.243.216-.05.491-.425.588-1.289.482-4.301l-.133-3.77-.083 3.82M129.72 211.6c0 1.21.075 1.705.167 1.1a8.899 8.899 0 000-2.2c-.092-.605-.167-.11-.167 1.1M62.109 218c0 .99.078 1.395.173.9a5.661 5.661 0 000-1.8c-.095-.495-.173-.09-.173.9M194.9 267.876c.385.1 1.015.1 1.4 0 .385-.101.07-.183-.7-.183s-1.085.082-.7.183m5.023 71.223c2.708.069 7.028.069 9.6 0 2.572-.07.357-.127-4.923-.126-5.28 0-7.385.057-4.677.126M1.952 360.087c.185 1.111.241 1.168.367.367.082-.521-.016-1.111-.218-1.313-.222-.222-.28.152-.149.946m2.848 9.864c0 .193.254.562.564.819.627.521 1.268-.07.836-.77-.305-.493-1.4-.531-1.4-.049m4 6.076c0 .599.182.789.6.628.33-.126.6-.026.6.224s.122.332.271.183c.149-.149-.121-.636-.6-1.082l-.871-.811v.858m380 5.045c-.887.938-.903 1.006-.147.604.469-.25.958-.729 1.087-1.065.314-.817.228-.775-.94.461m-1.798 2.126c-.399.441-.595.802-.435.802.421 0 1.561-1.205 1.345-1.421-.101-.101-.51.177-.91.619M16.8 385.951c0 .193.254.562.564.819.627.521 1.268-.07.836-.77-.305-.493-1.4-.531-1.4-.049m366.202 1.247c-.399.441-.595.802-.435.802.421 0 1.561-1.205 1.345-1.421-.101-.101-.51.177-.91.619M34 397.013c0 .336.278.719.617.849.904.347.952.036.116-.762-.62-.592-.733-.606-.733-.087" fill="#f4343c"/><path d="M37.454 3.002c-.139.363.002.598.359.598.647 0 .794-.625.229-.974-.197-.122-.461.048-.588.376m-1.586.364c-.133.349-.519.634-.855.634-.337 0-.613.18-.613.4 0 .55.861.48 1.671-.136.406-.308.547-.712.356-1.021-.244-.394-.371-.366-.559.123M29.455 7c-.126.33-.043.6.186.6.229 0 .686-.27 1.016-.6.533-.533.513-.6-.186-.6-.432 0-.889.27-1.016.6m-2.218.892c-.618.583-.762.903-.4.895.84-.019 1.945-.977 1.634-1.418-.155-.22-.682.003-1.234.523m-10.005 8.221c-.018.392-.437.876-.932 1.075-.609.244-.69.369-.249.387.823.032 1.69-.985 1.418-1.662-.127-.317-.218-.241-.237.2m371.445 5.118c.398.677.979 1.442 1.291 1.7.312.258.064-.296-.553-1.231-1.295-1.963-1.806-2.288-.738-.469M392 26.217c0 .12.475.705 1.056 1.3l1.056 1.083-.883-1.3c-.835-1.228-1.229-1.575-1.229-1.083M165.149 65.5c-.477.609-.471.64.051.243.33-.251.96-.545 1.4-.654.76-.186.757-.199-.051-.243-.468-.025-1.098.269-1.4.654m-56.574 31.4l-1.175 1.3 1.3-1.175c1.212-1.095 1.484-1.425 1.175-1.425-.069 0-.654.585-1.3 1.3m-12 12l-1.175 1.3 1.3-1.175c1.212-1.095 1.484-1.425 1.175-1.425-.069 0-.654.585-1.3 1.3m54.347 45.329l-1.122 1.029 1.3-.904c.715-.497 1.3-.961 1.3-1.029 0-.316-.442-.045-1.478.904M94.5 224.676c.385.1 1.015.1 1.4 0 .385-.101.07-.183-.7-.183s-1.085.082-.7.183M310.975 288.5l-1.175 1.3 1.3-1.175c1.212-1.095 1.484-1.425 1.175-1.425-.069 0-.654.585-1.3 1.3m-86.47 48.187c.609.092 1.509.09 2-.005.492-.095-.005-.171-1.105-.168-1.1.003-1.503.081-.895.173m173.951 27.189c-.031.922-.236 1.788-.456 1.924-.22.136-.4.439-.4.673 0 .268.222.241.6-.073.481-.399.6-.395.6.018 0 .283.061.44.136.349.075-.092.01-1.157-.144-2.367-.264-2.083-.282-2.111-.336-.524m-3.163 7.079c-.379.832-.342.931.29.765.483-.126.658-.443.524-.955-.254-.97-.289-.962-.814.19m-2.847 4.945c-.464.385-.964 1.33-1.112 2.1-.238 1.238-.197 1.341.357.885.374-.307.538-.852.407-1.352-.152-.582.075-1.064.742-1.577.528-.406.845-.742.704-.747-.14-.005-.635.306-1.098.691M12 380.8c.235.44.719.8 1.075.8.505 0 .444-.176-.275-.8-.507-.44-.991-.8-1.075-.8-.084 0 .04.36.275.8m2.4 2.17c0 .708 2.143 2.802 2.32 2.269.068-.202-.427-.93-1.099-1.617-.792-.811-1.221-1.04-1.221-.652m4.093 4.63c.519.832 1.307 1.048 1.671.458.116-.187-.242-.547-.795-.8-1.364-.621-1.455-.585-.876.342m355.111 6.595c-.512.618.509 1.425 1.08.854.137-.137.017-.249-.266-.249-.413 0-.417-.119-.018-.6.278-.335.321-.6.098-.6-.22 0-.622.268-.894.595m-2.753 1.16c-.94.52-.941.528-.1.748.549.144.849.035.849-.307 0-.291.225-.62.5-.731.275-.111.32-.21.1-.219-.22-.01-.827.219-1.349.509m-339.841.229c-.339.549-.039.961.552.758.242-.084.273-.366.075-.685-.25-.402-.412-.421-.627-.073m336.59 1.549c0 .257-.338.467-.751.467-.94 0-1.869 1.017-1.268 1.388.23.143.618.136.862-.014.308-.191.278-.378-.1-.618-.399-.253-.311-.345.333-.35.896-.006 1.596-.667 1.164-1.099-.132-.132-.24-.03-.24.226" fill="#f43434"/></g></svg>