<svg width="128" height="128" xmlns="http://www.w3.org/2000/svg"><rect width="100%" height="100%" rx="8" fill="#f5c518"/><path d="M16 46v36h10V46zM47.345 46l-2.238 16.817-1.39-9.147a252.35 252.35 0 00-1.16-7.67H30v36h8.483l.033-23.772L42.087 82h6.04l3.39-24.296L51.54 82H60V46zM64 82V46h15.61c3.529 0 6.39 2.84 6.39 6.353v23.294C86 79.156 83.143 82 79.61 82zm11.664-29.521c-.396-.214-1.155-.318-2.259-.318v23.622c1.458 0 2.354-.262 2.69-.81.337-.54.51-2 .51-4.399V56.616c0-1.628-.061-2.668-.173-3.129-.112-.46-.362-.794-.768-1.008zM104.86 55.014h.639c3.59 0 6.501 2.811 6.501 6.276v14.434c0 3.466-2.91 6.276-6.501 6.276h-.64c-2.196 0-4.138-1.053-5.315-2.663l-.576 2.2H90V46h9.569v11.561a6.774 6.774 0 015.29-2.547zm-2.049 17.554v-8.53c0-1.41-.09-2.334-.279-2.76-.188-.426-.94-.7-1.469-.7s-1.341.223-1.5.597v14.44c.181.411.957.64 1.5.64s1.333-.222 1.5-.64c.165-.418.248-1.439.248-3.047z"/></svg>