<svg xmlns="http://www.w3.org/2000/svg" width="120" height="120"><path fill="#34373c" d="M0 0h120v120H0z"/><path d="M59.565 37.653c-6.113 0-10.907-4.305-10.907-9.796 0-5.382 4.914-9.794 10.907-9.794 5.992 0 10.786 4.412 10.786 9.794 0 5.49-4.794 9.796-10.786 9.796M59.565 44.157c6.351 0 9.347 3.983 9.347 12.272v34.12c0 8.289-2.874 12.38-9.347 12.38-6.47 0-9.469-4.091-9.469-12.38v-34.12c0-8.289 2.997-12.272 9.47-12.272" fill="#fff"/><path d="M59.564 37.653c-6.113 0-10.907-4.305-10.907-9.795 0-5.382 4.915-9.795 10.907-9.795s10.786 4.413 10.786 9.795c0 5.49-4.794 9.795-10.786 9.795" fill="#1bb76e"/></svg>