<svg xmlns="http://www.w3.org/2000/svg" width="128" height="128" viewBox="0 0 2839.07 819.72"><defs><clipPath id="a"><path style="fill:none" d="M0 0h2820v800H0z"/></clipPath><clipPath id="b"><path d="m289.22 0 161.14 762.44h37.46L648.94 0h289.21v799.72H791.93v-667.1l27.22-95.34H772L604 799.72H335.26L166.18 37.28h-46l26.07 95.34v667.1H0V0Zm2529.85 4v167.85l-322.14 228 322.14 228v167.9l-380-273.44h-40.84l-378.89 273.45V627.85l321-228-321-228V4l378.88 274.56h40.84L2819.07 4Zm-924.32 323.1v145.56h-801.84V327.07Z" style="clip-path:url(#a);clip-rule:evenodd;fill:none"/></clipPath><clipPath id="c" transform="translate(10 10)"><path style="clip-path:url(#b);fill:none" d="M0 .2h2820v799.92H0z"/></clipPath></defs><g data-name="Layer 2"><g style="clip-path:url(#c)" data-name="Layer 1"><path style="fill:#f6bdb0" d="M0 0h2839.07v819.72H0z"/></g></g></svg>