<svg xmlns="http://www.w3.org/2000/svg" width="42" height="42"><g fill-rule="nonzero" fill="none"><path fill="#FC3063" d="M17.418 14.84v14.234c0 .175.144.32.318.32a.332.332 0 00.16-.044l12.425-7.118a.322.322 0 00.12-.436.321.321 0 00-.12-.12l-12.426-7.12a.319.319 0 00-.434.121.343.343 0 00-.043.164z"/><path fill="#6DE4FF" d="M14.878 11.576v14.232c0 .175.144.32.318.32a.346.346 0 00.16-.043l12.425-7.118a.324.324 0 00.12-.436.321.321 0 00-.12-.12l-12.426-7.119a.314.314 0 00-.434.12.327.327 0 00-.043.164z"/><path fill="#FFF" d="M33.961 6.017a19.505 19.505 0 00-12.126-4.203c-10.856 0-19.658 8.84-19.658 19.744A19.722 19.722 0 007.77 35.351a19.523 19.523 0 0012.126 4.203c10.856 0 19.658-8.84 19.658-19.744a19.732 19.732 0 00-5.593-13.793zM21.835 36.37c-4.253 0-8.086-1.81-10.78-4.703a14.811 14.811 0 01-5.91-11.86c0-8.183 6.603-14.814 14.75-14.814 4.255 0 8.088 1.81 10.78 4.702a14.808 14.808 0 015.91 11.86c-.003 8.184-6.606 14.815-14.75 14.815z"/><path fill="#FC3063" d="M21.695 2.048c-10.922 0-19.777 8.855-19.777 19.777 0 10.921 8.855 19.777 19.777 19.777s19.777-8.856 19.777-19.777c-.004-10.926-8.855-19.777-19.777-19.777zm0 34.612c-8.193 0-14.84-6.642-14.84-14.84 0-8.196 6.643-14.839 14.84-14.839s14.84 6.643 14.84 14.84-6.647 14.84-14.84 14.84z"/><path fill="#6DE4FF" d="M33.93 5.962A19.706 19.706 0 0019.78 0C8.856 0 0 8.856 0 19.779c0 6.32 2.964 11.946 7.574 15.564a19.697 19.697 0 0012.201 4.21c10.923 0 19.779-8.855 19.779-19.778a19.696 19.696 0 00-5.623-13.813zM4.939 19.779c0-8.198 6.643-14.841 14.84-14.841 4.28 0 8.137 1.813 10.847 4.71a14.797 14.797 0 013.995 10.13c0 8.199-6.643 14.842-14.841 14.842a14.774 14.774 0 01-8.895-2.96c-3.61-2.71-5.946-7.024-5.946-11.881z"/><path fill="#313131" d="M16.33 13.389v14.234a.32.32 0 00.318.319.342.342 0 00.159-.043l12.426-7.119a.326.326 0 00.12-.436.329.329 0 00-.12-.12l-12.426-7.119a.318.318 0 00-.477.284z"/><path fill="#313131" d="M33.961 6.017a19.505 19.505 0 00-12.126-4.203c-10.856 0-19.658 8.84-19.658 19.744A19.722 19.722 0 007.77 35.351a19.523 19.523 0 0012.126 4.203c10.856 0 19.658-8.84 19.658-19.744a19.732 19.732 0 00-5.593-13.793zM21.835 36.37c-4.253 0-8.086-1.81-10.78-4.703a14.811 14.811 0 01-5.91-11.86c0-8.183 6.603-14.814 14.75-14.814 4.255 0 8.088 1.81 10.78 4.702a14.808 14.808 0 015.91 11.86c-.003 8.184-6.606 14.815-14.75 14.815z"/></g></svg>