<svg viewBox="0 0 48 48" xmlns="http://www.w3.org/2000/svg"><circle cx="24" cy="24" fill="#CA3737" r="24"/><path d="M24 12.1c-6.6 0-11.9 5.3-11.9 11.9 0 4.9 2.9 9 7.1 10.9 0-.8 0-1.8.2-2.7.2-1 1.5-6.5 1.5-6.5s-.4-.8-.4-1.9c0-1.8 1-3.1 2.3-3.1 1.1 0 1.6.8 1.6 1.8 0 1.1-.7 2.7-1 4.2-.3 1.3.7 2.3 1.9 2.3 2.3 0 3.8-2.9 3.8-6.3 0-2.6-1.8-4.5-4.9-4.5-3.6 0-5.8 2.7-5.8 5.7 0 1 .3 1.8.8 2.3.2.3.3.4.2.7-.1.2-.2.7-.2 1-.1.3-.3.4-.6.3-1.7-.7-2.4-2.5-2.4-4.5 0-3.4 2.8-7.4 8.5-7.4 4.5 0 7.5 3.3 7.5 6.8 0 4.7-2.6 8.1-6.4 8.1-1.3 0-2.5-.7-2.9-1.5 0 0-.7 2.7-.8 3.3-.3.9-.7 1.8-1.2 2.5 1.1.3 2.2.5 3.4.5 6.6 0 11.9-5.3 11.9-11.9-.3-6.7-5.6-12-12.2-12z" fill="#FFF"/></svg>