<svg xmlns="http://www.w3.org/2000/svg" viewBox="0 0 48 48"><defs><linearGradient id="a" gradientUnits="userSpaceOnUse" x1="24.61" y1="47.593" x2="23.593" y2="-.203"><stop stop-color="#ff433a"/><stop stop-color="#ff9436" offset="1"/></linearGradient></defs><rect height="48" width="48" rx="2.982" fill="url(#a)" fill-rule="evenodd"/><path d="M5.43 25.619c-.079 0-.142.061-.152.149L5 27.879l.278 2.074a.15.15 0 00.152.148c.077 0 .139-.06.152-.148l.329-2.075-.329-2.111c-.012-.087-.075-.148-.152-.148m1.563-1.153c-.013-.091-.078-.153-.158-.153s-.147.065-.158.153l-.374 3.413.374 3.337c.011.09.077.154.158.154.08 0 .145-.063.158-.153l.425-3.338zm5.886-3.148a.293.293 0 00-.287.285l-.298 6.279.298 4.058a.293.293 0 00.287.284.295.295 0 00.288-.284l.336-4.058-.336-6.279a.295.295 0 00-.288-.285M9.832 23.5a.228.228 0 00-.223.22l-.335 4.16.335 4.02a.228.228 0 00.223.218.23.23 0 00.223-.219l.381-4.02-.381-4.16a.223.223 0 00-.223-.22m6.143 8.722c.19 0 .345-.153.352-.349l.292-3.989-.291-8.359a.356.356 0 00-.352-.349.356.356 0 00-.353.35l-.259 8.358.259 3.991a.354.354 0 00.352.348zm6.338.02a.487.487 0 00.482-.48v.002-.003l.204-3.875-.204-9.654a.488.488 0 00-.482-.48.487.487 0 00-.482.481l-.182 9.651.182 3.881a.487.487 0 00.482.478m-3.193-.015a.42.42 0 00.417-.416v.003l.248-3.929-.248-8.42a.42.42 0 00-.417-.415.418.418 0 00-.418.415l-.22 8.42.221 3.928c.005.23.188.413.418.413m-7.77-.037a.26.26 0 00.255-.25l.359-4.059-.359-3.86a.253.253 0 00-.255-.25.258.258 0 00-.255.251l-.316 3.86.316 4.057a.258.258 0 00.255.251m-3.02-.222c.099 0 .179-.078.19-.186l.403-3.902-.403-4.049c-.012-.108-.092-.186-.191-.186-.1 0-.18.078-.19.186l-.355 4.05.355 3.9a.19.19 0 00.19.187m12.383-12.643a.45.45 0 00-.45.448l-.201 8.112.201 3.904a.45.45 0 00.9-.003v.003l.226-3.904-.226-8.114a.45.45 0 00-.45-.447M14.424 32.23a.326.326 0 00.32-.317l.314-4.03-.314-7.715a.326.326 0 00-.32-.317.324.324 0 00-.32.317l-.278 7.715.278 4.03a.324.324 0 00.32.315m3.505-.38v-.002l.27-3.964-.27-8.64a.388.388 0 00-.385-.384.387.387 0 00-.385.383l-.239 8.64.24 3.966c.006.213.175.38.385.38a.388.388 0 00.385-.382zm20.4-8.947c-.64 0-1.251.13-1.808.363-.372-4.213-3.904-7.517-8.213-7.517a8.36 8.36 0 00-2.99.56c-.353.135-.447.276-.45.55V31.69a.567.567 0 00.505.553l12.956.008a4.674 4.674 0 000-9.349m-14.417-6.06a.52.52 0 00-.515.514l-.211 10.53.211 3.82a.518.518 0 00.515.51c.28 0 .51-.23.515-.514v.005l.229-3.822-.229-10.53a.52.52 0 00-.515-.513" fill="#ffe8e1"/></svg>