<svg height="512" viewBox="0 0 24 24" width="512" xmlns="http://www.w3.org/2000/svg"><path d="M20.497 1.505c-3.328-.121-5.576 1.787-6.762 5.694a4.312 4.312 0 011.777-.395c4.219 0-.971 8.155-2.263 8.155-1.522 0-2.437-7.284-2.747-9.273-.431-2.765-1.58-4.058-3.447-3.877-.789.075-1.975.799-3.554 2.181A316.155 316.155 0 010 7.15l1.129 1.472C2.204 7.86 2.831 7.478 3.01 7.478c3.092 0 2.888 15.022 7.783 15.022 4.702 0 12.978-11.521 13.184-16.139l.013-.01c.134-3.165-1.021-4.785-3.493-4.846z" fill="#19b2e5"/></svg>